<?xml version="1.0" encoding="utf-8"?>

<!--
 * Copyright (c) 2015, WSO2 Inc. (http://www.wso2.org) All Rights Reserved.
 *
 * WSO2 Inc. licenses this file to you under the Apache License,
 * Version 2.0 (the "License"); you may not use this file except
 * in compliance with the License.
 * You may obtain a copy of the License at
 *
 * http://www.apache.org/licenses/LICENSE-2.0
 *
 * Unless required by applicable law or agreed to in writing,
 * software distributed under the License is distributed on an
 * "AS IS" BASIS, WITHOUT WARRANTIES OR CONDITIONS OF ANY
 * KIND, either express or implied. See the License for the
 * specific language governing permissions and limitations
 * under the License.
-->

<svg version="1.1" id="gadget" xmlns="http://www.w3.org/2000/svg" xmlns:xlink="http://www.w3.org/1999/xlink" x="0px" y="0px"
	 viewBox="0 0 14 14" enable-background="new 0 0 14 14" xml:space="preserve">
<path d="M13.433,5.572l-0.889-0.104c-0.122-0.464-0.305-0.907-0.538-1.323l0.547-0.692c0.203-0.256,0.181-0.621-0.047-0.852
	l-1.067-1.067c-0.23-0.23-0.596-0.251-0.852-0.048L9.915,2.019C9.479,1.763,9.013,1.568,8.524,1.436L8.423,0.567
	C8.385,0.243,8.111,0,7.787,0H6.274C5.949,0,5.676,0.243,5.637,0.567L5.536,1.436C5.034,1.57,4.556,1.774,4.109,2.039L3.412,1.487
	C3.156,1.283,2.791,1.307,2.56,1.535l-1.068,1.07C1.261,2.835,1.241,3.2,1.443,3.456l0.583,0.737
	c-0.233,0.421-0.41,0.869-0.527,1.336L0.566,5.636C0.242,5.673-0.001,5.947-0.001,6.272v1.513c0,0.324,0.244,0.598,0.567,0.636
	L1.55,8.535c0.124,0.426,0.296,0.836,0.515,1.221L1.443,10.54c-0.202,0.256-0.18,0.62,0.049,0.851l1.069,1.07
	c0.231,0.23,0.596,0.251,0.852,0.049l0.778-0.615c0.4,0.23,0.826,0.41,1.269,0.537l0.117,1.001C5.615,13.757,5.889,14,6.213,14
	h1.513c0.324,0,0.599-0.244,0.636-0.569l0.112-0.966c0.477-0.124,0.932-0.308,1.361-0.55l0.753,0.597
	c0.256,0.202,0.622,0.179,0.852-0.048l1.069-1.07c0.231-0.23,0.251-0.595,0.048-0.851L11.971,9.8
	c0.243-0.421,0.433-0.869,0.559-1.339l0.902-0.104c0.326-0.038,0.568-0.312,0.568-0.636V6.209
	C14.001,5.884,13.759,5.61,13.433,5.572z M7,11.624c-2.554,0-4.624-2.071-4.624-4.624S4.446,2.375,7,2.375
	c2.554,0,4.624,2.071,4.624,4.624C11.624,9.554,9.554,11.624,7,11.624z M4.105,9.083c-0.224,0.224-0.224,0.587,0,0.811
	c0.112,0.112,0.259,0.168,0.406,0.168c0.147,0,0.294-0.056,0.406-0.168L6.8,8.01L5.989,7.2L4.105,9.083z M8.813,5.592l0.82-0.424
	l0.43-0.83l-0.4-0.4l-0.83,0.43l-0.425,0.82L7.409,6.186l0.405,0.405L8.813,5.592z M8.992,7.769L8.915,7.762
	c-0.14,0-0.273,0.029-0.396,0.075L6.164,5.481C6.21,5.357,6.238,5.225,6.238,5.085L6.231,5.008c-0.041-0.597-0.532-1.07-1.14-1.07
	c-0.177,0-0.342,0.043-0.492,0.115l0.762,0.762c0.04,0.04,0.068,0.087,0.086,0.138c0.05,0.135,0.023,0.294-0.086,0.403
	C5.287,5.43,5.189,5.467,5.091,5.467c-0.045,0-0.09-0.01-0.133-0.026c-0.05-0.019-0.097-0.046-0.138-0.086L4.059,4.593
	c-0.071,0.15-0.115,0.315-0.115,0.492c0,0.607,0.473,1.099,1.07,1.14l0.077,0.008c0.14,0,0.273-0.029,0.396-0.074l2.354,2.355
	C7.797,8.636,7.768,8.769,7.768,8.909l0.008,0.077c0.04,0.597,0.532,1.07,1.139,1.07c0.177,0,0.343-0.043,0.492-0.115L8.645,9.179
	c-0.04-0.04-0.068-0.088-0.087-0.137c-0.05-0.135-0.023-0.294,0.087-0.403c0.074-0.075,0.172-0.112,0.27-0.112
	c0.045,0,0.09,0.01,0.133,0.026c0.05,0.019,0.098,0.046,0.137,0.086l0.762,0.762c0.072-0.15,0.115-0.315,0.115-0.492
	C10.063,8.302,9.589,7.81,8.992,7.769z"/>
</svg>
