<?xml version="1.0" encoding="utf-8"?>

<!--
 * Copyright (c) 2015, WSO2 Inc. (http://www.wso2.org) All Rights Reserved.
 *
 * WSO2 Inc. licenses this file to you under the Apache License,
 * Version 2.0 (the "License"); you may not use this file except
 * in compliance with the License.
 * You may obtain a copy of the License at
 *
 * http://www.apache.org/licenses/LICENSE-2.0
 *
 * Unless required by applicable law or agreed to in writing,
 * software distributed under the License is distributed on an
 * "AS IS" BASIS, WITHOUT WARRANTIES OR CONDITIONS OF ANY
 * KIND, either express or implied. See the License for the
 * specific language governing permissions and limitations
 * under the License.
-->

<svg version="1.1" id="globe" xmlns="http://www.w3.org/2000/svg" xmlns:xlink="http://www.w3.org/1999/xlink" x="0px" y="0px"
	 viewBox="0 0 14 14" enable-background="new 0 0 14 14" xml:space="preserve">
<path d="M0,7.4c0-0.3,0-0.5,0-0.8c0-0.1,0-0.2,0-0.3c0.1-1.1,0.5-2.2,1.1-3.1C2.3,1.5,3.9,0.4,6,0.1C6.2,0,6.4,0,6.6,0
	c0.3,0,0.5,0,0.8,0c0,0,0.1,0,0.1,0C8,0.1,8.4,0.1,8.9,0.3c3.7,1,5.9,4.9,4.9,8.6c-0.9,3.3-4,5.4-7.4,5.1c-1.4-0.1-2.7-0.6-3.7-1.5
	C1.2,11.3,0.4,9.8,0.1,8C0,7.8,0,7.6,0,7.4z M10.4,7.2c0,1.1-0.3,2.2-0.7,3.2c0.5,0.3,1.1,0.6,1.6,0.9c1.1-1.1,1.7-2.5,1.8-4.1
	C12.2,7.2,11.3,7.2,10.4,7.2z M4.3,10.4c-0.4-1-0.6-2.1-0.7-3.2c-0.9,0-1.8,0-2.7,0c0.1,1.6,0.7,3,1.8,4.1C3.2,11,3.7,10.7,4.3,10.4
	z M9.9,4c0.1,0.4,0.2,0.9,0.3,1.4c0.1,0.5,0.1,1,0.2,1.4c0.9,0,1.8,0,2.7,0c0-1.2-0.8-3.2-1.5-3.8C11,3.3,10.4,3.6,9.9,4z M3.6,6.8
	c0.1-0.5,0.1-1,0.2-1.4C3.9,4.9,4,4.4,4.1,3.9C3.8,3.8,3.5,3.7,3.3,3.5C3,3.3,2.7,3.1,2.4,3C1.6,3.7,0.8,5.7,0.9,6.8
	C1.8,6.8,2.7,6.8,3.6,6.8z M4.1,7.2c0,1.1,0.2,2.1,0.7,3.1c0.7-0.2,1.4-0.3,2-0.3c0-0.9,0-1.8,0-2.7C5.9,7.2,5,7.2,4.1,7.2z M7.2,10
	c0.7,0,1.4,0.1,2.1,0.3c0.4-1,0.6-2,0.6-3.1c-0.9,0-1.8,0-2.7,0C7.2,8.1,7.2,9,7.2,10z M4.6,4.1C4.2,5,4.1,5.9,4.1,6.8
	c0.9,0,1.8,0,2.7,0c0-0.8,0-1.5,0-2.3C6,4.5,5.3,4.3,4.6,4.1z M9.9,6.8c0-0.9-0.2-1.8-0.5-2.7C8.7,4.3,8,4.5,7.2,4.5
	c0,0.8,0,1.5,0,2.3C8.1,6.8,9,6.8,9.9,6.8z M6.8,0.9c-0.9,0.8-1.6,1.7-2,2.8c0.7,0.2,1.3,0.4,2,0.4C6.8,3,6.8,2,6.8,0.9z M9.3,3.7
	C9,2.9,7.7,1.1,7.2,0.9c0,1,0,2.1,0,3.1C7.8,4.1,8.9,3.9,9.3,3.7z M8.1,1C8.4,1.4,8.7,1.8,9,2.2c0.3,0.4,0.5,0.9,0.8,1.3
	c0.5-0.2,1-0.5,1.5-0.9C10.3,1.8,9.3,1.2,8.1,1z M5.9,1C4.7,1.2,3.7,1.8,2.8,2.6c0.5,0.4,1,0.7,1.5,0.9C4.5,3.1,4.8,2.6,5,2.2
	C5.3,1.8,5.6,1.4,5.9,1z M4.9,10.7c0.5,0.9,1.1,1.7,1.9,2.4c0-0.9,0-1.8,0-2.7C6.1,10.4,5.5,10.5,4.9,10.7z M7.2,13.1
	c0.8-0.7,1.4-1.5,1.9-2.4c-0.4-0.2-1.5-0.4-1.9-0.3C7.2,11.3,7.2,12.2,7.2,13.1z M3.1,11.6C3.9,12.4,4.9,12.8,6,13
	c-0.6-0.6-1.1-1.3-1.5-2.1C4.1,11,3.3,11.4,3.1,11.6z M8,13c1.1-0.2,2.1-0.6,2.9-1.4c-0.5-0.3-0.9-0.6-1.4-0.8
	C9.1,11.7,8.6,12.4,8,13z"/>
</svg>
