<?xml version="1.0" encoding="utf-8"?>

<!--
 * Copyright (c) 2015, WSO2 Inc. (http://www.wso2.org) All Rights Reserved.
 *
 * WSO2 Inc. licenses this file to you under the Apache License,
 * Version 2.0 (the "License"); you may not use this file except
 * in compliance with the License.
 * You may obtain a copy of the License at
 *
 * http://www.apache.org/licenses/LICENSE-2.0
 *
 * Unless required by applicable law or agreed to in writing,
 * software distributed under the License is distributed on an
 * "AS IS" BASIS, WITHOUT WARRANTIES OR CONDITIONS OF ANY
 * KIND, either express or implied. See the License for the
 * specific language governing permissions and limitations
 * under the License.
-->

<svg version="1.1" id="javaee" xmlns="http://www.w3.org/2000/svg" xmlns:xlink="http://www.w3.org/1999/xlink" x="0px" y="0px"
	 viewBox="0 0 14 14" enable-background="new 0 0 14 14" xml:space="preserve">
<path fill="#040305" d="M3.659,7.432c0,0-0.584-1.256-0.563-2.174C3.112,4.602,4.439,3.953,4.96,3.012
	c0.52-0.942-0.065-1.859-0.065-1.859s0.13,0.677-0.217,1.376C4.332,3.229,3.052,3.64,2.554,4.848
	C2.056,6.055,3.659,7.432,3.659,7.432z M5.849,3.615c0,0-1.994,0.846-1.994,1.812c0,0.967,0.541,1.28,0.629,1.594
	c0.087,0.315-0.152,0.846-0.152,0.846s0.78-0.603,0.65-1.305c-0.13-0.7-0.737-0.918-0.39-1.618C4.824,4.475,5.849,3.615,5.849,3.615
	z M3.443,8.708c1.843-0.073,2.515-0.721,2.515-0.721C4.766,8.349,1.601,8.325,1.579,8.06C1.558,7.794,2.554,7.577,2.554,7.577
	s-1.56,0-1.691,0.434C0.733,8.446,1.602,8.78,3.443,8.708z M6.109,9.727c0,0,1.804-0.429,1.625-1.521
	C7.518,6.877,6.26,7.626,6.26,7.626s0.89,0,0.976,0.603C7.323,8.833,6.109,9.727,6.109,9.727z M5.221,9.147
	c0,0-0.454,0.134-1.128,0.218C3.19,9.477,2.099,9.388,2.011,9.219C1.926,9.05,2.163,8.954,2.163,8.954
	c-1.084,0.29-0.491,0.796,0.78,0.893c1.089,0.083,2.71-0.362,2.71-0.362L5.221,9.147z M2.425,10.202c0,0-0.492,0.015-0.521,0.305
	c-0.028,0.288,0.303,0.547,1.517,0.627c1.214,0.08,2.067-0.37,2.067-0.37l-0.549-0.371c0,0-0.347,0.08-0.882,0.161
	c-0.535,0.08-1.632-0.065-1.676-0.176C2.338,10.265,2.425,10.202,2.425,10.202z M7.149,11.507c0.188-0.226-0.058-0.404-0.058-0.404
	s0.086,0.113-0.028,0.241c-0.115,0.128-1.171,0.45-2.862,0.547c-1.69,0.097-3.526-0.177-3.584-0.419
	c-0.056-0.241,0.94-0.434,0.94-0.434c-0.115,0.016-1.502,0.048-1.547,0.468c-0.043,0.418,0.607,0.756,3.209,0.756
	C5.82,12.263,6.962,11.731,7.149,11.507z M6.138,12.456c-1.142,0.257-4.609,0.095-4.609,0.095s2.254,0.597,4.826,0.097
	c1.229-0.239,1.301-0.902,1.301-0.902S7.28,12.197,6.138,12.456z M10.577,7.757H8.862v1.581h1.91v0.475H8.293V5.428h2.381v0.475
	H8.862v1.386h1.714V7.757z M13.795,7.757h-1.714v1.581h1.91v0.475h-2.479V5.428h2.381v0.475h-1.812v1.386h1.714V7.757z"/>
</svg>
