<?xml version="1.0" encoding="utf-8"?>

<!--
 * Copyright (c) 2015, WSO2 Inc. (http://www.wso2.org) All Rights Reserved.
 *
 * WSO2 Inc. licenses this file to you under the Apache License,
 * Version 2.0 (the "License"); you may not use this file except
 * in compliance with the License.
 * You may obtain a copy of the License at
 *
 * http://www.apache.org/licenses/LICENSE-2.0
 *
 * Unless required by applicable law or agreed to in writing,
 * software distributed under the License is distributed on an
 * "AS IS" BASIS, WITHOUT WARRANTIES OR CONDITIONS OF ANY
 * KIND, either express or implied. See the License for the
 * specific language governing permissions and limitations
 * under the License.
-->

<svg version="1.1" id="key" xmlns="http://www.w3.org/2000/svg" xmlns:xlink="http://www.w3.org/1999/xlink" x="0px" y="0px"
	 viewBox="0 0 14 14" enable-background="new 0 0 14 14" xml:space="preserve">
<path d="M1.7,14c-0.6,0-1.1,0-1.7,0c0-0.6,0-1.2,0-1.8c0.1-0.1,0.1-0.1,0.2-0.2c0.2-0.1,0.7-0.3,0.9-0.3c0.1,0,0.2-0.1,0.2-0.2
	c0.1-0.3,0-0.8,0.1-0.9c0-0.1,0.2-0.2,0.3-0.2l0,0c0.2,0,0.5-0.1,0.7-0.1c0.1,0,0.1,0,0.1-0.1c0-0.2,0-0.4,0-0.5
	c0-0.2,0-0.2,0.2-0.2s0.4,0,0.6-0.1c0.2,0,0.2-0.1,0.2-0.2c0-0.2,0-0.4,0.1-0.7c0-0.1,0.1-0.2,0.2-0.2c0.1,0,0.2,0,0.3-0.1
	c0.1,0,0.3,0,0.5-0.1C5,7.9,4.8,7.5,5,7.2C5.1,7,5.5,6.7,5.7,6.5c0-0.1-0.1-0.1-0.1-0.2c-0.3-0.2-0.2-0.5,0-0.6
	C5.8,5.5,5.9,5.4,6,5.3s0.1-0.1,0.1-0.2C5.5,3,6.8,0.7,8.9,0.1C9.2,0.1,9.4,0,9.7,0c0.2,0,0.4,0,0.7,0h0.1c1.7,0.2,3,1.3,3.5,3
	c-0.1,0.2,0,0.5,0,0.7s0,0.4,0,0.7v0.1c-0.1,0.7-0.3,1.4-0.8,2c-1,1.4-2.7,1.9-4.3,1.5C8.8,8,8.8,8,8.7,8.1c-0.1,0-0.3,0.2-0.4,0.3
	c-0.2,0.2-0.4,0.2-0.7,0c0,0,0-0.1-0.1-0.2c0,0.1-0.1,0.1-0.1,0.2C5.6,10.2,3.8,12,2,13.8C1.9,13.9,1.8,13.9,1.7,14z M11.3,3.5
	c0.4,0,0.8-0.3,0.8-0.8C12,2.3,11.7,2,11.3,2s-0.8,0.3-0.8,0.8C10.5,3.2,10.8,3.5,11.3,3.5z"/>
</svg>
