<?xml version="1.0" encoding="utf-8"?>

<!--
 * Copyright (c) 2015, WSO2 Inc. (http://www.wso2.org) All Rights Reserved.
 *
 * WSO2 Inc. licenses this file to you under the Apache License,
 * Version 2.0 (the "License"); you may not use this file except
 * in compliance with the License.
 * You may obtain a copy of the License at
 *
 * http://www.apache.org/licenses/LICENSE-2.0
 *
 * Unless required by applicable law or agreed to in writing,
 * software distributed under the License is distributed on an
 * "AS IS" BASIS, WITHOUT WARRANTIES OR CONDITIONS OF ANY
 * KIND, either express or implied. See the License for the
 * specific language governing permissions and limitations
 * under the License.
-->

<svg version="1.1" id="service" xmlns="http://www.w3.org/2000/svg" xmlns:xlink="http://www.w3.org/1999/xlink" x="0px" y="0px"
	 viewBox="0 0 14.189 14" enable-background="new 0 0 14.189 14" xml:space="preserve">
<path d="M0.931,5.127C1.006,5.382,1.109,5.629,1.241,5.86L0.867,6.331C0.745,6.484,0.759,6.703,0.897,6.842l0.642,0.642
	C1.677,7.623,1.897,7.635,2.05,7.514l0.467-0.37C2.758,7.282,3.014,7.39,3.28,7.466l0.07,0.601c0.023,0.195,0.187,0.341,0.382,0.341
	h0.909c0.195,0,0.359-0.146,0.382-0.341l0.067-0.58c0.286-0.074,0.56-0.185,0.818-0.33L6.36,7.515
	c0.154,0.121,0.373,0.107,0.511-0.029l0.642-0.643c0.139-0.138,0.151-0.358,0.029-0.511L7.191,5.886
	c0.146-0.253,0.26-0.522,0.336-0.804L8.069,5.02C8.265,4.997,8.41,4.832,8.41,4.638V3.729c0-0.195-0.146-0.359-0.341-0.382
	L7.535,3.285C7.462,3.006,7.352,2.74,7.212,2.49l0.329-0.415c0.122-0.154,0.108-0.373-0.029-0.511L6.871,0.922
	C6.733,0.784,6.514,0.772,6.36,0.894l-0.404,0.32c-0.262-0.154-0.542-0.271-0.836-0.35L5.06,0.341C5.037,0.146,4.873,0,4.677,0
	H3.769C3.574,0,3.41,0.146,3.387,0.341L3.326,0.863C3.025,0.944,2.737,1.066,2.469,1.226L2.051,0.893
	C1.897,0.771,1.677,0.785,1.539,0.922L0.897,1.565C0.758,1.703,0.746,1.922,0.867,2.076l0.35,0.443
	c-0.14,0.253-0.246,0.522-0.316,0.802l-0.56,0.064C0.146,3.408,0,3.572,0,3.767v0.909c0,0.195,0.146,0.359,0.341,0.382L0.931,5.127z
	 M4.224,2.668c0.828,0,1.502,0.675,1.502,1.503S5.052,5.673,4.224,5.673c-0.828,0-1.503-0.675-1.503-1.503
	C2.722,3.342,3.396,2.668,4.224,2.668z M13.208,5.35l-0.479-0.405c-0.148-0.125-0.365-0.119-0.505,0.014l-0.265,0.248
	c-0.223-0.108-0.461-0.184-0.706-0.229l-0.074-0.365c-0.038-0.189-0.213-0.319-0.405-0.304l-0.626,0.053
	C9.955,4.379,9.804,4.536,9.798,4.729L9.786,5.101c-0.24,0.087-0.467,0.205-0.675,0.354l-0.316-0.21
	c-0.162-0.107-0.376-0.076-0.5,0.072L7.889,5.799C7.765,5.947,7.771,6.164,7.903,6.305L8.181,6.6
	C8.085,6.816,8.016,7.043,7.977,7.277l-0.396,0.08C7.392,7.395,7.261,7.57,7.276,7.762L7.33,8.387
	c0.017,0.192,0.174,0.343,0.367,0.349l0.428,0.013c0.078,0.204,0.179,0.397,0.302,0.578L8.188,9.688
	C8.081,9.85,8.112,10.064,8.26,10.189l0.479,0.405c0.147,0.125,0.366,0.118,0.505-0.013l0.314-0.294
	c0.205,0.096,0.422,0.167,0.644,0.21l0.086,0.429c0.038,0.189,0.213,0.319,0.405,0.304l0.626-0.053
	c0.191-0.017,0.343-0.174,0.349-0.367l0.013-0.42c0.228-0.08,0.445-0.19,0.645-0.326l0.345,0.228
	c0.161,0.106,0.376,0.076,0.501-0.071l0.404-0.48c0.126-0.147,0.119-0.365-0.013-0.505l-0.278-0.296
	c0.102-0.216,0.177-0.444,0.219-0.679l0.38-0.078c0.189-0.038,0.32-0.213,0.304-0.405l-0.053-0.626
	c-0.017-0.192-0.174-0.342-0.367-0.348l-0.382-0.012C13.307,6.57,13.2,6.36,13.068,6.165l0.209-0.314
	C13.386,5.691,13.357,5.475,13.208,5.35z M10.85,8.967c-0.676,0.058-1.273-0.446-1.329-1.121c-0.057-0.676,0.447-1.273,1.122-1.33
	c0.676-0.058,1.273,0.446,1.329,1.122C12.03,8.314,11.526,8.911,10.85,8.967z M3.12,10.651c-0.192,0.02-0.339,0.181-0.341,0.375
	l-0.005,0.385c-0.003,0.194,0.14,0.358,0.332,0.382l0.283,0.036c0.047,0.172,0.114,0.337,0.201,0.492l-0.182,0.225
	c-0.122,0.151-0.113,0.367,0.022,0.506l0.27,0.276c0.136,0.138,0.352,0.154,0.505,0.035l0.227-0.175
	c0.16,0.094,0.329,0.169,0.505,0.221l0.03,0.292c0.02,0.192,0.181,0.339,0.375,0.341l0.385,0.004
	c0.193,0.003,0.357-0.14,0.382-0.332l0.035-0.277c0.192-0.047,0.374-0.118,0.548-0.213l0.213,0.172
	c0.151,0.122,0.367,0.112,0.505-0.023l0.276-0.269c0.139-0.135,0.153-0.351,0.035-0.505L7.56,12.386
	c0.101-0.168,0.178-0.345,0.231-0.533l0.252-0.026c0.192-0.02,0.34-0.181,0.341-0.375l0.005-0.385
	c0.003-0.193-0.14-0.358-0.332-0.382l-0.247-0.031c-0.047-0.186-0.117-0.366-0.208-0.533l0.154-0.189
	c0.121-0.151,0.113-0.367-0.023-0.506L7.464,9.15C7.329,9.012,7.112,8.997,6.959,9.116L6.775,9.257
	C6.601,9.152,6.415,9.071,6.221,9.016L6.196,8.777c-0.02-0.191-0.181-0.339-0.374-0.34L5.437,8.432
	c-0.193-0.003-0.358,0.14-0.382,0.332L5.024,9.001C4.823,9.053,4.63,9.132,4.45,9.236L4.26,9.081
	C4.109,8.959,3.893,8.968,3.755,9.104L3.477,9.375C3.339,9.51,3.324,9.726,3.442,9.88l0.163,0.21
	c-0.094,0.167-0.169,0.345-0.218,0.533L3.12,10.651z M5.607,10.216c0.552,0.006,0.996,0.461,0.989,1.013
	c-0.006,0.553-0.461,0.996-1.014,0.99c-0.553-0.006-0.995-0.461-0.989-1.014C4.599,10.652,5.054,10.21,5.607,10.216z"/>
</svg>
