<?xml version="1.0" encoding="utf-8"?>

<!--
 * Copyright (c) 2015, WSO2 Inc. (http://www.wso2.org) All Rights Reserved.
 *
 * WSO2 Inc. licenses this file to you under the Apache License,
 * Version 2.0 (the "License"); you may not use this file except
 * in compliance with the License.
 * You may obtain a copy of the License at
 *
 * http://www.apache.org/licenses/LICENSE-2.0
 *
 * Unless required by applicable law or agreed to in writing,
 * software distributed under the License is distributed on an
 * "AS IS" BASIS, WITHOUT WARRANTIES OR CONDITIONS OF ANY
 * KIND, either express or implied. See the License for the
 * specific language governing permissions and limitations
 * under the License.
-->

<svg version="1.1" id="settings" xmlns="http://www.w3.org/2000/svg" xmlns:xlink="http://www.w3.org/1999/xlink" x="0px" y="0px"
	 viewBox="0 0 14 14" enable-background="new 0 0 14 14" xml:space="preserve">
<path d="M8.5,12.5c0.4-0.1,0.8-0.3,1.2-0.5l0.8,0.6c0.3,0.2,0.6,0.2,0.9,0l1.1-1.1c0.2-0.2,0.3-0.6,0-0.9l-0.6-0.8
	c0.2-0.4,0.4-0.8,0.5-1.3l1-0.1c0.3,0,0.6-0.3,0.6-0.6V6.3c0-0.3-0.2-0.6-0.6-0.6l-1-0.1c-0.1-0.5-0.3-0.9-0.5-1.4l0.6-0.8
	c0.2-0.3,0.2-0.6,0-0.9l-1.1-1.1c-0.2-0.2-0.6-0.3-0.9,0L9.8,2C9.4,1.8,8.9,1.6,8.5,1.5L8.4,0.6C8.3,0.2,8,0,7.7,0L6.2,0
	C5.9,0,5.6,0.2,5.6,0.6L5.5,1.5C5,1.6,4.6,1.8,4.1,2L3.5,1.4c-0.3-0.2-0.6-0.2-0.9,0L1.5,2.6c-0.2,0.2-0.2,0.6,0,0.9L2,4.1
	C1.8,4.5,1.6,5,1.4,5.5L0.6,5.6C0.2,5.6,0,5.9,0,6.2l0,1.5c0,0.3,0.2,0.6,0.6,0.6l0.9,0.1C1.6,9,1.8,9.4,2,9.9l-0.6,0.7
	c-0.2,0.3-0.2,0.6,0,0.9l1.1,1.1c0.2,0.2,0.6,0.3,0.9,0L4.2,12c0.4,0.2,0.9,0.4,1.3,0.5l0.1,0.9c0,0.3,0.3,0.6,0.6,0.6h1.5
	c0.3,0,0.6-0.2,0.6-0.6L8.5,12.5z M4.4,7c0-1.4,1.1-2.5,2.5-2.5S9.4,5.6,9.4,7S8.3,9.5,6.9,9.5C5.6,9.5,4.4,8.3,4.4,7z"/>
</svg>
