<?xml version="1.0" encoding="utf-8"?>

<!--
 * Copyright (c) 2015, WSO2 Inc. (http://www.wso2.org) All Rights Reserved.
 *
 * WSO2 Inc. licenses this file to you under the Apache License,
 * Version 2.0 (the "License"); you may not use this file except
 * in compliance with the License.
 * You may obtain a copy of the License at
 *
 * http://www.apache.org/licenses/LICENSE-2.0
 *
 * Unless required by applicable law or agreed to in writing,
 * software distributed under the License is distributed on an
 * "AS IS" BASIS, WITHOUT WARRANTIES OR CONDITIONS OF ANY
 * KIND, either express or implied. See the License for the
 * specific language governing permissions and limitations
 * under the License.
-->

<svg version="1.1" id="share" xmlns="http://www.w3.org/2000/svg" xmlns:xlink="http://www.w3.org/1999/xlink" x="0px" y="0px"
	 viewBox="0 0 14 14" enable-background="new 0 0 14 14" xml:space="preserve">
<path d="M11.6,9.2c-0.7,0-1.3,0.3-1.7,0.7L4.8,7.5c0-0.1,0-0.3,0-0.4c0-0.2,0-0.4-0.1-0.6l5-2.5c0.4,0.5,1.1,0.9,1.8,0.9
	c1.3,0,2.4-1.1,2.4-2.4C14,1.1,12.9,0,11.6,0S9.2,1.1,9.2,2.4c0,0,0,0.1,0,0.1L3.9,5.2C3.5,4.9,3,4.7,2.4,4.7C1.1,4.7,0,5.8,0,7.1
	c0,1.3,1.1,2.4,2.4,2.4c0.6,0,1.2-0.3,1.7-0.7l5.1,2.5c0,0.1,0,0.2,0,0.3c0,1.3,1.1,2.4,2.4,2.4s2.4-1.1,2.4-2.4
	C14,10.3,12.9,9.2,11.6,9.2z"/>
</svg>
