<?xml version="1.0" encoding="utf-8"?>

<!--
 * Copyright (c) 2015, WSO2 Inc. (http://www.wso2.org) All Rights Reserved.
 *
 * WSO2 Inc. licenses this file to you under the Apache License,
 * Version 2.0 (the "License"); you may not use this file except
 * in compliance with the License.
 * You may obtain a copy of the License at
 *
 * http://www.apache.org/licenses/LICENSE-2.0
 *
 * Unless required by applicable law or agreed to in writing,
 * software distributed under the License is distributed on an
 * "AS IS" BASIS, WITHOUT WARRANTIES OR CONDITIONS OF ANY
 * KIND, either express or implied. See the License for the
 * specific language governing permissions and limitations
 * under the License.
-->

<svg version="1.1" id="soap" xmlns="http://www.w3.org/2000/svg" xmlns:xlink="http://www.w3.org/1999/xlink" x="0px" y="0px"
	 viewBox="16.338 17 15.324 14" enable-background="new 16.338 17 15.324 14" xml:space="preserve">
<path d="M16.338,22.041l5.237,2.419v-1.154l-3.963-1.723v-0.021l3.963-1.731v-1.155l-5.237,2.43V22.041z M22.372,24.895h1.1
	L25.802,17h-1.099L22.372,24.895z M26.424,18.676v1.155l4.052,1.731v0.021l-4.052,1.732v1.145l5.238-2.385v-1.003L26.424,18.676z
	 M25.451,27.157h-0.014c-0.041,0.183-0.092,0.418-0.138,0.596l-0.188,0.657h0.684l-0.193-0.657
	C25.552,27.57,25.496,27.336,25.451,27.157z M28.288,27.143c-0.142,0-0.239,0.009-0.289,0.022v0.913
	c0.06,0.014,0.133,0.019,0.234,0.019c0.372,0,0.601-0.188,0.601-0.501C28.834,27.313,28.641,27.143,28.288,27.143z M22.457,27.138
	c-0.482,0-0.752,0.468-0.752,1.046c0,0.583,0.28,1.038,0.748,1.038h0.004c0.473,0,0.744-0.445,0.744-1.052
	C23.202,27.616,22.94,27.138,22.457,27.138z M31.02,25.348H16.98c-0.355,0-0.642,0.287-0.642,0.642v4.369
	c0,0.355,0.287,0.642,0.642,0.642h14.04c0.354,0,0.642-0.287,0.642-0.642v-4.369C31.662,25.635,31.375,25.348,31.02,25.348z
	 M19.391,29.778c-0.353,0-0.702-0.096-0.877-0.193l0.142-0.574c0.184,0.097,0.477,0.193,0.775,0.193c0.322,0,0.491-0.133,0.491-0.34
	c0-0.188-0.147-0.302-0.518-0.432c-0.514-0.183-0.854-0.468-0.854-0.922c0-0.528,0.445-0.928,1.17-0.928
	c0.354,0,0.606,0.069,0.79,0.156l-0.156,0.56c-0.12-0.06-0.344-0.147-0.643-0.147c-0.303,0-0.45,0.142-0.45,0.298
	c0,0.197,0.17,0.284,0.574,0.441c0.546,0.202,0.798,0.487,0.798,0.927C20.635,29.337,20.241,29.778,19.391,29.778z M22.43,29.778
	h-0.005c-0.913,0-1.455-0.693-1.455-1.575c0-0.927,0.597-1.621,1.506-1.621c0.95,0,1.469,0.712,1.469,1.565
	C23.945,29.167,23.334,29.778,22.43,29.778z M26.139,29.727L25.9,28.933h-0.89l-0.216,0.794h-0.725l0.945-3.094h0.914l0.964,3.094
	H26.139z M29.247,28.309c-0.239,0.22-0.597,0.326-1.01,0.326c-0.092,0-0.175-0.004-0.238-0.018v1.111h-0.693v-3.053
	c0.215-0.037,0.519-0.064,0.946-0.064c0.431,0,0.743,0.083,0.95,0.253c0.198,0.152,0.326,0.409,0.326,0.712
	C29.527,27.882,29.43,28.139,29.247,28.309z"/>
</svg>
