<?xml version="1.0" encoding="utf-8"?>

<!--
 * Copyright (c) 2015, WSO2 Inc. (http://www.wso2.org) All Rights Reserved.
 *
 * WSO2 Inc. licenses this file to you under the Apache License,
 * Version 2.0 (the "License"); you may not use this file except
 * in compliance with the License.
 * You may obtain a copy of the License at
 *
 * http://www.apache.org/licenses/LICENSE-2.0
 *
 * Unless required by applicable law or agreed to in writing,
 * software distributed under the License is distributed on an
 * "AS IS" BASIS, WITHOUT WARRANTIES OR CONDITIONS OF ANY
 * KIND, either express or implied. See the License for the
 * specific language governing permissions and limitations
 * under the License.
-->

<svg version="1.1" id="Layer_1" xmlns="http://www.w3.org/2000/svg" xmlns:xlink="http://www.w3.org/1999/xlink" x="0px" y="0px"
	 viewBox="0 0 14 14" enable-background="new 0 0 14 14" xml:space="preserve">
<path fill="#0E0E0E" d="M4.2,1.7v10.5c0,0.5-0.4,0.8-0.8,0.8H1c-0.5,0-0.8-0.4-0.8-0.8V1.7c0-0.5,0.4-0.8,0.8-0.8h2.3
	C3.8,0.9,4.2,1.3,4.2,1.7z M3.6,2.3L3.6,2.3C3.6,2.1,3.5,2,3.3,2H1.2C1.1,2,1,2.1,1,2.3v0c0,0.1,0.1,0.3,0.3,0.3h2.1
	C3.5,2.5,3.6,2.4,3.6,2.3z M3.6,3.5L3.6,3.5c0-0.1-0.1-0.3-0.3-0.3H1.2C1.1,3.2,1,3.3,1,3.5v0c0,0.1,0.1,0.3,0.3,0.3h2.1
	C3.5,3.7,3.6,3.6,3.6,3.5z M3.6,4.7L3.6,4.7c0-0.1-0.1-0.3-0.3-0.3H1.2C1.1,4.4,1,4.5,1,4.7v0c0,0.1,0.1,0.3,0.3,0.3h2.1
	C3.5,4.9,3.6,4.8,3.6,4.7z M3.6,5.8L3.6,5.8c0-0.1-0.1-0.3-0.3-0.3H1.2C1.1,5.6,1,5.7,1,5.8v0C1,6,1.1,6.1,1.2,6.1h2.1
	C3.5,6.1,3.6,6,3.6,5.8z M13.8,1.7v10.5c0,0.5-0.4,0.8-0.8,0.8h-2.3c-0.5,0-0.8-0.4-0.8-0.8V1.7c0-0.5,0.4-0.8,0.8-0.8H13
	C13.4,0.9,13.8,1.3,13.8,1.7z M13.1,2.3L13.1,2.3C13.1,2.1,13,2,12.9,2h-2.1c-0.1,0-0.3,0.1-0.3,0.3v0c0,0.1,0.1,0.3,0.3,0.3h2.1
	C13,2.5,13.1,2.4,13.1,2.3z M13.1,3.5L13.1,3.5c0-0.1-0.1-0.3-0.3-0.3h-2.1c-0.1,0-0.3,0.1-0.3,0.3v0c0,0.1,0.1,0.3,0.3,0.3h2.1
	C13,3.7,13.1,3.6,13.1,3.5z M13.1,4.7L13.1,4.7c0-0.1-0.1-0.3-0.3-0.3h-2.1c-0.1,0-0.3,0.1-0.3,0.3v0c0,0.1,0.1,0.3,0.3,0.3h2.1
	C13,4.9,13.1,4.8,13.1,4.7z M13.1,5.8L13.1,5.8c0-0.1-0.1-0.3-0.3-0.3h-2.1c-0.1,0-0.3,0.1-0.3,0.3v0c0,0.1,0.1,0.3,0.3,0.3h2.1
	C13,6.1,13.1,6,13.1,5.8z M9,0.8v12.3C9,13.6,8.6,14,8.1,14H5.8C5.4,14,5,13.6,5,13.2V0.8C5,0.4,5.4,0,5.8,0h2.3C8.6,0,9,0.4,9,0.8z
	 M8.3,1.4L8.3,1.4c0-0.1-0.1-0.3-0.3-0.3H5.9c-0.1,0-0.3,0.1-0.3,0.3v0c0,0.1,0.1,0.3,0.3,0.3H8C8.2,1.7,8.3,1.5,8.3,1.4z M8.3,2.6
	L8.3,2.6c0-0.1-0.1-0.3-0.3-0.3H5.9c-0.1,0-0.3,0.1-0.3,0.3v0c0,0.1,0.1,0.3,0.3,0.3H8C8.2,2.8,8.3,2.7,8.3,2.6z M8.3,3.8L8.3,3.8
	c0-0.1-0.1-0.3-0.3-0.3H5.9c-0.1,0-0.3,0.1-0.3,0.3v0C5.7,3.9,5.8,4,5.9,4H8C8.2,4,8.3,3.9,8.3,3.8z M8.3,5L8.3,5
	c0-0.1-0.1-0.3-0.3-0.3H5.9C5.8,4.7,5.7,4.8,5.7,5v0c0,0.1,0.1,0.3,0.3,0.3H8C8.2,5.2,8.3,5.1,8.3,5z M8.3,6.1L8.3,6.1
	C8.3,6,8.2,5.8,8,5.8H5.9C5.8,5.8,5.7,6,5.7,6.1v0c0,0.1,0.1,0.3,0.3,0.3H8C8.2,6.4,8.3,6.3,8.3,6.1z"/>
</svg>
