<?xml version="1.0" encoding="utf-8"?>

<!--
 * Copyright (c) 2015, WSO2 Inc. (http://www.wso2.org) All Rights Reserved.
 *
 * WSO2 Inc. licenses this file to you under the Apache License,
 * Version 2.0 (the "License"); you may not use this file except
 * in compliance with the License.
 * You may obtain a copy of the License at
 *
 * http://www.apache.org/licenses/LICENSE-2.0
 *
 * Unless required by applicable law or agreed to in writing,
 * software distributed under the License is distributed on an
 * "AS IS" BASIS, WITHOUT WARRANTIES OR CONDITIONS OF ANY
 * KIND, either express or implied. See the License for the
 * specific language governing permissions and limitations
 * under the License.
-->

<svg version="1.1" id="document" xmlns="http://www.w3.org/2000/svg" xmlns:xlink="http://www.w3.org/1999/xlink" x="0px" y="0px"
	 viewBox="0 0 14 14" enable-background="new 0 0 14 14" xml:space="preserve">
<path d="M11.6,2.9L11.6,2.9L8.6,0v0h0l0,0l0,0H2.7C2.3,0,2,0.3,2,0.7v12.6C2,13.7,2.3,14,2.7,14h8.2c0.4,0,0.7-0.3,0.7-0.7L11.6,2.9
	L11.6,2.9z M11.3,2.9H9.1c-0.3,0-0.5-0.2-0.5-0.5V0.3L11.3,2.9z M11.4,13.3c0,0.3-0.2,0.5-0.5,0.5H2.7c-0.3,0-0.5-0.2-0.5-0.5V0.7
	c0-0.3,0.2-0.5,0.5-0.5h5.7v2.2c0,0.4,0.3,0.7,0.7,0.7h2.3V13.3z M7.8,1.6h-5V1.4h5V1.6z M7.8,3.2h-5V2.9h5V3.2z M2.8,4.5h7.7v0.2
	H2.8V4.5z M2.8,6.1h7.7v0.2H2.8V6.1z M2.8,7.6h7.7v0.2H2.8V7.6z M2.8,9.2h7.7v0.2H2.8V9.2z M2.8,10.7h7.7V11H2.8V10.7z M2.8,12.3
	h7.7v0.2H2.8V12.3z"/>
</svg>
