<?xml version="1.0" encoding="utf-8"?>

<!--
 * Copyright (c) 2015, WSO2 Inc. (http://www.wso2.org) All Rights Reserved.
 *
 * WSO2 Inc. licenses this file to you under the Apache License,
 * Version 2.0 (the "License"); you may not use this file except
 * in compliance with the License.
 * You may obtain a copy of the License at
 *
 * http://www.apache.org/licenses/LICENSE-2.0
 *
 * Unless required by applicable law or agreed to in writing,
 * software distributed under the License is distributed on an
 * "AS IS" BASIS, WITHOUT WARRANTIES OR CONDITIONS OF ANY
 * KIND, either express or implied. See the License for the
 * specific language governing permissions and limitations
 * under the License.
-->

<svg version="1.1" id="javascript" xmlns="http://www.w3.org/2000/svg" xmlns:xlink="http://www.w3.org/1999/xlink" x="0px" y="0px"
	 viewBox="0.145 0 13.71 14" enable-background="new 0.145 0 13.71 14" xml:space="preserve">
<path d="M1.887,10.919H0.145V8.843h1.742V10.919z M6.491,11.153c0,0.927-0.25,1.634-0.748,2.119C5.245,13.757,4.559,14,3.685,14
	c-0.151,0-0.319-0.006-0.506-0.021c-0.186-0.014-0.372-0.035-0.557-0.066V12.69h0.08c0.107,0.024,0.225,0.047,0.353,0.069
	c0.13,0.023,0.252,0.034,0.368,0.034c0.365,0,0.664-0.045,0.9-0.136c0.236-0.09,0.412-0.232,0.529-0.426
	c0.106-0.175,0.178-0.397,0.214-0.663c0.037-0.268,0.055-0.592,0.055-0.976V3.919H3.648V2.782H6.49L6.491,11.153L6.491,11.153z
	 M6.498,1.42H4.939V0h1.559V1.42z M10.671,11.117c-0.544,0-1.052-0.073-1.526-0.22c-0.474-0.146-0.866-0.3-1.176-0.465V8.894h0.074
	C8.158,8.987,8.296,9.089,8.453,9.2c0.158,0.112,0.368,0.229,0.631,0.35c0.233,0.107,0.49,0.202,0.769,0.284
	c0.279,0.083,0.57,0.124,0.87,0.124c0.218,0,0.451-0.025,0.7-0.076c0.248-0.051,0.431-0.115,0.554-0.193
	c0.169-0.112,0.292-0.23,0.367-0.357c0.076-0.127,0.114-0.316,0.114-0.567c0-0.327-0.088-0.571-0.266-0.736
	c-0.178-0.166-0.492-0.305-0.944-0.414c-0.175-0.045-0.404-0.096-0.685-0.154c-0.282-0.057-0.541-0.121-0.78-0.19
	C9.161,7.09,8.709,6.812,8.427,6.436C8.146,6.059,8.006,5.605,8.006,5.07c0-0.734,0.276-1.331,0.831-1.792
	c0.553-0.461,1.289-0.692,2.206-0.692c0.453,0,0.907,0.055,1.363,0.167c0.458,0.112,0.841,0.252,1.152,0.422V4.64h-0.073
	c-0.35-0.276-0.739-0.495-1.169-0.654c-0.431-0.161-0.863-0.241-1.301-0.241c-0.451,0-0.833,0.095-1.144,0.284
	C9.56,4.217,9.403,4.505,9.403,4.889c0,0.34,0.093,0.592,0.278,0.762c0.183,0.166,0.481,0.305,0.889,0.412
	c0.203,0.052,0.43,0.104,0.681,0.155c0.25,0.051,0.513,0.11,0.79,0.179c0.601,0.151,1.056,0.401,1.357,0.75
	c0.305,0.348,0.457,0.825,0.457,1.427c0,0.35-0.07,0.681-0.209,0.994c-0.138,0.313-0.341,0.581-0.606,0.804
	c-0.293,0.244-0.621,0.429-0.988,0.554C11.685,11.052,11.226,11.117,10.671,11.117z"/>
</svg>
