<?xml version="1.0" encoding="utf-8"?>

<!--
 * Copyright (c) 2015, WSO2 Inc. (http://www.wso2.org) All Rights Reserved.
 *
 * WSO2 Inc. licenses this file to you under the Apache License,
 * Version 2.0 (the "License"); you may not use this file except
 * in compliance with the License.
 * You may obtain a copy of the License at
 *
 * http://www.apache.org/licenses/LICENSE-2.0
 *
 * Unless required by applicable law or agreed to in writing,
 * software distributed under the License is distributed on an
 * "AS IS" BASIS, WITHOUT WARRANTIES OR CONDITIONS OF ANY
 * KIND, either express or implied. See the License for the
 * specific language governing permissions and limitations
 * under the License.
-->

<svg version="1.1" id="service-provider" xmlns="http://www.w3.org/2000/svg" xmlns:xlink="http://www.w3.org/1999/xlink" x="0px"
	 y="0px" viewBox="0 0 14 14" enable-background="new 0 0 14 14" xml:space="preserve">
<path d="M3.982,5.835C4.021,5.97,4.075,6.1,4.145,6.222L3.949,6.47C3.885,6.549,3.891,6.664,3.963,6.738l0.338,0.339
	C4.375,7.15,4.49,7.157,4.571,7.092l0.246-0.194C4.944,6.97,5.079,7.026,5.218,7.066l0.038,0.317c0.011,0.102,0.099,0.179,0.2,0.179
	h0.48c0.102,0,0.19-0.078,0.2-0.179L6.17,7.077c0.15-0.04,0.295-0.098,0.431-0.173l0.237,0.189C6.92,7.157,7.035,7.15,7.109,7.079
	L7.448,6.74c0.072-0.075,0.079-0.19,0.016-0.271L7.279,6.234c0.077-0.133,0.138-0.275,0.176-0.423L7.74,5.777
	c0.104-0.011,0.18-0.099,0.18-0.2v-0.48c0-0.102-0.077-0.19-0.179-0.202L7.461,4.865C7.422,4.718,7.363,4.578,7.29,4.446
	l0.173-0.219c0.064-0.081,0.057-0.196-0.014-0.27L7.111,3.62C7.039,3.546,6.923,3.54,6.84,3.604L6.627,3.773
	C6.49,3.694,6.342,3.63,6.187,3.589l-0.03-0.275C6.146,3.211,6.058,3.134,5.956,3.134H5.478c-0.102,0-0.19,0.077-0.202,0.179
	L5.244,3.587C5.085,3.63,4.934,3.694,4.792,3.779l-0.22-0.173C4.491,3.542,4.375,3.549,4.302,3.62L3.963,3.958
	c-0.072,0.074-0.079,0.19-0.014,0.27L4.134,4.46C4.06,4.594,4.003,4.735,3.966,4.882L3.671,4.917
	C3.569,4.929,3.492,5.017,3.492,5.119v0.478c0,0.102,0.078,0.19,0.179,0.202L3.982,5.835z M5.716,4.54
	c0.437,0,0.792,0.355,0.792,0.792c0,0.437-0.355,0.792-0.792,0.792c-0.437,0-0.791-0.355-0.791-0.792
	C4.926,4.894,5.282,4.54,5.716,4.54z M10.45,5.953l-0.253-0.214c-0.078-0.065-0.193-0.061-0.267,0.009L9.791,5.878
	C9.672,5.821,9.549,5.78,9.419,5.757L9.38,5.566c-0.02-0.101-0.112-0.169-0.214-0.16L8.837,5.432
	c-0.101,0.01-0.18,0.092-0.185,0.193L8.646,5.821C8.52,5.867,8.399,5.931,8.29,6.009L8.125,5.898
	C8.04,5.841,7.928,5.858,7.862,5.935L7.648,6.189C7.581,6.268,7.584,6.382,7.654,6.456L7.8,6.61C7.75,6.725,7.715,6.845,7.693,6.968
	L7.485,7.011c-0.101,0.02-0.169,0.112-0.16,0.213l0.028,0.328c0.01,0.101,0.091,0.18,0.193,0.185l0.226,0.009
	C7.813,7.851,7.867,7.955,7.93,8.05L7.804,8.239c-0.057,0.085-0.04,0.199,0.038,0.264l0.253,0.214
	C8.173,8.782,8.287,8.779,8.361,8.71l0.166-0.155c0.109,0.05,0.223,0.087,0.341,0.109l0.045,0.227
	c0.02,0.101,0.112,0.169,0.213,0.16l0.328-0.028c0.101-0.01,0.18-0.091,0.185-0.193l0.007-0.221
	c0.121-0.041,0.234-0.101,0.339-0.172l0.182,0.121c0.085,0.057,0.199,0.04,0.264-0.037l0.214-0.253
	c0.067-0.078,0.062-0.193-0.009-0.267L10.49,7.845c0.054-0.114,0.094-0.234,0.116-0.358l0.2-0.041
	c0.099-0.02,0.167-0.112,0.159-0.213L10.94,6.903c-0.01-0.101-0.092-0.18-0.194-0.183l-0.2-0.007
	c-0.041-0.118-0.099-0.227-0.169-0.329l0.111-0.165C10.544,6.134,10.528,6.019,10.45,5.953z M9.208,7.858
	c-0.358,0.031-0.671-0.236-0.7-0.59c-0.03-0.356,0.234-0.671,0.59-0.701c0.356-0.03,0.671,0.236,0.7,0.592
	C9.83,7.513,9.564,7.828,9.208,7.858z M5.136,8.745C5.035,8.755,4.957,8.84,4.957,8.943L4.954,9.146
	C4.953,9.246,5.028,9.334,5.129,9.347l0.149,0.018c0.026,0.091,0.06,0.177,0.106,0.26L5.288,9.743
	C5.224,9.824,5.228,9.938,5.3,10.011l0.142,0.146c0.072,0.072,0.186,0.081,0.267,0.018l0.121-0.092
	c0.084,0.05,0.173,0.089,0.267,0.116l0.016,0.153c0.007,0.099,0.094,0.176,0.194,0.177l0.203,0.001
	c0.101,0.001,0.189-0.074,0.202-0.175l0.017-0.146c0.101-0.026,0.197-0.062,0.29-0.112L7.13,10.19
	c0.079,0.064,0.193,0.058,0.267-0.011l0.143-0.143C7.614,9.965,7.621,9.85,7.56,9.769L7.473,9.658
	C7.526,9.57,7.567,9.476,7.595,9.377l0.133-0.013C7.83,9.353,7.908,9.268,7.908,9.167l0.003-0.203
	c0.001-0.102-0.075-0.189-0.175-0.2L7.607,8.745C7.581,8.647,7.544,8.552,7.496,8.464l0.081-0.101
	c0.065-0.079,0.06-0.193-0.011-0.267L7.424,7.953C7.353,7.881,7.238,7.872,7.157,7.935L7.06,8.009
	C6.97,7.955,6.87,7.911,6.769,7.882L6.755,7.757c-0.01-0.102-0.095-0.18-0.197-0.18L6.355,7.574c-0.101-0.001-0.189,0.074-0.2,0.175
	L6.139,7.874c-0.106,0.028-0.209,0.07-0.304,0.123L5.736,7.915c-0.079-0.064-0.194-0.06-0.268,0.013L5.324,8.071
	c-0.074,0.07-0.082,0.185-0.018,0.267l0.085,0.111c-0.05,0.088-0.088,0.182-0.115,0.28L5.136,8.745z M6.446,8.517
	C6.737,8.521,6.971,8.759,6.967,9.05C6.962,9.34,6.724,9.574,6.433,9.571C6.142,9.569,5.908,9.329,5.912,9.038
	C5.915,8.747,6.155,8.512,6.446,8.517z M8.807,0L8.583,1.198c1.012,0.188,1.98,0.672,2.763,1.455
	c0.784,0.784,1.267,1.752,1.455,2.763L14,5.193c-0.233-1.245-0.828-2.437-1.792-3.401S10.053,0.232,8.807,0z M8.541,3.126
	c0.545,0.101,1.066,0.362,1.488,0.783c0.421,0.421,0.682,0.943,0.784,1.487l1.198-0.224c-0.145-0.778-0.518-1.523-1.12-2.125
	c-0.602-0.602-1.347-0.975-2.126-1.12L8.541,3.126z M5.193,14l0.224-1.198c-1.012-0.188-1.98-0.672-2.763-1.455
	C1.87,10.563,1.387,9.595,1.199,8.584L0,8.807c0.233,1.245,0.828,2.437,1.792,3.401S3.947,13.768,5.193,14z M5.459,10.874
	c-0.545-0.101-1.066-0.362-1.488-0.783C3.55,9.67,3.289,9.148,3.187,8.604L1.989,8.828c0.145,0.778,0.518,1.523,1.12,2.125
	c0.602,0.602,1.347,0.975,2.126,1.12L5.459,10.874z"/>
</svg>
