<?xml version="1.0" encoding="utf-8"?>

<!--
 * Copyright (c) 2015, WSO2 Inc. (http://www.wso2.org) All Rights Reserved.
 *
 * WSO2 Inc. licenses this file to you under the Apache License,
 * Version 2.0 (the "License"); you may not use this file except
 * in compliance with the License.
 * You may obtain a copy of the License at
 *
 * http://www.apache.org/licenses/LICENSE-2.0
 *
 * Unless required by applicable law or agreed to in writing,
 * software distributed under the License is distributed on an
 * "AS IS" BASIS, WITHOUT WARRANTIES OR CONDITIONS OF ANY
 * KIND, either express or implied. See the License for the
 * specific language governing permissions and limitations
 * under the License.
-->

<svg version="1.1" id="user" xmlns="http://www.w3.org/2000/svg" xmlns:xlink="http://www.w3.org/1999/xlink" x="0px" y="0px"
	 viewBox="16.934 17 14.133 14" enable-background="new 16.934 17 14.133 14" xml:space="preserve">
<path d="M24,24.418c1.75,0,3.169-1.661,3.169-3.709C27.169,17.869,25.75,17,24,17s-3.169,0.868-3.169,3.709
	C20.832,22.757,22.25,24.418,24,24.418z M30.997,29.876l-1.599-3.601c-0.073-0.165-0.202-0.301-0.362-0.385l-2.481-1.292
	c-0.055-0.029-0.121-0.023-0.17,0.014c-0.702,0.531-1.527,0.811-2.386,0.811c-0.859,0-1.684-0.281-2.386-0.811
	c-0.049-0.037-0.116-0.043-0.17-0.014l-2.481,1.292c-0.16,0.083-0.288,0.22-0.362,0.385l-1.599,3.601
	c-0.11,0.248-0.088,0.532,0.06,0.76C17.211,30.864,17.462,31,17.733,31h12.533c0.271,0,0.522-0.136,0.67-0.364
	C31.085,30.409,31.108,30.125,30.997,29.876z"/>
</svg>
