<?xml version="1.0" encoding="utf-8"?>

<!--
 * Copyright (c) 2015, WSO2 Inc. (http://www.wso2.org) All Rights Reserved.
 *
 * WSO2 Inc. licenses this file to you under the Apache License,
 * Version 2.0 (the "License"); you may not use this file except
 * in compliance with the License.
 * You may obtain a copy of the License at
 *
 * http://www.apache.org/licenses/LICENSE-2.0
 *
 * Unless required by applicable law or agreed to in writing,
 * software distributed under the License is distributed on an
 * "AS IS" BASIS, WITHOUT WARRANTIES OR CONDITIONS OF ANY
 * KIND, either express or implied. See the License for the
 * specific language governing permissions and limitations
 * under the License.
-->

<svg version="1.1" id="xq" xmlns="http://www.w3.org/2000/svg" xmlns:xlink="http://www.w3.org/1999/xlink" x="0px" y="0px"
	 viewBox="23.969 17 12.23 14" enable-background="new 23.969 17 12.23 14" xml:space="preserve">
<path d="M31.354,29.275l-1.071-0.465v-0.006l1.071-0.468v-0.312l-1.415,0.656v0.253l1.415,0.654
	C31.354,29.587,31.354,29.275,31.354,29.275z M32.495,27.571h-0.297l-0.629,2.133h0.297L32.495,27.571z M34.078,28.671l-1.415-0.647
	v0.312l1.094,0.468v0.006l-1.094,0.468v0.309l1.415-0.644V28.671z M31.092,23.436c-0.182,0.002-0.322,0.083-0.422,0.242
	c-0.1,0.156-0.15,0.354-0.15,0.594s0.051,0.435,0.153,0.586c0.097,0.159,0.236,0.239,0.415,0.242h0.004
	c0.184-0.002,0.325-0.083,0.422-0.242c0.096-0.151,0.144-0.35,0.144-0.597c0-0.233-0.048-0.427-0.144-0.583
	C31.417,23.519,31.276,23.439,31.092,23.436z M35.687,22.007h-0.278v-2.021l-3.112-2.983h-0.536L31.758,17v0.002h-6.277
	c-0.398,0-0.722,0.324-0.722,0.722v4.283h-0.279c-0.283,0-0.512,0.23-0.512,0.512v3.486c0,0.283,0.229,0.512,0.512,0.512h0.279v3.76
	c0,0.398,0.324,0.722,0.722,0.722h9.206c0.398,0,0.722-0.324,0.722-0.722v-3.76h0.278c0.283,0,0.512-0.229,0.512-0.512V22.52
	C36.199,22.237,35.97,22.007,35.687,22.007z M25.178,17.724c0-0.167,0.136-0.303,0.303-0.303h6.277v2.388
	c0,0.38,0.309,0.689,0.689,0.689h2.543v1.509h-9.812V17.724z M32.259,25.495l-0.158,0.433c-0.327-0.1-0.645-0.217-0.954-0.349
	c-0.055-0.021-0.109-0.033-0.164-0.036c-0.282-0.02-0.524-0.134-0.729-0.342c-0.212-0.205-0.32-0.509-0.324-0.912
	c0.002-0.38,0.109-0.69,0.322-0.93c0.207-0.24,0.493-0.362,0.858-0.366c0.371,0.005,0.654,0.128,0.849,0.37
	c0.191,0.237,0.288,0.529,0.29,0.875c-0.002,0.282-0.059,0.516-0.17,0.705c-0.11,0.19-0.247,0.323-0.413,0.399v0.015
	C31.86,25.41,32.058,25.456,32.259,25.495z M27.809,23.034h0.62l0.209,0.451c0.069,0.141,0.13,0.277,0.182,0.409h0.007
	c0.052-0.144,0.106-0.28,0.163-0.409l0.202-0.451h0.616l-0.696,1.204l0.732,1.265H29.22l-0.217-0.447
	c-0.08-0.163-0.151-0.311-0.213-0.444h-0.007c-0.047,0.132-0.11,0.28-0.187,0.444l-0.196,0.447h-0.616l0.691-1.249L27.809,23.034z
	 M34.99,30.279c0,0.167-0.136,0.303-0.303,0.303h-9.206c-0.167,0-0.303-0.136-0.303-0.303v-3.76h9.812
	C34.99,26.518,34.99,30.279,34.99,30.279z"/>
</svg>
