<?xml version="1.0" encoding="utf-8"?>

<!--
 * Copyright (c) 2015, WSO2 Inc. (http://www.wso2.org) All Rights Reserved.
 *
 * WSO2 Inc. licenses this file to you under the Apache License,
 * Version 2.0 (the "License"); you may not use this file except
 * in compliance with the License.
 * You may obtain a copy of the License at
 *
 * http://www.apache.org/licenses/LICENSE-2.0
 *
 * Unless required by applicable law or agreed to in writing,
 * software distributed under the License is distributed on an
 * "AS IS" BASIS, WITHOUT WARRANTIES OR CONDITIONS OF ANY
 * KIND, either express or implied. See the License for the
 * specific language governing permissions and limitations
 * under the License.
-->

<svg version="1.1" id="api" xmlns="http://www.w3.org/2000/svg" xmlns:xlink="http://www.w3.org/1999/xlink" x="0px" y="0px"
	 viewBox="0 0 14 14" enable-background="new 0 0 14 14" xml:space="preserve">
<path d="M0,7c0,0.394,0.32,0.713,0.713,0.713h1.152V6.287H0.713C0.32,6.287,0,6.606,0,7z M0,4.682c0,0.394,0.32,0.713,0.713,0.713
	h1.152V3.968H0.713C0.32,3.968,0,4.288,0,4.682z M14,4.68c0-0.394-0.32-0.712-0.713-0.712h-1.152v1.425h1.152
	C13.68,5.394,14,5.074,14,4.68z M3.968,13.287c0,0.394,0.32,0.713,0.713,0.713c0.394,0,0.713-0.32,0.713-0.713v-1.152H3.968
	C3.968,12.135,3.968,13.287,3.968,13.287z M0,9.318c0,0.394,0.32,0.713,0.713,0.713h1.152V8.606H0.713C0.32,8.607,0,8.925,0,9.318z
	 M6.287,13.287C6.287,13.68,6.606,14,7,14s0.713-0.32,0.713-0.713v-1.152H6.287C6.287,12.135,6.287,13.287,6.287,13.287z
	 M10.032,0.713C10.032,0.32,9.712,0,9.318,0C8.924,0,8.607,0.32,8.607,0.713v1.152h1.425V0.713z M7.713,0.713
	C7.713,0.32,7.394,0,7,0S6.287,0.32,6.287,0.713v1.152h1.427C7.713,1.865,7.713,0.713,7.713,0.713z M5.394,0.713
	C5.394,0.32,5.074,0,4.68,0C4.286,0,3.968,0.32,3.968,0.713v1.152h1.425V0.713z M13.287,8.607h-1.152v1.425h1.152
	c0.394,0,0.713-0.32,0.713-0.713C14,8.925,13.68,8.607,13.287,8.607z M10.707,2.55H3.294c-0.41,0-0.743,0.333-0.743,0.743v7.413
	c0,0.41,0.333,0.743,0.743,0.743h7.413c0.41,0,0.743-0.333,0.743-0.743V3.294C11.45,2.883,11.117,2.55,10.707,2.55z M5.674,8.402
	L5.438,7.619H4.56L4.347,8.402H3.632l0.932-3.051h0.901l0.951,3.051H5.674z M8.739,7.003C8.503,7.22,8.15,7.325,7.743,7.325
	c-0.091,0-0.172-0.005-0.236-0.018v1.095H6.824v-3.01c0.213-0.036,0.511-0.063,0.932-0.063c0.426,0,0.734,0.081,0.937,0.249
	C8.888,5.727,9.015,5.98,9.015,6.279C9.015,6.582,8.919,6.836,8.739,7.003z M10.147,8.402H9.459V5.351h0.688V8.402z M13.287,6.287
	h-1.152v1.427h1.152C13.68,7.713,14,7.394,14,7S13.68,6.287,13.287,6.287z M7.792,5.853c-0.14,0-0.235,0.009-0.285,0.023v0.901
	C7.566,6.79,7.638,6.795,7.738,6.795c0.367,0,0.593-0.186,0.593-0.493C8.331,6.021,8.141,5.853,7.792,5.853z M8.608,13.287H8.607
	C8.607,13.681,8.926,14,9.32,14s0.713-0.32,0.713-0.713v-1.152H8.608L8.608,13.287L8.608,13.287z M4.995,5.867H4.981
	C4.94,6.048,4.89,6.279,4.845,6.455L4.66,7.103h0.674l-0.19-0.647C5.094,6.274,5.04,6.044,4.995,5.867z"/>
</svg>
