<?xml version="1.0" encoding="iso-8859-1"?>

<!--
 * Copyright (c) 2015, WSO2 Inc. (http://www.wso2.org) All Rights Reserved.
 *
 * WSO2 Inc. licenses this file to you under the Apache License,
 * Version 2.0 (the "License"); you may not use this file except
 * in compliance with the License.
 * You may obtain a copy of the License at
 *
 * http://www.apache.org/licenses/LICENSE-2.0
 *
 * Unless required by applicable law or agreed to in writing,
 * software distributed under the License is distributed on an
 * "AS IS" BASIS, WITHOUT WARRANTIES OR CONDITIONS OF ANY
 * KIND, either express or implied. See the License for the
 * specific language governing permissions and limitations
 * under the License.
-->

<!DOCTYPE svg PUBLIC "-//W3C//DTD SVG 1.1//EN" "http://www.w3.org/Graphics/SVG/1.1/DTD/svg11.dtd">
<svg version="1.1" xmlns="http://www.w3.org/2000/svg" xmlns:xlink="http://www.w3.org/1999/xlink" x="0px" y="0px" width="48px"
	 height="48px" viewBox="0 0 48 48" style="enable-background:new 0 0 48 48;" xml:space="preserve">
<g id="API">
	<path d="M0,24c0,1.351,1.096,2.445,2.446,2.445h3.949v-4.891H2.446C1.096,21.555,0,22.649,0,24z"/>
	<path d="M0,16.051c0,1.351,1.096,2.446,2.446,2.446h3.949v-4.892H2.446C1.096,13.605,0,14.701,0,16.051z"/>
	<path d="M48,16.046c0-1.35-1.096-2.441-2.445-2.441h-3.949v4.887h3.949C46.904,18.492,48,17.396,48,16.046z"
		/>
	<path d="M13.605,45.555c0,1.35,1.096,2.445,2.446,2.445c1.351,0,2.446-1.096,2.446-2.445v-3.949h-4.892
		V45.555z"/>
	<path d="M0,31.949c0,1.351,1.096,2.446,2.446,2.446h3.949v-4.887H2.446C1.096,29.509,0,30.599,0,31.949z"/>
	<path d="M21.554,45.555C21.554,46.904,22.649,48,24,48s2.446-1.096,2.446-2.445v-3.949h-4.892V45.555z"/>
	<path d="M34.396,2.446C34.396,1.096,33.3,0,31.949,0s-2.44,1.096-2.44,2.446v3.949h4.887V2.446z"/>
	<path d="M26.446,2.446C26.446,1.096,25.351,0,24,0s-2.446,1.096-2.446,2.446v3.949h4.892V2.446z"/>
	<path d="M18.492,2.446c0-1.35-1.096-2.446-2.446-2.446s-2.441,1.096-2.441,2.446v3.949h4.887V2.446z"/>
	<path d="M45.555,29.509h-3.949v4.887h3.949c1.35,0,2.445-1.096,2.445-2.446S46.904,29.509,45.555,29.509z"/>
	<path d="M36.708,8.744H11.292c-1.406,0-2.547,1.141-2.547,2.547v25.417c0,1.406,1.141,2.548,2.547,2.548
		h25.417c1.406,0,2.548-1.142,2.548-2.548V11.292C39.256,9.885,38.114,8.744,36.708,8.744z M19.452,28.806l-0.807-2.685h-3.011
		l-0.729,2.685h-2.452l3.197-10.459h3.088l3.259,10.459H19.452z M29.961,24.011c-0.808,0.745-2.018,1.102-3.414,1.102
		c-0.311,0-0.59-0.016-0.808-0.063v3.756h-2.343v-10.32c0.729-0.124,1.753-0.217,3.196-0.217c1.459,0,2.515,0.279,3.213,0.853
		c0.667,0.512,1.102,1.381,1.102,2.406C30.907,22.567,30.581,23.437,29.961,24.011z M34.789,28.806h-2.358V18.346h2.358V28.806z"/>
	<path d="M45.555,21.555h-3.949v4.891h3.949C46.904,26.445,48,25.351,48,24S46.904,21.555,45.555,21.555z"/>
	<path d="M26.717,20.069c-0.48,0-0.807,0.031-0.978,0.078v3.088c0.202,0.046,0.45,0.062,0.792,0.062
		c1.257,0,2.032-0.636,2.032-1.691C28.563,20.643,27.912,20.069,26.717,20.069z"/>
	<path d="M29.514,45.555h-0.005c0,1.35,1.095,2.445,2.445,2.445s2.446-1.096,2.446-2.445v-3.949h-4.887
		V45.555z"/>
	<path d="M17.124,20.115h-0.046c-0.14,0.621-0.311,1.413-0.465,2.018l-0.636,2.219h2.312l-0.652-2.219
		C17.465,21.512,17.279,20.721,17.124,20.115z"/>
</g>
</svg>
