<?xml version="1.0" encoding="iso-8859-1"?>

<!--
 * Copyright (c) 2015, WSO2 Inc. (http://www.wso2.org) All Rights Reserved.
 *
 * WSO2 Inc. licenses this file to you under the Apache License,
 * Version 2.0 (the "License"); you may not use this file except
 * in compliance with the License.
 * You may obtain a copy of the License at
 *
 * http://www.apache.org/licenses/LICENSE-2.0
 *
 * Unless required by applicable law or agreed to in writing,
 * software distributed under the License is distributed on an
 * "AS IS" BASIS, WITHOUT WARRANTIES OR CONDITIONS OF ANY
 * KIND, either express or implied. See the License for the
 * specific language governing permissions and limitations
 * under the License.
-->

<!DOCTYPE svg PUBLIC "-//W3C//DTD SVG 1.1//EN" "http://www.w3.org/Graphics/SVG/1.1/DTD/svg11.dtd">
<svg version="1.1" xmlns="http://www.w3.org/2000/svg" xmlns:xlink="http://www.w3.org/1999/xlink" x="0px" y="0px" width="48px"
	 height="48px" viewBox="0 0 48 48" style="enable-background:new 0 0 48 48;" xml:space="preserve">
<g id="Blank_Document">
	<path id="Blank" d="M31.583,0.018h-1.836L29.738,0.01v0.008H8.225c-1.363,0-2.473,1.109-2.473,2.473v43.027
		c0,1.363,1.109,2.473,2.473,2.473h31.551c1.363,0,2.473-1.109,2.473-2.473V10.243L31.583,0.018z M39.775,46.556H8.225
		c-0.573,0-1.038-0.466-1.038-1.038V2.49c0-0.571,0.465-1.038,1.038-1.038h21.514v8.184c0,1.302,1.06,2.361,2.361,2.361h8.714
		v33.521C40.813,46.09,40.348,46.556,39.775,46.556z"/>
</g>
</svg>
