<?xml version="1.0" encoding="iso-8859-1"?>

<!--
 * Copyright (c) 2015, WSO2 Inc. (http://www.wso2.org) All Rights Reserved.
 *
 * WSO2 Inc. licenses this file to you under the Apache License,
 * Version 2.0 (the "License"); you may not use this file except
 * in compliance with the License.
 * You may obtain a copy of the License at
 *
 * http://www.apache.org/licenses/LICENSE-2.0
 *
 * Unless required by applicable law or agreed to in writing,
 * software distributed under the License is distributed on an
 * "AS IS" BASIS, WITHOUT WARRANTIES OR CONDITIONS OF ANY
 * KIND, either express or implied. See the License for the
 * specific language governing permissions and limitations
 * under the License.
-->

<!DOCTYPE svg PUBLIC "-//W3C//DTD SVG 1.1//EN" "http://www.w3.org/Graphics/SVG/1.1/DTD/svg11.dtd">
<svg version="1.1" xmlns="http://www.w3.org/2000/svg" xmlns:xlink="http://www.w3.org/1999/xlink" x="0px" y="0px" width="48px"
	 height="48px" viewBox="0 0 48 48" style="enable-background:new 0 0 48 48;" xml:space="preserve">
<g id="BPEL">
	<path d="M40.514,30.243v-4.045h0.011v-2.852H25.546v-5.591c4.241-0.684,7.484-4.352,7.484-8.787
		c0-4.921-3.988-8.911-8.911-8.911c-4.921,0-8.911,3.99-8.911,8.911c0,4.435,3.243,8.103,7.485,8.787v5.591H7.497v1.426H7.486v5.443
		h0.195C3.345,30.815,0,34.529,0,39.031c0,4.921,3.99,8.911,8.912,8.911s8.911-3.99,8.911-8.911c0-4.502-3.343-8.216-7.682-8.815
		h0.196v-4.018h27.326v4.045c-4.24,0.686-7.485,4.353-7.485,8.787c0,4.921,3.99,8.911,8.911,8.911c4.924,0,8.911-3.99,8.911-8.911
		C48,34.595,44.758,30.927,40.514,30.243z M15.81,39.061c0,3.83-3.104,6.936-6.936,6.936c-3.83,0-6.936-3.105-6.936-6.936
		s3.106-6.937,6.936-6.937C12.707,32.124,15.81,35.23,15.81,39.061z M17.189,8.936c0-3.83,3.106-6.936,6.936-6.936
		c3.832,0,6.936,3.106,6.936,6.936c0,3.831-3.104,6.937-6.936,6.937C20.295,15.873,17.189,12.767,17.189,8.936z M39.166,45.996
		c-3.83,0-6.936-3.105-6.936-6.936s3.105-6.937,6.936-6.937c3.832,0,6.936,3.106,6.936,6.937S42.998,45.996,39.166,45.996z"/>
</g>
</svg>
