<?xml version="1.0" encoding="iso-8859-1"?>

<!--
 * Copyright (c) 2015, WSO2 Inc. (http://www.wso2.org) All Rights Reserved.
 *
 * WSO2 Inc. licenses this file to you under the Apache License,
 * Version 2.0 (the "License"); you may not use this file except
 * in compliance with the License.
 * You may obtain a copy of the License at
 *
 * http://www.apache.org/licenses/LICENSE-2.0
 *
 * Unless required by applicable law or agreed to in writing,
 * software distributed under the License is distributed on an
 * "AS IS" BASIS, WITHOUT WARRANTIES OR CONDITIONS OF ANY
 * KIND, either express or implied. See the License for the
 * specific language governing permissions and limitations
 * under the License.
-->

<!DOCTYPE svg PUBLIC "-//W3C//DTD SVG 1.1//EN" "http://www.w3.org/Graphics/SVG/1.1/DTD/svg11.dtd">
<svg version="1.1" xmlns="http://www.w3.org/2000/svg" xmlns:xlink="http://www.w3.org/1999/xlink" x="0px" y="0px" width="48px"
	 height="48px" viewBox="0 0 48 48" style="enable-background:new 0 0 48 48;" xml:space="preserve">
<g id="DSS">
	<g>
		<path style="fill:#060507;" d="M23.705,24.261c-8.301,0-15.257-2.438-17.156-5.726c-0.334,0.579-0.529,1.18-0.529,1.804v5.381
			c0,4.154,7.92,7.529,17.685,7.529c9.771,0,17.695-3.375,17.695-7.529v-5.381c0-0.624-0.198-1.225-0.536-1.804
			C38.967,21.821,32.016,24.261,23.705,24.261z"/>
		<path style="fill:#060507;" d="M23.705,35.376c-8.301,0-15.257-2.441-17.156-5.725c-0.334,0.576-0.529,1.178-0.529,1.801v5.385
			c0,4.156,7.92,7.527,17.685,7.527c9.771,0,17.695-3.367,17.695-7.527v-5.385c0-0.623-0.198-1.225-0.536-1.797
			C38.967,32.935,32.016,35.376,23.705,35.376z"/>
		<path style="fill:#060507;" d="M40.916,7.774c-0.347,3.046-7.905,5.483-17.211,5.483c-9.301,0-16.859-2.437-17.205-5.482
			C6.197,8.329,6.02,8.906,6.02,9.5v5.38c0,4.159,7.92,7.528,17.685,7.528c9.771,0,17.695-3.369,17.695-7.528V9.5
			C41.4,8.906,41.22,8.329,40.916,7.774z"/>
		<path style="fill:#060507;" d="M23.705,11.55c9.523,0,17.239-2.548,17.239-5.697c0-3.146-7.716-5.696-17.239-5.696
			C14.188,0.158,6.468,2.708,6.468,5.854C6.468,9.001,14.188,11.55,23.705,11.55z"/>
	</g>
	<g>
		<path d="M43.924,30.925l-1.312-1.107c-0.404-0.342-1-0.326-1.382,0.037l-0.726,0.678
			c-0.61-0.295-1.26-0.504-1.931-0.623l-0.204-1c-0.104-0.516-0.583-0.873-1.108-0.832l-1.71,0.145
			c-0.525,0.047-0.938,0.475-0.953,1.004l-0.033,1.016c-0.657,0.238-1.278,0.563-1.847,0.971l-0.864-0.574
			c-0.443-0.291-1.028-0.209-1.368,0.195l-1.109,1.32c-0.341,0.402-0.324,0.998,0.038,1.381l0.758,0.809
			c-0.263,0.59-0.45,1.213-0.558,1.85l-1.082,0.219c-0.518,0.105-0.875,0.584-0.834,1.109l0.146,1.709
			c0.045,0.525,0.476,0.938,1.003,0.955l1.17,0.035c0.213,0.561,0.491,1.088,0.828,1.582l-0.653,0.988
			c-0.291,0.441-0.208,1.027,0.197,1.369l1.31,1.107c0.403,0.342,1.001,0.324,1.384-0.035l0.856-0.805
			c0.563,0.262,1.152,0.457,1.762,0.574l0.236,1.174c0.104,0.516,0.582,0.873,1.107,0.832l1.711-0.145
			c0.523-0.047,0.937-0.475,0.956-1.004l0.034-1.15c0.624-0.219,1.217-0.518,1.763-0.891l0.943,0.625
			c0.44,0.291,1.029,0.209,1.37-0.193l1.106-1.313c0.344-0.404,0.325-0.998-0.036-1.383l-0.761-0.809
			c0.279-0.59,0.482-1.215,0.6-1.857l1.041-0.211c0.515-0.104,0.873-0.582,0.83-1.107l-0.145-1.713
			c-0.045-0.523-0.476-0.936-1.004-0.951l-1.043-0.035c-0.218-0.607-0.51-1.182-0.872-1.715l0.57-0.857
			C44.412,31.858,44.329,31.265,43.924,30.925z M37.474,40.815c-1.847,0.16-3.48-1.219-3.634-3.066
			c-0.157-1.85,1.222-3.48,3.069-3.637s3.48,1.221,3.634,3.07C40.702,39.032,39.324,40.663,37.474,40.815z"/>
		<path style="fill:#FFFFFF;" d="M36.964,47.385c-0.675,0-1.261-0.478-1.393-1.136l-0.188-0.932
			c-0.462-0.105-0.92-0.255-1.367-0.446l-0.675,0.634c-0.506,0.477-1.354,0.497-1.883,0.048l-1.31-1.107
			c-0.548-0.462-0.663-1.263-0.269-1.861l0.518-0.782c-0.248-0.39-0.461-0.796-0.636-1.215l-0.925-0.027
			c-0.717-0.024-1.304-0.582-1.365-1.298l-0.146-1.709c-0.056-0.719,0.432-1.366,1.133-1.509l0.835-0.169
			c0.101-0.498,0.247-0.985,0.439-1.454l-0.591-0.63c-0.494-0.522-0.517-1.331-0.051-1.88l1.108-1.319
			c0.448-0.532,1.275-0.65,1.861-0.268l0.653,0.435c0.463-0.31,0.961-0.57,1.485-0.779l0.024-0.767
			c0.021-0.713,0.578-1.301,1.295-1.364l1.825-0.149c0.674,0,1.261,0.478,1.394,1.136l0.154,0.754
			c0.532,0.112,1.049,0.279,1.542,0.497l0.541-0.506c0.5-0.475,1.346-0.499,1.88-0.049l1.312,1.107
			c0.556,0.466,0.666,1.271,0.254,1.871l-0.431,0.646c0.271,0.427,0.5,0.878,0.686,1.348l0.793,0.026
			c0.716,0.021,1.304,0.578,1.365,1.294l0.145,1.714c0.059,0.718-0.428,1.365-1.13,1.506l-0.796,0.162
			c-0.109,0.5-0.268,0.991-0.474,1.465l0.589,0.626c0.493,0.525,0.514,1.335,0.049,1.883L44.11,44.49
			c-0.27,0.318-0.663,0.501-1.081,0.501l0,0c-0.278,0-0.55-0.082-0.783-0.236l-0.736-0.488c-0.439,0.28-0.907,0.517-1.396,0.706
			l-0.026,0.896c-0.026,0.717-0.584,1.303-1.298,1.366L36.964,47.385z M33.868,43.979l0.23,0.107
			c0.545,0.253,1.107,0.437,1.675,0.546l0.247,0.048l0.285,1.42c0.063,0.31,0.339,0.534,0.658,0.534v0.375l0.053-0.377l1.709-0.145
			c0.336-0.029,0.601-0.307,0.612-0.644l0.042-1.405l0.243-0.085c0.595-0.209,1.158-0.494,1.675-0.847l0.209-0.143l1.153,0.765
			c0.275,0.18,0.667,0.124,0.877-0.123l1.105-1.313c0.22-0.258,0.209-0.637-0.022-0.884l-0.936-0.995l0.109-0.23
			c0.268-0.565,0.459-1.159,0.569-1.765l0.046-0.25l1.29-0.261c0.33-0.066,0.559-0.372,0.53-0.71l-0.145-1.712
			c-0.028-0.336-0.305-0.598-0.641-0.607l-1.299-0.044l-0.086-0.239c-0.207-0.577-0.486-1.125-0.83-1.631l-0.142-0.209l0.71-1.067
			c0.195-0.284,0.145-0.66-0.115-0.878l-1.313-1.108c-0.249-0.211-0.646-0.202-0.881,0.022l-0.916,0.855l-0.231-0.111
			c-0.577-0.279-1.194-0.479-1.833-0.592l-0.251-0.045l-0.255-1.249c-0.063-0.311-0.34-0.535-0.659-0.535l-1.761,0.146
			c-0.337,0.029-0.6,0.306-0.609,0.641l-0.042,1.271l-0.238,0.087c-0.631,0.229-1.222,0.539-1.756,0.923l-0.21,0.151l-1.08-0.718
			c-0.272-0.18-0.664-0.127-0.874,0.124l-1.109,1.32c-0.219,0.259-0.208,0.637,0.023,0.882l0.929,0.991l-0.101,0.228
			c-0.25,0.561-0.428,1.152-0.53,1.76l-0.043,0.254l-1.335,0.27c-0.331,0.067-0.561,0.374-0.534,0.713l0.146,1.706
			c0.028,0.338,0.305,0.602,0.642,0.612l1.419,0.043l0.089,0.234c0.198,0.522,0.464,1.028,0.787,1.504l0.143,0.208l-0.793,1.198
			c-0.186,0.281-0.131,0.658,0.127,0.875l1.31,1.108c0.248,0.211,0.647,0.199,0.885-0.022L33.868,43.979z M37.182,41.203
			c-1.924,0-3.557-1.504-3.716-3.423c-0.084-0.993,0.225-1.962,0.87-2.727c0.646-0.764,1.548-1.231,2.542-1.315
			c2.055-0.171,3.871,1.387,4.039,3.413c0.085,0.993-0.223,1.962-0.868,2.726c-0.646,0.765-1.549,1.23-2.544,1.313
			C37.397,41.198,37.289,41.203,37.182,41.203z M37.195,34.476c-0.085,0-0.169,0.003-0.255,0.011
			c-0.794,0.066-1.516,0.44-2.031,1.052c-0.517,0.61-0.764,1.385-0.695,2.179c0.134,1.621,1.584,2.867,3.228,2.725
			c0.797-0.065,1.519-0.438,2.034-1.048s0.762-1.385,0.693-2.179C40.042,35.678,38.735,34.476,37.195,34.476z"/>
		<path d="M31.264,37.706l-0.827-0.697c-0.254-0.215-0.629-0.205-0.871,0.023l-0.456,0.428
			c-0.386-0.188-0.796-0.318-1.218-0.395l-0.128-0.629c-0.065-0.326-0.368-0.551-0.698-0.525l-1.078,0.092
			c-0.332,0.029-0.592,0.299-0.601,0.633l-0.021,0.641c-0.414,0.148-0.805,0.354-1.164,0.611l-0.544-0.361
			c-0.278-0.184-0.648-0.133-0.862,0.121l-0.699,0.834c-0.214,0.254-0.204,0.629,0.025,0.869l0.477,0.51
			c-0.165,0.373-0.284,0.764-0.351,1.166l-0.682,0.139c-0.326,0.066-0.551,0.367-0.525,0.697l0.092,1.078
			c0.028,0.332,0.299,0.59,0.632,0.602l0.738,0.023c0.134,0.352,0.309,0.684,0.521,0.996l-0.412,0.621
			c-0.183,0.279-0.131,0.65,0.125,0.865l0.825,0.697c0.254,0.215,0.632,0.203,0.872-0.023l0.54-0.506
			c0.354,0.166,0.727,0.287,1.109,0.361l0.149,0.74c0.066,0.324,0.368,0.549,0.698,0.525l1.078-0.092
			c0.33-0.029,0.591-0.299,0.603-0.633l0.021-0.725c0.394-0.139,0.767-0.326,1.111-0.561l0.595,0.393
			c0.277,0.184,0.648,0.133,0.863-0.123l0.697-0.826c0.217-0.254,0.205-0.629-0.022-0.871l-0.48-0.51
			c0.177-0.371,0.305-0.766,0.378-1.17l0.655-0.135c0.325-0.064,0.551-0.365,0.524-0.697l-0.091-1.078
			c-0.028-0.332-0.3-0.59-0.633-0.6l-0.657-0.023c-0.137-0.383-0.32-0.744-0.551-1.08l0.36-0.539
			C31.571,38.294,31.519,37.921,31.264,37.706z M27.198,43.94c-1.164,0.1-2.193-0.77-2.29-1.934
			c-0.099-1.164,0.771-2.193,1.935-2.291c1.164-0.1,2.193,0.768,2.29,1.934C29.233,42.815,28.364,43.843,27.198,43.94z"/>
		<path style="fill:#FFFFFF;" d="M26.882,48.22c-0.492,0-0.921-0.348-1.019-0.827l-0.102-0.502c-0.243-0.06-0.481-0.138-0.714-0.232
			l-0.36,0.337c-0.367,0.346-0.983,0.364-1.371,0.036l-0.825-0.697c-0.398-0.334-0.483-0.918-0.197-1.356l0.278-0.419
			c-0.124-0.203-0.233-0.412-0.328-0.626l-0.495-0.016c-0.523-0.019-0.949-0.425-0.994-0.944l-0.092-1.078
			c-0.041-0.522,0.313-0.993,0.824-1.097l0.436-0.089c0.057-0.261,0.135-0.518,0.232-0.769l-0.312-0.334
			c-0.359-0.376-0.376-0.965-0.038-1.366l0.698-0.834c0.327-0.387,0.931-0.474,1.356-0.193l0.335,0.224
			c0.254-0.164,0.522-0.305,0.8-0.42l0.013-0.394c0.014-0.52,0.419-0.947,0.942-0.994l1.079-0.092
			c0.559-0.015,1.001,0.345,1.099,0.825l0.078,0.386c0.285,0.066,0.562,0.155,0.826,0.267l0.272-0.256
			c0.367-0.346,0.983-0.364,1.37-0.036l0.827,0.696c0.403,0.341,0.483,0.928,0.185,1.365l-0.221,0.331
			c0.139,0.227,0.26,0.465,0.362,0.711l0.41,0.015c0.521,0.016,0.948,0.421,0.993,0.942l0.091,1.079
			c0.041,0.524-0.313,0.995-0.825,1.097l-0.412,0.084c-0.062,0.265-0.146,0.524-0.25,0.777l0.309,0.328
			c0.36,0.383,0.376,0.973,0.035,1.371l-0.696,0.825c-0.194,0.231-0.481,0.365-0.786,0.365l0,0c-0.203,0-0.4-0.06-0.57-0.172
			l-0.391-0.258c-0.235,0.145-0.483,0.27-0.741,0.375l-0.014,0.474c-0.019,0.522-0.425,0.949-0.944,0.995L26.882,48.22z
			 M24.901,45.769l0.23,0.107c0.325,0.152,0.669,0.265,1.021,0.333l0.247,0.048l0.198,0.986c0.027,0.131,0.146,0.227,0.284,0.227
			v0.375l0.021-0.376l1.072-0.092c0.143-0.013,0.255-0.129,0.26-0.271l0.029-0.98l0.242-0.085c0.365-0.129,0.71-0.303,1.025-0.518
			l0.208-0.141l0.805,0.531c0.116,0.077,0.28,0.053,0.369-0.052l0.698-0.827c0.093-0.108,0.088-0.269-0.01-0.372l-0.656-0.696
			l0.11-0.231c0.164-0.344,0.28-0.705,0.348-1.075l0.045-0.25l0.904-0.186c0.141-0.028,0.237-0.157,0.226-0.301l-0.091-1.076
			c-0.012-0.142-0.128-0.252-0.27-0.256l-0.914-0.033l-0.086-0.239c-0.126-0.354-0.296-0.688-0.507-0.994l-0.144-0.209l0.502-0.75
			c0.083-0.122,0.062-0.28-0.047-0.372l-0.828-0.697c-0.105-0.088-0.271-0.084-0.371,0.009l-0.646,0.605l-0.232-0.113
			c-0.349-0.169-0.726-0.291-1.12-0.362l-0.25-0.045l-0.179-0.878c-0.026-0.133-0.145-0.228-0.28-0.228l-1.097,0.093
			c-0.143,0.013-0.254,0.128-0.258,0.269l-0.03,0.897l-0.239,0.086c-0.381,0.137-0.742,0.326-1.072,0.563l-0.21,0.151l-0.76-0.505
			c-0.115-0.078-0.281-0.054-0.368,0.05l-0.698,0.834c-0.092,0.109-0.088,0.268,0.009,0.369l0.648,0.693l-0.101,0.227
			c-0.153,0.348-0.263,0.71-0.324,1.076l-0.042,0.255l-0.934,0.189c-0.14,0.029-0.237,0.158-0.226,0.301l0.091,1.075
			c0.012,0.143,0.129,0.254,0.271,0.259l0.987,0.031l0.089,0.233c0.121,0.317,0.282,0.627,0.481,0.919l0.141,0.209l-0.551,0.83
			c-0.078,0.119-0.055,0.279,0.054,0.371l0.826,0.698c0.104,0.089,0.274,0.082,0.373-0.01L24.901,45.769z M27.017,44.323
			c-1.285,0-2.375-1.004-2.482-2.285c-0.056-0.662,0.15-1.309,0.581-1.818c0.431-0.511,1.033-0.822,1.696-0.878
			c1.369-0.111,2.583,0.925,2.695,2.276c0.057,0.662-0.148,1.308-0.578,1.817c-0.431,0.511-1.034,0.823-1.699,0.879
			C27.158,44.32,27.087,44.323,27.017,44.323z M27.024,40.083c-0.049,0-0.1,0.002-0.149,0.007c-0.464,0.038-0.885,0.257-1.187,0.613
			c-0.302,0.357-0.446,0.809-0.406,1.272c0.078,0.945,0.94,1.688,1.884,1.591c0.466-0.039,0.888-0.257,1.189-0.614
			c0.3-0.356,0.443-0.808,0.403-1.271C28.685,40.785,27.923,40.083,27.024,40.083z"/>
	</g>
</g>
</svg>
