<?xml version="1.0" encoding="utf-8"?>

<!--
 * Copyright (c) 2015, WSO2 Inc. (http://www.wso2.org) All Rights Reserved.
 *
 * WSO2 Inc. licenses this file to you under the Apache License,
 * Version 2.0 (the "License"); you may not use this file except
 * in compliance with the License.
 * You may obtain a copy of the License at
 *
 * http://www.apache.org/licenses/LICENSE-2.0
 *
 * Unless required by applicable law or agreed to in writing,
 * software distributed under the License is distributed on an
 * "AS IS" BASIS, WITHOUT WARRANTIES OR CONDITIONS OF ANY
 * KIND, either express or implied. See the License for the
 * specific language governing permissions and limitations
 * under the License.
-->

<svg version="1.1" id="dss" xmlns="http://www.w3.org/2000/svg" xmlns:xlink="http://www.w3.org/1999/xlink" x="0px" y="0px"
	 viewBox="2.163 0 11.837 14" enable-background="new 2.163 0 11.837 14" xml:space="preserve">
<path fill="#060507" d="M8.688,9.616c-0.01-0.133,0.028-0.269,0.12-0.378l0.323-0.384c0.166-0.197,0.472-0.24,0.687-0.099
	l0.131,0.087c0.104-0.065,0.213-0.122,0.325-0.171l0.005-0.153c0.008-0.263,0.213-0.48,0.477-0.504l0.542-0.044
	c0.249,0,0.465,0.176,0.514,0.419l0.03,0.15c0.004,0.001,0.008,0.003,0.013,0.004c0.396-0.31,0.626-0.664,0.626-1.042v-1.57
	c0-0.182-0.057-0.357-0.157-0.526c-0.553,0.958-2.581,1.67-5.004,1.67c-2.421,0-4.45-0.711-5.004-1.67
	C2.219,5.576,2.163,5.751,2.163,5.933v1.57c0,1.211,2.31,2.196,5.158,2.196C7.796,9.698,8.252,9.667,8.688,9.616z M8.641,10.421
	c0.015-0.005,0.03-0.011,0.046-0.014l0.172-0.035c0.013-0.056,0.033-0.109,0.05-0.164c-0.167,0.023-0.339,0.041-0.513,0.056
	C8.495,10.285,8.581,10.342,8.641,10.421z M6.826,12.922l-0.077-0.002c-0.208-0.007-0.378-0.169-0.395-0.376l-0.027-0.314
	c-0.017-0.208,0.125-0.395,0.328-0.436l0.059-0.012c0.009-0.035,0.02-0.071,0.032-0.105L6.7,11.627
	c-0.143-0.15-0.15-0.384-0.015-0.544l0.203-0.243c0.13-0.155,0.371-0.189,0.54-0.077l0.039,0.026
	c0.041-0.023,0.082-0.045,0.124-0.065l0.001-0.046c0.006-0.189,0.144-0.342,0.326-0.382c-0.197,0.01-0.394,0.022-0.598,0.022
	c-2.421,0-4.45-0.711-5.004-1.67C2.22,8.816,2.163,8.992,2.163,9.174v1.571c0,1.141,2.049,2.075,4.665,2.181
	C6.827,12.924,6.826,12.923,6.826,12.922z M12.341,2.268c-0.101,0.888-2.305,1.599-5.02,1.599c-2.713,0-4.917-0.711-5.018-1.599
	c-0.088,0.162-0.14,0.33-0.14,0.503V4.34c0,1.213,2.31,2.196,5.158,2.196c2.85,0,5.161-0.983,5.161-2.196V2.771
	C12.482,2.598,12.43,2.429,12.341,2.268z M7.321,3.369c2.778,0,5.028-0.743,5.028-1.662c0-0.918-2.25-1.661-5.028-1.661
	c-2.776,0-5.027,0.744-5.027,1.662C2.294,2.625,4.545,3.369,7.321,3.369z M8.727,10.623l0.001,0.006
	c0.042,0.012,0.083,0.025,0.123,0.04l0.029-0.028c0.035-0.033,0.076-0.057,0.119-0.075l-0.272,0.055
	C8.728,10.622,8.728,10.622,8.727,10.623z M13.957,10.458c-0.013-0.153-0.139-0.274-0.293-0.277l-0.304-0.01
	c-0.064-0.177-0.149-0.345-0.254-0.5l0.166-0.25c0.089-0.129,0.065-0.301-0.054-0.401l-0.383-0.323
	c-0.117-0.1-0.292-0.095-0.403,0.011L12.22,8.906c-0.178-0.086-0.368-0.147-0.564-0.182l-0.059-0.292
	c-0.03-0.151-0.17-0.255-0.323-0.243l-0.499,0.043c-0.153,0.014-0.274,0.139-0.278,0.293l-0.01,0.297
	c-0.191,0.069-0.372,0.164-0.539,0.283L9.697,8.938C9.569,8.853,9.398,8.877,9.298,8.995L8.975,9.38
	C8.876,9.497,8.881,9.671,8.986,9.783l0.221,0.236c-0.076,0.171-0.13,0.352-0.162,0.537c0.129-0.037,0.276-0.017,0.381,0.072
	l0.241,0.203C9.828,10.967,9.86,11.2,9.74,11.375l-0.025,0.038c0.017,0.032,0.034,0.064,0.049,0.097l0.05,0.002
	c0.208,0.007,0.378,0.168,0.395,0.376l0.027,0.314c0.017,0.209-0.124,0.396-0.328,0.436l-0.052,0.01
	c-0.01,0.037-0.022,0.073-0.035,0.109l0.043,0.045c0.12,0.128,0.138,0.31,0.063,0.461c0.047-0.011,0.092-0.033,0.13-0.069
	l0.249-0.235c0.164,0.077,0.336,0.133,0.514,0.167l0.068,0.342c0.03,0.151,0.17,0.255,0.323,0.243l0.499-0.043
	c0.153-0.014,0.274-0.139,0.279-0.293L12,13.04c0.182-0.064,0.355-0.151,0.514-0.26l0.275,0.182c0.128,0.085,0.3,0.061,0.4-0.056
	l0.322-0.383c0.101-0.118,0.095-0.291-0.01-0.403l-0.223-0.236c0.081-0.172,0.14-0.355,0.175-0.541l0.304-0.062
	c0.15-0.03,0.255-0.169,0.242-0.323L13.957,10.458z M11.338,11.904c-0.539,0.047-1.015-0.356-1.06-0.894
	c-0.045-0.54,0.357-1.015,0.895-1.061c0.539-0.045,1.015,0.356,1.06,0.895C12.279,11.384,11.877,11.86,11.338,11.904z M9.526,10.998
	l-0.241-0.203c-0.074-0.063-0.183-0.059-0.254,0.007l-0.133,0.125c-0.112-0.055-0.232-0.092-0.355-0.116l-0.038-0.183
	c-0.018-0.095-0.107-0.161-0.203-0.153l-0.314,0.027c-0.097,0.008-0.173,0.087-0.176,0.185l-0.006,0.187
	c-0.121,0.043-0.235,0.103-0.339,0.178l-0.159-0.105c-0.081-0.054-0.189-0.039-0.251,0.035l-0.204,0.243
	c-0.062,0.074-0.06,0.183,0.007,0.253l0.139,0.149c-0.048,0.109-0.083,0.223-0.102,0.34l-0.199,0.041
	c-0.095,0.019-0.161,0.107-0.153,0.203l0.027,0.314c0.008,0.097,0.087,0.172,0.184,0.176l0.215,0.006
	c0.039,0.103,0.09,0.2,0.152,0.29l-0.12,0.181c-0.053,0.081-0.038,0.189,0.036,0.252l0.241,0.203
	c0.074,0.063,0.184,0.059,0.254-0.006l0.158-0.148c0.103,0.048,0.212,0.084,0.323,0.105l0.043,0.216
	c0.019,0.095,0.107,0.16,0.203,0.153l0.314-0.027c0.096-0.008,0.173-0.087,0.176-0.185l0.006-0.212
	c0.115-0.041,0.224-0.095,0.324-0.164l0.174,0.115c0.081,0.054,0.189,0.039,0.252-0.036l0.203-0.241
	c0.063-0.074,0.06-0.183-0.006-0.254l-0.14-0.149c0.052-0.108,0.089-0.224,0.11-0.341l0.191-0.04
	c0.095-0.018,0.161-0.106,0.153-0.203l-0.027-0.314c-0.008-0.097-0.087-0.172-0.185-0.175l-0.191-0.006
	c-0.04-0.112-0.093-0.217-0.161-0.315l0.104-0.157C9.615,11.169,9.601,11.06,9.526,10.998z M8.34,12.816
	c-0.339,0.029-0.64-0.225-0.668-0.564c-0.029-0.34,0.225-0.639,0.564-0.668c0.34-0.029,0.64,0.224,0.668,0.564
	C8.933,12.488,8.68,12.788,8.34,12.816z"/>
</svg>
