<?xml version="1.0" encoding="iso-8859-1"?>

<!--
 * Copyright (c) 2015, WSO2 Inc. (http://www.wso2.org) All Rights Reserved.
 *
 * WSO2 Inc. licenses this file to you under the Apache License,
 * Version 2.0 (the "License"); you may not use this file except
 * in compliance with the License.
 * You may obtain a copy of the License at
 *
 * http://www.apache.org/licenses/LICENSE-2.0
 *
 * Unless required by applicable law or agreed to in writing,
 * software distributed under the License is distributed on an
 * "AS IS" BASIS, WITHOUT WARRANTIES OR CONDITIONS OF ANY
 * KIND, either express or implied. See the License for the
 * specific language governing permissions and limitations
 * under the License.
-->

<!DOCTYPE svg PUBLIC "-//W3C//DTD SVG 1.1//EN" "http://www.w3.org/Graphics/SVG/1.1/DTD/svg11.dtd">
<svg version="1.1" xmlns="http://www.w3.org/2000/svg" xmlns:xlink="http://www.w3.org/1999/xlink" x="0px" y="0px" width="48px"
	 height="48px" viewBox="0 0 48 48" style="enable-background:new 0 0 48 48;" xml:space="preserve">
<g id="Endpoint">
	<path d="M6.994,12.252l-2.353,2.352c-0.308,0.31-0.4,0.79-0.234,1.194c0.167,0.403,0.562,0.684,0.999,0.684
		h9.924c0.596,0,1.085-0.516,1.085-1.113V5.443c0-0.438-0.267-0.831-0.671-0.999c-0.402-0.167-0.868-0.074-1.178,0.234l-2.353,2.353
		L5.981,0.799c-1.016-1.016-2.662-1.016-3.679,0L0.762,2.341C0.273,2.828,0,3.49,0,4.179c0,0.689,0.273,1.352,0.762,1.84
		L6.994,12.252z"/>
	<path d="M15.331,31.589H5.406c-0.438,0-0.832,0.243-0.999,0.648c-0.166,0.402-0.073,0.858,0.233,1.168
		l2.354,2.348l-6.233,6.231C0.273,42.472,0,43.132,0,43.821c0,0.688,0.273,1.35,0.761,1.839l1.543,1.542
		c1.017,1.015,2.663,1.015,3.678,0l6.232-6.232l2.352,2.353c0.312,0.309,0.777,0.4,1.181,0.233c0.403-0.166,0.67-0.56,0.67-0.996
		v-9.926C16.416,32.035,15.928,31.589,15.331,31.589z"/>
	<path d="M41.003,35.749l2.353-2.353c0.308-0.31,0.399-0.757,0.233-1.159
		c-0.166-0.404-0.56-0.648-0.998-0.648h-9.924c-0.595,0-1.085,0.448-1.085,1.045v9.926c0,0.437,0.267,0.83,0.671,0.998
		c0.403,0.166,0.871,0.074,1.178-0.235l2.354-2.353l6.232,6.232c1.015,1.017,2.661,1.017,3.677,0l1.544-1.542
		C47.727,45.171,48,44.51,48,43.821c0-0.689-0.273-1.352-0.763-1.838L41.003,35.749z"/>
	<path d="M32.667,16.48h9.924c0.438,0,0.832-0.28,0.998-0.685c0.166-0.403,0.074-0.876-0.233-1.186
		l-2.353-2.356l6.232-6.235c0.487-0.487,0.763-1.15,0.763-1.84s-0.275-1.352-0.763-1.838l-1.544-1.543
		c-1.015-1.016-2.662-1.016-3.676,0L35.784,7.03l-2.351-2.353c-0.31-0.309-0.777-0.401-1.181-0.234
		c-0.404,0.167-0.671,0.562-0.671,0.998v9.925C31.582,15.963,32.07,16.48,32.667,16.48z"/>
	<path d="M23.999,16.276c-4.266,0-7.724,3.458-7.724,7.724s3.458,7.724,7.724,7.724s7.723-3.458,7.723-7.724
		S28.265,16.276,23.999,16.276z M23.999,29.514c-3.045,0-5.514-2.469-5.514-5.514s2.468-5.514,5.514-5.514
		c3.045,0,5.513,2.469,5.513,5.514S27.044,29.514,23.999,29.514z"/>
</g>
</svg>
