<?xml version="1.0" encoding="utf-8"?>

<!--
 * Copyright (c) 2015, WSO2 Inc. (http://www.wso2.org) All Rights Reserved.
 *
 * WSO2 Inc. licenses this file to you under the Apache License,
 * Version 2.0 (the "License"); you may not use this file except
 * in compliance with the License.
 * You may obtain a copy of the License at
 *
 * http://www.apache.org/licenses/LICENSE-2.0
 *
 * Unless required by applicable law or agreed to in writing,
 * software distributed under the License is distributed on an
 * "AS IS" BASIS, WITHOUT WARRANTIES OR CONDITIONS OF ANY
 * KIND, either express or implied. See the License for the
 * specific language governing permissions and limitations
 * under the License.
-->

<svg version="1.1" id="endpoint" xmlns="http://www.w3.org/2000/svg" xmlns:xlink="http://www.w3.org/1999/xlink" x="0px" y="0px"
	 viewBox="0 0 14 14" enable-background="new 0 0 14 14" xml:space="preserve">
<path d="M2.04,3.574L1.354,4.26c-0.09,0.09-0.117,0.23-0.068,0.348c0.049,0.118,0.164,0.2,0.291,0.2h2.895
	c0.174,0,0.316-0.15,0.316-0.325V1.588c0-0.128-0.078-0.242-0.196-0.291C4.475,1.247,4.339,1.275,4.248,1.364L3.562,2.051
	L1.744,0.233c-0.296-0.296-0.776-0.296-1.073,0l-0.449,0.45C0.08,0.825,0,1.018,0,1.219s0.08,0.394,0.222,0.537L2.04,3.574z
	 M4.472,9.213H1.577c-0.128,0-0.243,0.071-0.291,0.189C1.237,9.52,1.264,9.653,1.353,9.743l0.687,0.685l-1.818,1.817
	C0.08,12.388,0,12.58,0,12.781c0,0.201,0.08,0.394,0.222,0.536l0.45,0.45c0.297,0.296,0.777,0.296,1.073,0l1.818-1.818l0.686,0.686
	c0.091,0.09,0.227,0.117,0.344,0.068c0.118-0.048,0.195-0.163,0.195-0.29V9.518C4.788,9.344,4.646,9.213,4.472,9.213z
	 M11.959,10.427l0.686-0.686c0.09-0.09,0.116-0.221,0.068-0.338c-0.048-0.118-0.163-0.189-0.291-0.189H9.528
	c-0.174,0-0.316,0.131-0.316,0.305v2.895c0,0.127,0.078,0.242,0.196,0.291c0.118,0.048,0.254,0.022,0.344-0.069l0.687-0.686
	l1.818,1.818c0.296,0.297,0.776,0.297,1.072,0l0.45-0.45C13.92,13.175,14,12.982,14,12.781s-0.08-0.394-0.223-0.536L11.959,10.427z
	 M9.528,4.807h2.894c0.128,0,0.243-0.082,0.291-0.2c0.048-0.118,0.022-0.255-0.068-0.346l-0.686-0.687l1.818-1.819
	c0.142-0.142,0.223-0.335,0.223-0.537s-0.08-0.394-0.223-0.536l-0.45-0.45c-0.296-0.296-0.776-0.296-1.072,0L10.437,2.05
	L9.751,1.364c-0.09-0.09-0.227-0.117-0.344-0.068C9.289,1.345,9.211,1.46,9.211,1.587v2.895C9.211,4.656,9.354,4.807,9.528,4.807z
	 M7,4.747C5.755,4.747,4.747,5.756,4.747,7S5.755,9.253,7,9.253S9.252,8.244,9.252,7S8.244,4.747,7,4.747z M7,8.608
	c-0.888,0-1.608-0.72-1.608-1.608S6.111,5.392,7,5.392c0.888,0,1.608,0.72,1.608,1.608S7.888,8.608,7,8.608z"/>
</svg>
