<?xml version="1.0" encoding="iso-8859-1"?>

<!--
 * Copyright (c) 2015, WSO2 Inc. (http://www.wso2.org) All Rights Reserved.
 *
 * WSO2 Inc. licenses this file to you under the Apache License,
 * Version 2.0 (the "License"); you may not use this file except
 * in compliance with the License.
 * You may obtain a copy of the License at
 *
 * http://www.apache.org/licenses/LICENSE-2.0
 *
 * Unless required by applicable law or agreed to in writing,
 * software distributed under the License is distributed on an
 * "AS IS" BASIS, WITHOUT WARRANTIES OR CONDITIONS OF ANY
 * KIND, either express or implied. See the License for the
 * specific language governing permissions and limitations
 * under the License.
-->

<!DOCTYPE svg PUBLIC "-//W3C//DTD SVG 1.1//EN" "http://www.w3.org/Graphics/SVG/1.1/DTD/svg11.dtd">
<svg version="1.1" xmlns="http://www.w3.org/2000/svg" xmlns:xlink="http://www.w3.org/1999/xlink" x="0px" y="0px" width="48px"
	 height="48px" viewBox="0 0 48 48" style="enable-background:new 0 0 48 48;" xml:space="preserve">
<g id="Gadget">
	<path d="M46.055,19.107l-3.047-0.357c-0.42-1.591-1.047-3.11-1.844-4.536l1.875-2.371
		c0.697-0.878,0.619-2.128-0.162-2.92l-3.658-3.658c-0.789-0.789-2.043-0.861-2.92-0.164l-2.303,1.823
		c-1.495-0.877-3.094-1.546-4.77-1.998l-0.348-2.979C28.749,0.833,27.81,0,26.697,0h-5.187c-1.112,0-2.051,0.833-2.182,1.946
		l-0.348,2.979c-1.719,0.461-3.361,1.158-4.893,2.068l-2.388-1.894c-0.877-0.697-2.13-0.618-2.921,0.164L5.115,8.932
		c-0.792,0.791-0.861,2.042-0.167,2.919l1.998,2.528c-0.799,1.443-1.406,2.98-1.806,4.579l-3.199,0.366
		c-1.11,0.129-1.945,1.068-1.945,2.181v5.187c0,1.112,0.835,2.051,1.945,2.182l3.373,0.391c0.426,1.459,1.016,2.866,1.765,4.188
		l-2.131,2.686c-0.694,0.878-0.616,2.127,0.167,2.919l3.665,3.667c0.792,0.79,2.044,0.862,2.921,0.167l2.667-2.11
		c1.373,0.789,2.832,1.406,4.352,1.84l0.4,3.431c0.131,1.114,1.07,1.95,2.181,1.95h5.188c1.112,0,2.052-0.836,2.18-1.95l0.384-3.311
		c1.635-0.425,3.196-1.057,4.666-1.886l2.58,2.046c0.877,0.692,2.131,0.613,2.92-0.166l3.666-3.669
		c0.793-0.789,0.861-2.041,0.166-2.918l-2.006-2.546c0.834-1.445,1.486-2.98,1.918-4.59l3.092-0.355
		c1.117-0.131,1.949-1.069,1.949-2.181v-5.188C48.004,20.176,47.172,19.236,46.055,19.107z M24,39.855
		c-8.756,0-15.855-7.099-15.855-15.855c0-8.756,7.099-15.855,15.855-15.855c8.757,0,15.855,7.099,15.855,15.855
		C39.855,32.757,32.757,39.855,24,39.855z"/>
	<g>
		<path style="fill:#040305;" d="M14.075,31.143c-0.768,0.769-0.768,2.013,0,2.781c0.384,0.384,0.888,0.575,1.391,0.575
			c0.504,0,1.007-0.191,1.391-0.575l6.458-6.459l-2.782-2.779L14.075,31.143z"/>
		<polygon style="fill:#040305;" points="30.215,19.174 33.027,17.72 34.5,14.874 33.127,13.501 30.282,14.975 28.825,17.785 
			25.404,21.209 26.791,22.599 		"/>
		<path style="fill:#040305;" d="M30.831,26.639l-0.266-0.026c-0.479,0-0.935,0.099-1.359,0.256l-8.073-8.074
			c0.157-0.425,0.256-0.879,0.256-1.359l-0.026-0.265c-0.139-2.046-1.825-3.668-3.907-3.668c-0.606,0-1.173,0.148-1.686,0.393
			l2.613,2.613c0.138,0.138,0.232,0.3,0.295,0.472c0.171,0.464,0.079,1.007-0.295,1.382c-0.255,0.256-0.591,0.384-0.927,0.384
			c-0.155,0-0.308-0.034-0.455-0.089c-0.172-0.065-0.334-0.157-0.472-0.296l-2.613-2.612c-0.245,0.513-0.394,1.08-0.394,1.686
			c0,2.082,1.622,3.768,3.669,3.907l0.265,0.026c0.48,0,0.935-0.098,1.359-0.254l8.072,8.073c-0.154,0.424-0.253,0.88-0.253,1.359
			l0.027,0.265c0.137,2.048,1.824,3.669,3.906,3.669c0.606,0,1.175-0.146,1.687-0.394l-2.613-2.613
			c-0.137-0.136-0.232-0.3-0.298-0.471c-0.172-0.464-0.078-1.008,0.298-1.383c0.253-0.256,0.591-0.385,0.927-0.385
			c0.155,0,0.307,0.033,0.457,0.089c0.171,0.064,0.335,0.157,0.471,0.296l2.612,2.613c0.246-0.515,0.394-1.081,0.394-1.687
			C34.5,28.464,32.878,26.777,30.831,26.639z"/>
	</g>
</g>
</svg>
