<?xml version="1.0" encoding="utf-8"?>

<!--
 * Copyright (c) 2015, WSO2 Inc. (http://www.wso2.org) All Rights Reserved.
 *
 * WSO2 Inc. licenses this file to you under the Apache License,
 * Version 2.0 (the "License"); you may not use this file except
 * in compliance with the License.
 * You may obtain a copy of the License at
 *
 * http://www.apache.org/licenses/LICENSE-2.0
 *
 * Unless required by applicable law or agreed to in writing,
 * software distributed under the License is distributed on an
 * "AS IS" BASIS, WITHOUT WARRANTIES OR CONDITIONS OF ANY
 * KIND, either express or implied. See the License for the
 * specific language governing permissions and limitations
 * under the License.
-->

<svg version="1.1" id="jaggery" xmlns="http://www.w3.org/2000/svg" xmlns:xlink="http://www.w3.org/1999/xlink" x="0px" y="0px"
	 viewBox="-0.801 0 15.602 14" enable-background="new -0.801 0 15.602 14" xml:space="preserve">
<path d="M0.411,9.727h-1.211V8.282h1.211V9.727z M3.613,9.888c0,0.646-0.173,1.137-0.519,1.476
	c-0.347,0.337-0.824,0.507-1.432,0.507c-0.106,0-0.223-0.006-0.353-0.016c-0.13-0.01-0.26-0.025-0.388-0.045v-0.852h0.056
	c0.074,0.017,0.156,0.033,0.245,0.048c0.09,0.015,0.175,0.022,0.256,0.022c0.254,0,0.462-0.032,0.626-0.093
	c0.164-0.063,0.287-0.162,0.368-0.297c0.074-0.122,0.125-0.276,0.15-0.462c0.026-0.185,0.038-0.411,0.038-0.679V4.856H1.637V4.064
	h1.977L3.613,9.888L3.613,9.888z M3.618,3.117H2.533V2.129h1.085V3.117z M8.155,9.123C8.077,9.18,7.973,9.261,7.842,9.364
	C7.712,9.467,7.586,9.549,7.465,9.61C7.296,9.697,7.133,9.766,6.976,9.813C6.819,9.86,6.599,9.884,6.314,9.884
	c-0.233,0-0.454-0.044-0.663-0.132c-0.21-0.088-0.394-0.211-0.553-0.371C4.946,9.226,4.825,9.034,4.733,8.806
	C4.642,8.579,4.597,8.337,4.597,8.084c0-0.392,0.082-0.726,0.248-1.001C5.01,6.807,5.272,6.588,5.631,6.426
	C5.948,6.282,6.323,6.18,6.756,6.125C7.189,6.069,7.655,6.027,8.155,6V5.818c0-0.224-0.035-0.403-0.102-0.539
	C7.985,5.142,7.891,5.036,7.77,4.962C7.648,4.884,7.499,4.833,7.323,4.807C7.148,4.782,6.967,4.768,6.781,4.768
	c-0.219,0-0.478,0.034-0.776,0.099C5.708,4.934,5.411,5.029,5.114,5.154H5.058V4.186c0.175-0.05,0.427-0.107,0.755-0.167
	c0.328-0.061,0.652-0.091,0.973-0.091c0.389,0,0.716,0.03,0.983,0.091c0.266,0.061,0.507,0.171,0.719,0.329
	c0.207,0.155,0.36,0.356,0.462,0.603c0.101,0.246,0.153,0.548,0.153,0.901v3.873H8.155L8.155,9.123
	C8.155,9.123,8.155,9.123,8.155,9.123z M8.155,8.333V6.762c-0.227,0.02-0.514,0.048-0.86,0.083c-0.346,0.036-0.626,0.085-0.838,0.15
	c-0.254,0.077-0.463,0.196-0.63,0.357C5.662,7.513,5.579,7.736,5.579,8.024c0,0.323,0.092,0.568,0.274,0.735
	c0.182,0.165,0.45,0.249,0.801,0.249c0.3,0,0.572-0.065,0.816-0.196C7.713,8.681,7.941,8.522,8.155,8.333z M10.645,10.633
	c0.063,0.027,0.157,0.064,0.283,0.109c0.124,0.046,0.268,0.088,0.425,0.129c0.176,0.044,0.34,0.08,0.488,0.107
	c0.148,0.027,0.31,0.041,0.485,0.041c0.294,0,0.544-0.039,0.749-0.117c0.205-0.077,0.364-0.185,0.479-0.323
	c0.108-0.139,0.184-0.299,0.227-0.482c0.045-0.182,0.067-0.39,0.067-0.623V8.977c-0.258,0.223-0.51,0.388-0.755,0.494
	c-0.247,0.107-0.557,0.159-0.928,0.159c-0.645,0-1.16-0.239-1.54-0.719c-0.382-0.48-0.573-1.169-0.573-2.068
	c0-0.47,0.065-0.887,0.198-1.25c0.13-0.363,0.308-0.671,0.533-0.925c0.211-0.243,0.463-0.43,0.753-0.562
	c0.292-0.133,0.593-0.198,0.903-0.198c0.294,0,0.549,0.034,0.762,0.103c0.216,0.07,0.432,0.169,0.647,0.297l0.056-0.244h0.897v5.018
	c0,0.96-0.211,1.664-0.63,2.114s-1.059,0.674-1.922,0.674c-0.277,0-0.56-0.022-0.847-0.066c-0.29-0.044-0.56-0.103-0.809-0.177
	v-0.994H10.645z M13.847,8.19V5.084c-0.236-0.115-0.456-0.197-0.656-0.246c-0.202-0.048-0.402-0.073-0.6-0.073
	c-0.483,0-0.865,0.177-1.142,0.532c-0.277,0.355-0.416,0.864-0.416,1.526c0,0.628,0.106,1.107,0.317,1.434
	c0.211,0.328,0.553,0.492,1.027,0.492c0.247,0,0.501-0.049,0.762-0.147C13.402,8.504,13.639,8.367,13.847,8.19z"/>
</svg>
