<?xml version="1.0" encoding="iso-8859-1"?>

<!--
 * Copyright (c) 2015, WSO2 Inc. (http://www.wso2.org) All Rights Reserved.
 *
 * WSO2 Inc. licenses this file to you under the Apache License,
 * Version 2.0 (the "License"); you may not use this file except
 * in compliance with the License.
 * You may obtain a copy of the License at
 *
 * http://www.apache.org/licenses/LICENSE-2.0
 *
 * Unless required by applicable law or agreed to in writing,
 * software distributed under the License is distributed on an
 * "AS IS" BASIS, WITHOUT WARRANTIES OR CONDITIONS OF ANY
 * KIND, either express or implied. See the License for the
 * specific language governing permissions and limitations
 * under the License.
-->

<!DOCTYPE svg PUBLIC "-//W3C//DTD SVG 1.1//EN" "http://www.w3.org/Graphics/SVG/1.1/DTD/svg11.dtd">
<svg version="1.1" xmlns="http://www.w3.org/2000/svg" xmlns:xlink="http://www.w3.org/1999/xlink" x="0px" y="0px" width="48px"
	 height="48px" viewBox="0 0 48 48" style="enable-background:new 0 0 48 48;" xml:space="preserve">
<g id="Jaggery">
	<path d="M3.727,32.389H0v-4.443h3.727V32.389z"/>
	<path d="M13.581,32.887c0,1.988-0.532,3.499-1.597,4.54c-1.068,1.037-2.535,1.559-4.405,1.559c-0.325,0-0.685-0.017-1.085-0.048
		c-0.401-0.031-0.799-0.076-1.193-0.139v-2.621h0.173c0.228,0.053,0.48,0.101,0.754,0.149c0.276,0.045,0.539,0.068,0.788,0.068
		c0.781,0,1.421-0.097,1.926-0.286c0.505-0.194,0.882-0.498,1.131-0.913c0.228-0.374,0.384-0.848,0.46-1.421
		c0.08-0.57,0.117-1.266,0.117-2.089V17.403H7.5v-2.435h6.082V32.887z M13.595,12.055h-3.337v-3.04h3.337V12.055z"/>
	<path d="M27.554,30.531c-0.242,0.177-0.561,0.426-0.962,0.744c-0.4,0.314-0.788,0.567-1.161,0.754
		c-0.519,0.27-1.021,0.48-1.504,0.626c-0.484,0.145-1.162,0.218-2.037,0.218c-0.716,0-1.397-0.135-2.04-0.405
		c-0.646-0.272-1.213-0.649-1.701-1.141c-0.467-0.478-0.84-1.068-1.124-1.771c-0.28-0.698-0.418-1.441-0.418-2.22
		c0-1.207,0.252-2.233,0.764-3.081c0.508-0.847,1.314-1.521,2.417-2.019c0.975-0.446,2.13-0.758,3.461-0.927
		c1.331-0.173,2.766-0.301,4.305-0.384v-0.561c0-0.688-0.107-1.241-0.315-1.659c-0.207-0.422-0.497-0.747-0.871-0.976
		c-0.373-0.238-0.833-0.397-1.373-0.477c-0.54-0.076-1.096-0.118-1.67-0.118c-0.674,0-1.47,0.104-2.386,0.305
		c-0.913,0.204-1.829,0.498-2.742,0.882h-0.173v-2.978c0.539-0.155,1.313-0.328,2.323-0.515c1.01-0.188,2.005-0.28,2.994-0.28
		c1.196,0,2.203,0.093,3.025,0.28c0.819,0.187,1.56,0.525,2.213,1.013c0.638,0.478,1.108,1.096,1.42,1.856
		c0.311,0.758,0.47,1.685,0.47,2.773v11.915h-2.916V30.531z M27.554,28.101v-4.833c-0.699,0.062-1.58,0.148-2.646,0.256
		c-1.065,0.11-1.926,0.263-2.579,0.46c-0.782,0.238-1.425,0.604-1.937,1.099c-0.508,0.495-0.764,1.183-0.764,2.068
		c0,0.995,0.284,1.749,0.844,2.261c0.56,0.509,1.383,0.765,2.465,0.765c0.923,0,1.76-0.201,2.51-0.602
		C26.194,29.173,26.896,28.682,27.554,28.101z"/>
	<path d="M35.214,35.179c0.193,0.083,0.483,0.197,0.871,0.336c0.38,0.142,0.823,0.272,1.307,0.397
		c0.54,0.135,1.045,0.245,1.501,0.328s0.954,0.125,1.493,0.125c0.906,0,1.674-0.121,2.303-0.36c0.63-0.238,1.121-0.57,1.474-0.995
		c0.332-0.429,0.566-0.92,0.698-1.483c0.139-0.561,0.207-1.2,0.207-1.916v-1.528c-0.795,0.685-1.569,1.193-2.323,1.519
		c-0.761,0.328-1.715,0.49-2.855,0.49c-1.985,0-3.568-0.736-4.737-2.213c-1.176-1.477-1.764-3.596-1.764-6.361
		c0-1.445,0.201-2.729,0.608-3.846c0.401-1.116,0.948-2.063,1.64-2.845c0.649-0.747,1.424-1.324,2.316-1.729
		c0.898-0.408,1.825-0.608,2.779-0.608c0.906,0,1.688,0.104,2.345,0.318c0.664,0.214,1.328,0.519,1.991,0.913l0.173-0.751H48v15.438
		c0,2.953-0.65,5.121-1.937,6.504s-3.257,2.074-5.912,2.074c-0.851,0-1.723-0.068-2.607-0.204c-0.892-0.135-1.722-0.317-2.489-0.546
		v-3.057H35.214z M45.067,27.662v-9.557c-0.726-0.354-1.403-0.605-2.019-0.758c-0.623-0.148-1.238-0.225-1.847-0.225
		c-1.486,0-2.662,0.546-3.513,1.636c-0.851,1.093-1.279,2.658-1.279,4.695c0,1.933,0.325,3.405,0.975,4.412
		c0.65,1.009,1.701,1.514,3.16,1.514c0.761,0,1.542-0.151,2.345-0.452C43.698,28.627,44.425,28.205,45.067,27.662z"/>
</g>
</svg>
