<?xml version="1.0" encoding="iso-8859-1"?>

<!--
 * Copyright (c) 2015, WSO2 Inc. (http://www.wso2.org) All Rights Reserved.
 *
 * WSO2 Inc. licenses this file to you under the Apache License,
 * Version 2.0 (the "License"); you may not use this file except
 * in compliance with the License.
 * You may obtain a copy of the License at
 *
 * http://www.apache.org/licenses/LICENSE-2.0
 *
 * Unless required by applicable law or agreed to in writing,
 * software distributed under the License is distributed on an
 * "AS IS" BASIS, WITHOUT WARRANTIES OR CONDITIONS OF ANY
 * KIND, either express or implied. See the License for the
 * specific language governing permissions and limitations
 * under the License.
-->

<!DOCTYPE svg PUBLIC "-//W3C//DTD SVG 1.1//EN" "http://www.w3.org/Graphics/SVG/1.1/DTD/svg11.dtd">
<svg version="1.1" xmlns="http://www.w3.org/2000/svg" xmlns:xlink="http://www.w3.org/1999/xlink" x="0px" y="0px" width="48px"
	 height="48px" viewBox="0 0 48 48" style="enable-background:new 0 0 48 48;" xml:space="preserve">
<g id="Java">
	<path style="fill:#040305;" d="M23.002,25.773c0,0-2.676-5.156-2.577-8.923c0.072-2.692,6.143-5.354,8.526-9.218
		C31.33,3.766,28.654,0,28.654,0s0.595,2.777-0.991,5.648c-1.586,2.875-7.44,4.563-9.716,9.519
		C15.671,20.124,23.002,25.773,23.002,25.773z"/>
	<path style="fill:#040305;" d="M33.017,10.11c0,0-9.119,3.471-9.119,7.435c0,3.967,2.476,5.254,2.875,6.542
		c0.396,1.292-0.694,3.471-0.694,3.471s3.568-2.478,2.971-5.354c-0.596-2.875-3.37-3.769-1.781-6.641
		C28.329,13.637,33.017,10.11,33.017,10.11z"/>
	<path style="fill:#040305;" d="M22.013,31.012c8.427-0.301,11.5-2.96,11.5-2.96c-5.45,1.485-19.926,1.389-20.026,0.299
		c-0.097-1.09,4.459-1.983,4.459-1.983s-7.135,0-7.731,1.783C9.621,29.935,13.592,31.307,22.013,31.012z"/>
	<path style="fill:#040305;" d="M34.206,35.189c0,0,8.248-1.76,7.432-6.239c-0.988-5.455-6.74-2.382-6.74-2.382s4.068,0,4.463,2.477
		C39.757,31.523,34.206,35.189,34.206,35.189z"/>
	<path style="fill:#040305;" d="M30.142,32.813c0,0-2.078,0.546-5.158,0.892c-4.128,0.464-9.119,0.097-9.517-0.597
		c-0.392-0.695,0.694-1.09,0.694-1.09c-4.958,1.19-2.246,3.269,3.565,3.668c4.981,0.34,12.395-1.486,12.395-1.486L30.142,32.813z"/>
	<path style="fill:#040305;" d="M17.355,37.143c0,0-2.249,0.063-2.381,1.254c-0.13,1.183,1.384,2.246,6.938,2.575
		c5.552,0.329,9.453-1.519,9.453-1.519l-2.511-1.523c0,0-1.588,0.333-4.033,0.662c-2.448,0.332-7.466-0.266-7.663-0.725
		C16.956,37.404,17.355,37.143,17.355,37.143z"/>
	<path style="fill:#040305;" d="M38.962,42.496c0.859-0.928-0.266-1.654-0.266-1.654s0.396,0.463-0.127,0.99
		c-0.53,0.527-5.356,1.848-13.09,2.246c-7.73,0.397-16.125-0.728-16.39-1.719c-0.257-0.99,4.299-1.781,4.299-1.781
		c-0.527,0.066-6.872,0.197-7.074,1.918C6.117,44.212,9.089,45.6,20.989,45.6C32.884,45.598,38.107,43.416,38.962,42.496z"/>
	<path style="fill:#040305;" d="M34.337,46.393c-5.221,1.055-21.078,0.391-21.078,0.391s10.306,2.447,22.07,0.398
		c5.623-0.98,5.95-3.701,5.95-3.701S39.56,45.332,34.337,46.393z"/>
</g>
</svg>
