<?xml version="1.0" encoding="iso-8859-1"?>

<!--
 * Copyright (c) 2015, WSO2 Inc. (http://www.wso2.org) All Rights Reserved.
 *
 * WSO2 Inc. licenses this file to you under the Apache License,
 * Version 2.0 (the "License"); you may not use this file except
 * in compliance with the License.
 * You may obtain a copy of the License at
 *
 * http://www.apache.org/licenses/LICENSE-2.0
 *
 * Unless required by applicable law or agreed to in writing,
 * software distributed under the License is distributed on an
 * "AS IS" BASIS, WITHOUT WARRANTIES OR CONDITIONS OF ANY
 * KIND, either express or implied. See the License for the
 * specific language governing permissions and limitations
 * under the License.
-->

<!DOCTYPE svg PUBLIC "-//W3C//DTD SVG 1.1//EN" "http://www.w3.org/Graphics/SVG/1.1/DTD/svg11.dtd">
<svg version="1.1" xmlns="http://www.w3.org/2000/svg" xmlns:xlink="http://www.w3.org/1999/xlink" x="0px" y="0px" width="48px"
	 height="48px" viewBox="0 0 48 48" style="enable-background:new 0 0 48 48;" xml:space="preserve">
<g id="Javascript">
	<path d="M6.468,37.438H0.496V30.32h5.972V37.438z"/>
	<path d="M22.253,38.24c0,3.178-0.856,5.602-2.563,7.264C17.982,47.168,15.632,48,12.634,48c-0.518,0-1.093-0.02-1.735-0.073
		c-0.639-0.048-1.277-0.12-1.911-0.228v-4.192h0.275c0.368,0.082,0.77,0.16,1.21,0.237c0.444,0.078,0.865,0.116,1.262,0.116
		c1.253,0,2.278-0.155,3.085-0.465c0.809-0.31,1.412-0.794,1.814-1.459c0.362-0.601,0.609-1.36,0.734-2.274
		c0.126-0.918,0.188-2.031,0.188-3.346v-22.88h-5.049V9.539h9.745V38.24z M22.277,4.87h-5.344V0h5.344V4.87z"/>
	<path d="M36.587,38.114c-1.866,0-3.608-0.25-5.233-0.754c-1.625-0.499-2.969-1.03-4.033-1.595v-5.271h0.253
		c0.396,0.319,0.869,0.667,1.406,1.048c0.542,0.383,1.262,0.784,2.162,1.199c0.798,0.367,1.679,0.692,2.636,0.974
		c0.957,0.285,1.954,0.425,2.983,0.425c0.749,0,1.548-0.086,2.399-0.262c0.851-0.175,1.479-0.396,1.9-0.662
		c0.58-0.383,1.001-0.788,1.257-1.225c0.262-0.434,0.39-1.082,0.39-1.943c0-1.12-0.302-1.958-0.911-2.524
		c-0.61-0.57-1.688-1.045-3.235-1.421c-0.6-0.155-1.384-0.329-2.347-0.528c-0.967-0.197-1.856-0.415-2.674-0.651
		c-2.133-0.614-3.681-1.567-4.647-2.858c-0.963-1.291-1.445-2.849-1.445-4.682c0-2.515,0.947-4.563,2.848-6.144
		c1.896-1.582,4.421-2.372,7.563-2.372c1.553,0,3.11,0.19,4.672,0.573c1.569,0.384,2.885,0.865,3.949,1.447v5.021h-0.252
		c-1.199-0.948-2.534-1.697-4.007-2.244c-1.476-0.552-2.96-0.827-4.459-0.827c-1.548,0-2.857,0.324-3.921,0.973
		c-1.065,0.647-1.602,1.635-1.602,2.95c0,1.165,0.319,2.03,0.953,2.611c0.628,0.57,1.648,1.044,3.047,1.412
		c0.696,0.179,1.475,0.357,2.335,0.531c0.856,0.174,1.76,0.378,2.709,0.614c2.062,0.518,3.619,1.374,4.653,2.573
		c1.046,1.194,1.567,2.828,1.567,4.894c0,1.2-0.241,2.336-0.716,3.409c-0.474,1.073-1.17,1.993-2.079,2.756
		c-1.006,0.838-2.13,1.472-3.388,1.901C40.063,37.893,38.487,38.114,36.587,38.114z"/>
</g>
</svg>
