<?xml version="1.0" encoding="utf-8"?>

<!--
 * Copyright (c) 2015, WSO2 Inc. (http://www.wso2.org) All Rights Reserved.
 *
 * WSO2 Inc. licenses this file to you under the Apache License,
 * Version 2.0 (the "License"); you may not use this file except
 * in compliance with the License.
 * You may obtain a copy of the License at
 *
 * http://www.apache.org/licenses/LICENSE-2.0
 *
 * Unless required by applicable law or agreed to in writing,
 * software distributed under the License is distributed on an
 * "AS IS" BASIS, WITHOUT WARRANTIES OR CONDITIONS OF ANY
 * KIND, either express or implied. See the License for the
 * specific language governing permissions and limitations
 * under the License.
-->

<svg version="1.1" id="java" xmlns="http://www.w3.org/2000/svg" xmlns:xlink="http://www.w3.org/1999/xlink" x="0px" y="0px"
	 viewBox="1.839 0 10.322 14" enable-background="new 1.839 0 10.322 14" xml:space="preserve">
<path fill="#040305" d="M6.709,7.517c0,0-0.78-1.504-0.752-2.603c0.021-0.785,1.792-1.562,2.487-2.689C9.138,1.098,8.357,0,8.357,0
	s0.174,0.81-0.289,1.647c-0.463,0.839-2.17,1.331-2.834,2.776C4.571,5.87,6.709,7.517,6.709,7.517z M9.63,2.949
	c0,0-2.66,1.012-2.66,2.169c0,1.157,0.722,1.532,0.839,1.908c0.115,0.377-0.202,1.012-0.202,1.012s1.041-0.723,0.867-1.562
	C8.299,5.638,7.49,5.377,7.953,4.539C8.263,3.977,9.63,2.949,9.63,2.949z M6.42,9.045c2.458-0.088,3.354-0.863,3.354-0.863
	c-1.59,0.433-5.812,0.405-5.841,0.087C3.905,7.951,5.234,7.691,5.234,7.691s-2.081,0-2.255,0.52C2.806,8.731,3.964,9.131,6.42,9.045
	z M9.977,10.263c0,0,2.406-0.513,2.168-1.82c-0.288-1.591-1.966-0.695-1.966-0.695s1.186,0,1.302,0.722
	C11.596,9.194,9.977,10.263,9.977,10.263z M8.791,9.57c0,0-0.606,0.159-1.504,0.26c-1.204,0.135-2.66,0.028-2.776-0.174
	C4.397,9.454,4.714,9.339,4.714,9.339c-1.446,0.347-0.655,0.953,1.04,1.07c1.453,0.099,3.615-0.433,3.615-0.433L8.791,9.57z
	 M5.062,10.833c0,0-0.656,0.018-0.694,0.366c-0.038,0.345,0.404,0.655,2.024,0.751c1.619,0.096,2.757-0.443,2.757-0.443
	l-0.732-0.444c0,0-0.463,0.097-1.176,0.193c-0.714,0.097-2.178-0.078-2.235-0.211C4.946,10.91,5.062,10.833,5.062,10.833z
	 M11.364,12.395c0.251-0.271-0.078-0.482-0.078-0.482s0.115,0.135-0.037,0.289c-0.155,0.154-1.562,0.539-3.818,0.655
	c-2.255,0.116-4.703-0.212-4.78-0.501c-0.075-0.289,1.254-0.519,1.254-0.519c-0.154,0.019-2.004,0.057-2.063,0.559
	C1.784,12.895,2.651,13.3,6.122,13.3C9.591,13.299,11.115,12.663,11.364,12.395z M10.015,13.531
	c-1.523,0.308-6.148,0.114-6.148,0.114s3.006,0.714,6.437,0.116c1.64-0.286,1.735-1.079,1.735-1.079S11.538,13.222,10.015,13.531z"
	/>
</svg>
