<?xml version="1.0" encoding="iso-8859-1"?>

<!--
 * Copyright (c) 2015, WSO2 Inc. (http://www.wso2.org) All Rights Reserved.
 *
 * WSO2 Inc. licenses this file to you under the Apache License,
 * Version 2.0 (the "License"); you may not use this file except
 * in compliance with the License.
 * You may obtain a copy of the License at
 *
 * http://www.apache.org/licenses/LICENSE-2.0
 *
 * Unless required by applicable law or agreed to in writing,
 * software distributed under the License is distributed on an
 * "AS IS" BASIS, WITHOUT WARRANTIES OR CONDITIONS OF ANY
 * KIND, either express or implied. See the License for the
 * specific language governing permissions and limitations
 * under the License.
-->

<!DOCTYPE svg PUBLIC "-//W3C//DTD SVG 1.1//EN" "http://www.w3.org/Graphics/SVG/1.1/DTD/svg11.dtd">
<svg version="1.1" xmlns="http://www.w3.org/2000/svg" xmlns:xlink="http://www.w3.org/1999/xlink" x="0px" y="0px" width="48px"
	 height="48px" viewBox="0 0 48 48" style="enable-background:new 0 0 48 48;" xml:space="preserve">
<g id="JavaEE">
	<g id="Java_1_">
		<path style="fill:#040305;" d="M12.59,25.481c0,0-2.004-4.307-1.931-7.454c0.055-2.249,4.606-4.473,6.392-7.701
			c1.784-3.229-0.222-6.375-0.222-6.375s0.446,2.32-0.743,4.719c-1.189,2.402-5.578,3.811-7.285,7.952
			C7.094,20.761,12.59,25.481,12.59,25.481z"/>
		<path style="fill:#040305;" d="M20.099,12.396c0,0-6.836,2.9-6.836,6.211c0,3.315,1.856,4.39,2.155,5.464
			c0.297,1.08-0.52,2.901-0.52,2.901s2.675-2.069,2.227-4.473c-0.447-2.401-2.527-3.148-1.336-5.547
			C16.585,15.343,20.099,12.396,20.099,12.396z"/>
		<path style="fill:#040305;" d="M11.85,29.857c6.318-0.25,8.622-2.473,8.622-2.473c-4.086,1.24-14.939,1.159-15.014,0.251
			c-0.073-0.911,3.343-1.658,3.343-1.658s-5.349,0-5.797,1.489C2.559,28.958,5.537,30.104,11.85,29.857z"/>
		<path style="fill:#040305;" d="M20.99,33.349c0,0,6.185-1.472,5.572-5.214c-0.74-4.557-5.054-1.989-5.054-1.989
			s3.05,0,3.345,2.069C25.151,30.285,20.99,33.349,20.99,33.349z"/>
		<path style="fill:#040305;" d="M17.944,31.361c0,0-1.558,0.458-3.867,0.746c-3.095,0.387-6.837,0.081-7.136-0.499
			c-0.293-0.581,0.521-0.909,0.521-0.909c-3.718,0.994-1.684,2.729,2.673,3.062c3.735,0.286,9.293-1.24,9.293-1.24L17.944,31.361z"
			/>
		<path style="fill:#040305;" d="M8.358,34.98c0,0-1.687,0.053-1.786,1.047c-0.097,0.986,1.039,1.875,5.201,2.15
			c4.163,0.275,7.088-1.27,7.088-1.27l-1.883-1.271c0,0-1.19,0.275-3.024,0.553c-1.834,0.276-5.596-0.224-5.745-0.604
			C8.059,35.196,8.358,34.98,8.358,34.98z"/>
		<path style="fill:#040305;" d="M24.557,39.453c0.643-0.776-0.199-1.384-0.199-1.384s0.296,0.387-0.097,0.828
			c-0.396,0.44-4.015,1.543-9.813,1.875c-5.795,0.333-12.089-0.607-12.288-1.435C1.968,38.51,5.383,37.85,5.383,37.85
			c-0.395,0.054-5.151,0.164-5.303,1.604c-0.149,1.432,2.08,2.592,11.002,2.592C20,42.043,23.915,40.22,24.557,39.453z"/>
		<path style="fill:#040305;" d="M21.089,42.706c-3.914,0.881-15.803,0.326-15.803,0.326s7.727,2.046,16.546,0.334
			c4.215-0.82,4.462-3.093,4.462-3.093S25.005,41.82,21.089,42.706z"/>
	</g>
	<g>
		<path d="M36.307,26.596H30.43v5.42h6.55v1.629h-8.501V18.609h8.164v1.628H30.43v4.752h5.877V26.596z"/>
		<path d="M47.343,26.596h-5.877v5.42h6.55v1.629h-8.501V18.609h8.164v1.628h-6.213v4.752h5.877V26.596z"/>
	</g>
</g>
</svg>
