<?xml version="1.0" encoding="utf-8"?>

<!--
 * Copyright (c) 2015, WSO2 Inc. (http://www.wso2.org) All Rights Reserved.
 *
 * WSO2 Inc. licenses this file to you under the Apache License,
 * Version 2.0 (the "License"); you may not use this file except
 * in compliance with the License.
 * You may obtain a copy of the License at
 *
 * http://www.apache.org/licenses/LICENSE-2.0
 *
 * Unless required by applicable law or agreed to in writing,
 * software distributed under the License is distributed on an
 * "AS IS" BASIS, WITHOUT WARRANTIES OR CONDITIONS OF ANY
 * KIND, either express or implied. See the License for the
 * specific language governing permissions and limitations
 * under the License.
-->

<svg version="1.1" id="jquery" xmlns="http://www.w3.org/2000/svg" xmlns:xlink="http://www.w3.org/1999/xlink" x="0px" y="0px"
	 viewBox="-0.223 0 14.446 14" enable-background="new -0.223 0 14.446 14" xml:space="preserve">
<path d="M7.976,0.619c0.151-0.211,0.302-0.392,0.453-0.604C8.187,0.468,8.097,0.981,8.127,1.494c0.06,0.694,0.392,1.388,0.845,1.901
	c0.483,0.573,1.147,0.996,1.901,1.177c0.483,0.121,0.966,0.181,1.449,0.121c0.392-0.06,0.754-0.181,1.086-0.423
	c0.181-0.121,0.302-0.272,0.453-0.453c-0.151,0.302-0.332,0.573-0.573,0.815c-0.302,0.332-0.694,0.573-1.147,0.724
	c-0.604,0.181-1.237,0.181-1.841,0.06C9.515,5.206,8.821,4.753,8.308,4.15C7.855,3.607,7.554,2.882,7.554,2.158
	C7.554,1.615,7.674,1.071,7.976,0.619z M4.626,1.766c0.272-0.362,0.513-0.724,0.785-1.117C5.019,1.313,4.837,2.098,4.868,2.882
	c0.03,0.875,0.332,1.75,0.785,2.475c0.754,1.207,1.931,2.113,3.29,2.535c0.966,0.302,1.992,0.362,2.958,0.121
	c0.936-0.241,1.781-0.815,2.324-1.6c-0.211,0.634-0.604,1.207-1.086,1.66c-0.573,0.543-1.268,0.966-2.022,1.147
	c-0.905,0.241-1.871,0.241-2.807,0.06C7.191,8.978,6.165,8.375,5.381,7.53C5.139,7.319,4.988,7.047,4.807,6.806
	C4.355,6.142,4.053,5.357,3.962,4.572C3.872,3.637,4.083,2.611,4.626,1.766z M0.703,3.275C1.035,2.852,1.367,2.43,1.699,2.007
	C1.306,2.762,1.125,3.576,1.095,4.421C1.065,5.508,1.337,6.624,1.789,7.62c0.604,1.268,1.569,2.324,2.716,3.139
	c0.724,0.483,1.509,0.875,2.324,1.147c0.332,0.121,0.694,0.181,1.056,0.241c0.905,0.121,1.841,0.121,2.716-0.06
	c0.724-0.151,1.418-0.423,2.052-0.845c0.483-0.302,0.905-0.694,1.237-1.147c-0.241,0.604-0.604,1.147-1.026,1.63
	c-0.513,0.573-1.117,1.086-1.781,1.449c-0.634,0.332-1.298,0.573-2.022,0.694c-0.845,0.151-1.75,0.151-2.595,0.03
	c-0.272-0.03-0.543-0.06-0.815-0.151c-1.569-0.453-2.988-1.388-4.044-2.626c-0.966-1.117-1.6-2.535-1.781-4.014
	c-0.091-0.664-0.06-1.358,0.091-2.022C0.069,4.421,0.311,3.818,0.703,3.275z"/>
</svg>
