<?xml version="1.0" encoding="utf-8"?>

<!--
 * Copyright (c) 2015, WSO2 Inc. (http://www.wso2.org) All Rights Reserved.
 *
 * WSO2 Inc. licenses this file to you under the Apache License,
 * Version 2.0 (the "License"); you may not use this file except
 * in compliance with the License.
 * You may obtain a copy of the License at
 *
 * http://www.apache.org/licenses/LICENSE-2.0
 *
 * Unless required by applicable law or agreed to in writing,
 * software distributed under the License is distributed on an
 * "AS IS" BASIS, WITHOUT WARRANTIES OR CONDITIONS OF ANY
 * KIND, either express or implied. See the License for the
 * specific language governing permissions and limitations
 * under the License.
-->

<svg version="1.1" id="lifecycle" xmlns="http://www.w3.org/2000/svg" xmlns:xlink="http://www.w3.org/1999/xlink" x="0px" y="0px"
	 viewBox="0 0 14 14" enable-background="new 0 0 14 14" xml:space="preserve">
<path d="M13.3,10.1L13.3,10.1L13.3,10.1C13.3,10.1,13.3,10.1,13.3,10.1z M7.3,0L7.3,0l0.9,1.8L7.3,3.4c1.9,0.1,3.3,1.7,3.3,3.6
	c0,0.5-0.1,1-0.3,1.4l0,0l1,1.7l2,0C13.7,9.2,14,8.1,14,7C14,3.2,11,0.2,7.3,0z M7.3,3.4L7.3,3.4L7.3,3.4L7.3,3.4z M3.7,8.5L3.7,8.5
	C3.5,8,3.4,7.5,3.4,7c0-1.8,1.3-3.3,3-3.6l0,0l1-1.8L6.5,0l0,0C2.9,0.2,0,3.3,0,7c0,1.1,0.3,2.2,0.7,3.1c0,0,0,0,0,0l1.1-1.6
	L3.7,8.5z M0.7,10.1L0.7,10.1C0.7,10.1,0.7,10.1,0.7,10.1L0.7,10.1z M1.1,10.8L1.1,10.8C1.1,10.8,1.1,10.8,1.1,10.8L1.1,10.8z
	 M10.9,10.7L9.9,9.1v0C9.3,10,8.2,10.6,7,10.6c-1.2,0-2.2-0.6-2.9-1.4l0,0l-2,0l-1,1.6C2.4,12.7,4.5,14,7,14c2.5,0,4.6-1.3,5.9-3.2
	l0,0L10.9,10.7z"/>
</svg>
