<?xml version="1.0" encoding="utf-8"?>
<!-- Generator: Adobe Illustrator 16.0.0, SVG Export Plug-In . SVG Version: 6.00 Build 0)  -->
<!DOCTYPE svg PUBLIC "-//W3C//DTD SVG 1.1//EN" "http://www.w3.org/Graphics/SVG/1.1/DTD/svg11.dtd">
<svg version="1.1" id="Layer_1" xmlns="http://www.w3.org/2000/svg" xmlns:xlink="http://www.w3.org/1999/xlink" x="0px" y="0px"
	 width="48px" height="48px" viewBox="0 0 48 48" enable-background="new 0 0 48 48" xml:space="preserve">
<g>
	<path d="M7.826,12.805l-2.241,2.241c-0.294,0.295-0.382,0.753-0.224,1.138c0.159,0.385,0.535,0.652,0.952,0.652h9.457
		c0.568,0,1.034-0.492,1.034-1.061V6.317c0-0.417-0.254-0.792-0.639-0.952c-0.384-0.159-0.828-0.071-1.123,0.223l-2.242,2.242
		L6.861,1.891c-0.968-0.968-2.537-0.968-3.505,0L1.887,3.36C1.422,3.825,1.161,4.456,1.161,5.112c0,0.657,0.261,1.288,0.726,1.753
		L7.826,12.805z"/>
	<path d="M15.771,31.23H6.313c-0.418,0-0.793,0.234-0.952,0.619c-0.158,0.384-0.07,0.819,0.223,1.114l2.242,2.237l-5.94,5.938
		c-0.464,0.464-0.725,1.093-0.725,1.75s0.261,1.287,0.725,1.752l1.471,1.469c0.968,0.968,2.537,0.968,3.504,0l5.939-5.939
		l2.241,2.242c0.297,0.294,0.741,0.382,1.125,0.223c0.385-0.16,0.639-0.535,0.639-0.951v-9.458
		C16.805,31.658,16.339,31.23,15.771,31.23z"/>
	<path d="M40.235,35.196l2.242-2.242c0.294-0.295,0.382-0.721,0.222-1.105c-0.158-0.384-0.533-0.618-0.951-0.618h-9.457
		c-0.568,0-1.033,0.427-1.033,0.996v9.458c0,0.417,0.253,0.792,0.638,0.952c0.385,0.159,0.829,0.071,1.122-0.224l2.243-2.242
		l5.94,5.94c0.967,0.968,2.537,0.968,3.504,0l1.47-1.47c0.466-0.465,0.726-1.095,0.726-1.752c0-0.658-0.26-1.288-0.726-1.752
		L40.235,35.196z"/>
	<path d="M32.291,16.835h9.457c0.418,0,0.793-0.267,0.951-0.652c0.16-0.385,0.072-0.835-0.222-1.13l-2.242-2.246l5.939-5.942
		c0.466-0.464,0.727-1.096,0.727-1.753c0-0.657-0.261-1.288-0.727-1.752l-1.47-1.47c-0.967-0.968-2.537-0.968-3.503,0l-5.94,5.939
		L33.02,5.587c-0.295-0.294-0.739-0.382-1.124-0.223s-0.638,0.535-0.638,0.951v9.458C31.258,16.342,31.723,16.835,32.291,16.835z"/>
	<circle cx="24.031" cy="24" r="7.36"/>
</g>
</svg>
