<?xml version="1.0" encoding="iso-8859-1"?>

<!--
 * Copyright (c) 2015, WSO2 Inc. (http://www.wso2.org) All Rights Reserved.
 *
 * WSO2 Inc. licenses this file to you under the Apache License,
 * Version 2.0 (the "License"); you may not use this file except
 * in compliance with the License.
 * You may obtain a copy of the License at
 *
 * http://www.apache.org/licenses/LICENSE-2.0
 *
 * Unless required by applicable law or agreed to in writing,
 * software distributed under the License is distributed on an
 * "AS IS" BASIS, WITHOUT WARRANTIES OR CONDITIONS OF ANY
 * KIND, either express or implied. See the License for the
 * specific language governing permissions and limitations
 * under the License.
-->

<!DOCTYPE svg PUBLIC "-//W3C//DTD SVG 1.1//EN" "http://www.w3.org/Graphics/SVG/1.1/DTD/svg11.dtd">
<svg version="1.1" xmlns="http://www.w3.org/2000/svg" xmlns:xlink="http://www.w3.org/1999/xlink" x="0px" y="0px" width="48px"
	 height="48px" viewBox="0 0 48 48" style="enable-background:new 0 0 48 48;" xml:space="preserve">
<g id="PDF">
	<path id="PDF_2_" d="M47.223,29.447c-0.959-0.945-3.087-1.445-6.325-1.488
		c-2.192-0.025-4.831,0.169-7.605,0.558c-1.242-0.718-2.522-1.498-3.528-2.437c-2.704-2.526-4.961-6.031-6.368-9.885
		c0.092-0.359,0.17-0.676,0.243-0.999c0,0,1.522-8.652,1.119-11.577c-0.055-0.401-0.089-0.517-0.197-0.829L24.428,2.45
		c-0.414-0.956-1.226-1.968-2.5-1.913l-0.748-0.024l-0.02,0c-1.42,0-2.578,0.727-2.881,1.813c-0.924,3.405,0.029,8.499,1.756,15.097
		l-0.442,1.074c-1.236,3.014-2.786,6.051-4.153,8.729l-0.178,0.349c-1.438,2.814-2.744,5.205-3.927,7.229l-1.222,0.646
		c-0.089,0.048-2.183,1.154-2.673,1.452c-4.166,2.486-6.927,5.311-7.385,7.552c-0.146,0.715-0.038,1.63,0.704,2.054L1.941,47.1
		c0.513,0.258,1.054,0.388,1.607,0.388c2.967,0,6.412-3.696,11.157-11.978c5.479-1.784,11.717-3.267,17.184-4.084
		c4.166,2.347,9.29,3.976,12.523,3.976c0.574,0,1.07-0.056,1.472-0.162c0.62-0.163,1.145-0.518,1.463-0.998
		c0.627-0.944,0.754-2.245,0.584-3.577C47.879,30.27,47.563,29.78,47.223,29.447z M2.905,45.235c0.541-1.479,2.683-4.403,5.85-6.999
		c0.199-0.162,0.689-0.621,1.138-1.048C6.582,42.47,4.364,44.575,2.905,45.235z M21.662,2.043c0.954,0,1.496,2.404,1.541,4.658
		c0.045,2.253-0.483,3.835-1.136,5.006c-0.542-1.733-0.804-4.464-0.804-6.25C21.263,5.457,21.224,2.043,21.662,2.043z
		 M16.066,32.823c0.665-1.189,1.356-2.443,2.063-3.774c1.721-3.256,2.809-5.804,3.619-7.898c1.611,2.931,3.617,5.423,5.975,7.419
		c0.294,0.249,0.605,0.499,0.934,0.748C23.861,30.266,19.715,31.42,16.066,32.823z M46.301,32.553
		c-0.292,0.183-1.129,0.288-1.667,0.288c-1.737,0-3.886-0.794-6.898-2.085c1.157-0.086,2.22-0.13,3.171-0.13
		c1.741,0,2.259-0.008,3.962,0.427C46.572,31.487,46.593,32.37,46.301,32.553z"/>
</g>
</svg>
