<?xml version="1.0" encoding="utf-8"?>

<!--
 * Copyright (c) 2015, WSO2 Inc. (http://www.wso2.org) All Rights Reserved.
 *
 * WSO2 Inc. licenses this file to you under the Apache License,
 * Version 2.0 (the "License"); you may not use this file except
 * in compliance with the License.
 * You may obtain a copy of the License at
 *
 * http://www.apache.org/licenses/LICENSE-2.0
 *
 * Unless required by applicable law or agreed to in writing,
 * software distributed under the License is distributed on an
 * "AS IS" BASIS, WITHOUT WARRANTIES OR CONDITIONS OF ANY
 * KIND, either express or implied. See the License for the
 * specific language governing permissions and limitations
 * under the License.
-->

<svg version="1.1" id="policy" xmlns="http://www.w3.org/2000/svg" xmlns:xlink="http://www.w3.org/1999/xlink" x="0px" y="0px"
	 viewBox="1.678 0 10.645 14" enable-background="new 1.678 0 10.645 14" xml:space="preserve">
<path d="M9.212,0.005H8.676L8.673,0.003v0.002H2.399c-0.398,0-0.721,0.323-0.721,0.721v12.55c0,0.398,0.323,0.721,0.721,0.721h9.202
	c0.398,0,0.721-0.323,0.721-0.721V2.987L9.212,0.005z M11.601,13.579H2.399c-0.167,0-0.303-0.136-0.303-0.303V0.726
	c0-0.167,0.136-0.303,0.303-0.303h6.275V2.81c0,0.38,0.309,0.689,0.689,0.689h2.542v9.777
	C11.904,13.443,11.768,13.579,11.601,13.579z M10.697,12.187H9.088v-1.686h1.256l0.361-0.378H8.727v2.443h2.331v-1.564l-0.361,0.379
	V12.187z M9.484,11.01l-0.255,0.267l0.613,0.643l1.534-1.608l-0.255-0.268l-1.278,1.34L9.484,11.01z M8.336,5.045H3.33V4.42h5.006
	V5.045z M6.459,6.297H3.33V5.671h3.129V6.297z M8.336,8.174H3.33V7.549h5.006V8.174z M7.085,9.426H3.33V8.8h3.755V9.426z
	 M8.336,9.113c0,0.173-0.141,0.313-0.313,0.313c-0.174,0-0.314-0.14-0.314-0.313C7.71,8.94,7.849,8.8,8.023,8.8
	C8.196,8.8,8.336,8.94,8.336,9.113z"/>
</svg>
