<?xml version="1.0" encoding="utf-8"?>

<!--
 * Copyright (c) 2015, WSO2 Inc. (http://www.wso2.org) All Rights Reserved.
 *
 * WSO2 Inc. licenses this file to you under the Apache License,
 * Version 2.0 (the "License"); you may not use this file except
 * in compliance with the License.
 * You may obtain a copy of the License at
 *
 * http://www.apache.org/licenses/LICENSE-2.0
 *
 * Unless required by applicable law or agreed to in writing,
 * software distributed under the License is distributed on an
 * "AS IS" BASIS, WITHOUT WARRANTIES OR CONDITIONS OF ANY
 * KIND, either express or implied. See the License for the
 * specific language governing permissions and limitations
 * under the License.
-->

<svg version="1.1" id="proxy" xmlns="http://www.w3.org/2000/svg" xmlns:xlink="http://www.w3.org/1999/xlink" x="0px" y="0px"
	 viewBox="0.508 0 12.983 14" enable-background="new 0.508 0 12.983 14" xml:space="preserve">
<path d="M3.166,10.787c0.172,0,0.334-0.042,0.481-0.109c-0.065-0.052-0.127-0.108-0.189-0.164H2.591
	c0.062,0.068,0.122,0.139,0.187,0.204C2.899,10.762,3.029,10.787,3.166,10.787z M11.651,1.839C10.473,0.662,8.908,0.01,7.242,0H7.18
	C3.717,0.018,0.914,2.849,0.933,6.31c0.003,0.613,0.098,1.204,0.266,1.763c0.147-0.176,0.319-0.328,0.51-0.454
	C1.628,7.285,1.573,6.94,1.554,6.585h2.18C3.743,6.859,3.77,7.129,3.807,7.397c0.255,0.099,0.489,0.24,0.693,0.419
	C4.415,7.412,4.361,7.002,4.347,6.586h2.558v1.589C6.27,8.198,5.638,8.298,5.02,8.469C5.117,8.647,5.19,8.84,5.238,9.042
	C5.785,8.898,6.344,8.81,6.906,8.786v3.1c-0.297-0.254-0.576-0.533-0.829-0.833c-0.104-0.123-0.201-0.251-0.296-0.379v0.963
	c0.048,0.053,0.093,0.108,0.142,0.16c-0.048-0.011-0.094-0.027-0.142-0.039v0.629c0.461,0.108,0.939,0.172,1.432,0.172
	c0.011,0,0.023,0,0.031,0c1.678-0.01,3.251-0.671,4.431-1.862c1.179-1.193,1.825-2.773,1.817-4.448
	C13.481,4.582,12.828,3.017,11.651,1.839z M3.758,5.642c-0.01,0.11-0.015,0.222-0.021,0.33H1.554
	c0.058-1.109,0.439-2.134,1.05-2.986c0.486,0.328,0.999,0.598,1.53,0.811C3.937,4.386,3.812,5.005,3.758,5.642z M2.987,2.507
	c0.781-0.871,1.825-1.503,3.01-1.763C5.289,1.465,4.733,2.305,4.349,3.223C3.876,3.031,3.422,2.794,2.987,2.507z M6.905,5.972H4.35
	c0.004-0.093,0.01-0.186,0.018-0.281c0.048-0.58,0.164-1.146,0.342-1.688c0.715,0.226,1.454,0.355,2.195,0.38
	C6.905,4.383,6.905,5.972,6.905,5.972z M6.905,3.772c-0.668-0.027-1.333-0.14-1.979-0.343C5.363,2.4,6.033,1.479,6.905,0.732V3.772z
	 M6.905,0.641l-0.016-0.02c0.004,0,0.01,0,0.016,0V0.641z M11.817,2.989c0.61,0.852,0.994,1.876,1.052,2.983h-2.181
	c-0.031-0.746-0.164-1.477-0.397-2.177C10.819,3.585,11.332,3.315,11.817,2.989z M11.432,2.51c-0.433,0.287-0.887,0.523-1.357,0.712
	C9.764,2.489,9.343,1.798,8.814,1.171C8.691,1.024,8.563,0.883,8.426,0.744C9.606,1.006,10.651,1.636,11.432,2.51z M7.518,0.622
	c0.006,0,0.011,0,0.016,0.001L7.518,0.641V0.622z M7.518,0.732c0.297,0.256,0.577,0.537,0.828,0.835
	c0.48,0.569,0.867,1.196,1.151,1.862C8.851,3.632,8.186,3.744,7.518,3.771V0.732z M7.518,4.383c0.741-0.025,1.48-0.154,2.196-0.38
	c0.209,0.633,0.331,1.294,0.36,1.969H7.518L7.518,4.383L7.518,4.383z M7.518,6.586h2.557c-0.004,0.113-0.01,0.228-0.02,0.34
	C10.008,7.488,9.898,8.037,9.73,8.56C9.011,8.33,8.267,8.2,7.518,8.175L7.518,6.586L7.518,6.586z M7.518,11.886v-3.1
	C8.194,8.814,8.869,8.93,9.52,9.135C9.084,10.186,8.405,11.126,7.518,11.886z M11.239,10.265c-0.763,0.77-1.707,1.294-2.738,1.533
	c0.687-0.718,1.223-1.548,1.596-2.454c0.463,0.188,0.913,0.425,1.34,0.708C11.374,10.123,11.307,10.196,11.239,10.265z
	 M11.824,9.571c-0.483-0.322-0.991-0.59-1.516-0.804c0.185-0.573,0.305-1.172,0.358-1.79c0.013-0.13,0.018-0.261,0.024-0.393h2.18
	C12.812,7.67,12.45,8.699,11.824,9.571z M5.091,10.174H4.965V9.589c0-1.082-0.859-1.987-1.932-2.006c-0.029,0-0.088,0-0.117,0
	C1.842,7.603,0.984,8.507,0.984,9.589v0.585H0.858c-0.193,0-0.35,0.199-0.35,0.444v2.935C0.508,13.8,0.666,14,0.858,14h4.232
	c0.193,0,0.35-0.201,0.35-0.446v-2.935C5.44,10.373,5.283,10.174,5.091,10.174z M3.371,12.084v0.887
	c0,0.102-0.085,0.187-0.187,0.187h-0.42c-0.102,0-0.187-0.086-0.187-0.187v-0.887c-0.098-0.097-0.156-0.231-0.156-0.38
	c0-0.281,0.218-0.523,0.494-0.534c0.029-0.001,0.088-0.001,0.117,0c0.276,0.011,0.494,0.253,0.494,0.534
	C3.527,11.852,3.469,11.987,3.371,12.084z M4.141,10.174H3.033H2.916H1.808V9.589c0-0.645,0.524-1.177,1.167-1.177
	c0.643,0,1.167,0.533,1.167,1.177C4.141,9.589,4.141,10.174,4.141,10.174z"/>
</svg>
