<?xml version="1.0" encoding="iso-8859-1"?>

<!--
 * Copyright (c) 2015, WSO2 Inc. (http://www.wso2.org) All Rights Reserved.
 *
 * WSO2 Inc. licenses this file to you under the Apache License,
 * Version 2.0 (the "License"); you may not use this file except
 * in compliance with the License.
 * You may obtain a copy of the License at
 *
 * http://www.apache.org/licenses/LICENSE-2.0
 *
 * Unless required by applicable law or agreed to in writing,
 * software distributed under the License is distributed on an
 * "AS IS" BASIS, WITHOUT WARRANTIES OR CONDITIONS OF ANY
 * KIND, either express or implied. See the License for the
 * specific language governing permissions and limitations
 * under the License.
-->

<!DOCTYPE svg PUBLIC "-//W3C//DTD SVG 1.1//EN" "http://www.w3.org/Graphics/SVG/1.1/DTD/svg11.dtd">
<svg version="1.1" xmlns="http://www.w3.org/2000/svg" xmlns:xlink="http://www.w3.org/1999/xlink" x="0px" y="0px" width="48px"
	 height="48px" viewBox="0 0 48 48" style="enable-background:new 0 0 48 48;" xml:space="preserve">
<g id="Proxy">
	<path d="M10.855,36.983c0.591,0,1.146-0.143,1.65-0.375c-0.222-0.18-0.434-0.371-0.648-0.561H8.884
		c0.213,0.234,0.417,0.478,0.641,0.701C9.941,36.897,10.388,36.983,10.855,36.983z"/>
	<path d="M39.949,6.306C35.91,2.271,30.543,0.034,24.833,0H24.62C12.745,0.063,3.137,9.769,3.2,21.634
		c0.011,2.102,0.337,4.127,0.912,6.046c0.505-0.603,1.095-1.126,1.75-1.557c-0.279-1.146-0.468-2.33-0.531-3.545h7.473
		c0.03,0.937,0.124,1.864,0.249,2.784c0.875,0.338,1.677,0.824,2.375,1.436c-0.289-1.384-0.474-2.791-0.521-4.219h8.771v5.449
		c-2.18,0.078-4.346,0.423-6.464,1.007c0.332,0.612,0.582,1.273,0.748,1.967c1.873-0.496,3.79-0.797,5.716-0.877v10.629
		c-1.017-0.871-1.976-1.829-2.843-2.856c-0.356-0.423-0.689-0.86-1.015-1.301v3.301c0.164,0.182,0.32,0.37,0.487,0.548
		c-0.165-0.039-0.324-0.092-0.487-0.134v2.156c1.58,0.371,3.218,0.588,4.909,0.588c0.039,0,0.078,0,0.107,0
		c5.754-0.034,11.148-2.302,15.193-6.383c4.044-4.089,6.257-9.507,6.229-15.251C46.221,15.711,43.983,10.345,39.949,6.306z
		 M12.886,19.344c-0.033,0.377-0.053,0.76-0.073,1.132H5.331c0.198-3.802,1.506-7.317,3.599-10.238
		c1.666,1.124,3.424,2.049,5.245,2.78C13.5,15.038,13.07,17.159,12.886,19.344z M10.242,8.597c2.678-2.988,6.257-5.153,10.32-6.044
		c-2.426,2.471-4.334,5.351-5.651,8.496C13.292,10.393,11.733,9.58,10.242,8.597z M23.676,20.476h-8.761
		c0.015-0.32,0.034-0.639,0.063-0.963c0.165-1.99,0.562-3.928,1.172-5.788c2.451,0.775,4.984,1.216,7.526,1.303V20.476z
		 M23.676,12.931c-2.291-0.092-4.572-0.479-6.785-1.176c1.497-3.526,3.796-6.684,6.785-9.246V12.931z M23.676,2.199l-0.054-0.067
		c0.015,0,0.034,0,0.054,0V2.199z M40.516,10.248c2.091,2.92,3.409,6.432,3.608,10.229h-7.479c-0.105-2.557-0.562-5.065-1.36-7.463
		C37.097,12.292,38.854,11.367,40.516,10.248z M39.197,8.606c-1.486,0.983-3.04,1.792-4.653,2.441
		c-1.065-2.514-2.509-4.883-4.324-7.033c-0.422-0.503-0.861-0.988-1.328-1.463C32.937,3.449,36.521,5.608,39.197,8.606z
		 M25.778,2.131c0.02,0,0.039,0,0.054,0.004l-0.054,0.063V2.131z M25.778,2.508c1.018,0.877,1.977,1.84,2.839,2.863
		c1.646,1.951,2.973,4.102,3.946,6.383c-2.214,0.697-4.494,1.084-6.785,1.176V2.508z M25.778,15.028
		c2.542-0.087,5.075-0.527,7.53-1.303c0.717,2.17,1.134,4.436,1.235,6.751h-8.766V15.028z M25.778,22.579h8.766
		c-0.015,0.387-0.034,0.78-0.067,1.167c-0.161,1.928-0.538,3.808-1.114,5.604c-2.465-0.789-5.017-1.235-7.584-1.321V22.579z
		 M25.778,40.753V30.124c2.319,0.097,4.63,0.494,6.862,1.195C31.148,34.923,28.819,38.148,25.778,40.753z M38.535,35.194
		c-2.616,2.64-5.852,4.437-9.387,5.255c2.354-2.461,4.194-5.309,5.473-8.413c1.589,0.645,3.129,1.458,4.596,2.427
		C38.999,34.709,38.767,34.957,38.535,35.194z M40.54,32.815c-1.657-1.104-3.396-2.023-5.197-2.755
		c0.635-1.966,1.046-4.02,1.226-6.136c0.044-0.446,0.063-0.896,0.083-1.346h7.473C43.93,26.298,42.689,29.824,40.54,32.815z"/>
	<path d="M17.455,34.884h-0.43v-2.006c0-3.71-2.944-6.811-6.625-6.877c-0.1-0.001-0.301-0.001-0.401,0
		c-3.681,0.066-6.625,3.167-6.625,6.877v2.006H2.944c-0.661,0-1.199,0.682-1.199,1.524v10.063C1.745,47.313,2.284,48,2.944,48
		h14.511c0.66,0,1.199-0.688,1.199-1.529V36.408C18.654,35.565,18.115,34.884,17.455,34.884z M11.559,41.43v3.041
		c0,0.348-0.292,0.642-0.64,0.642H9.48c-0.349,0-0.64-0.294-0.64-0.642V41.43c-0.337-0.332-0.535-0.793-0.535-1.302
		c0-0.964,0.746-1.793,1.694-1.831c0.1-0.004,0.301-0.004,0.401,0c0.948,0.038,1.694,0.867,1.694,1.831
		C12.094,40.637,11.896,41.098,11.559,41.43z M14.201,34.884h-3.8H9.999h-3.8v-2.006c0-2.21,1.796-4.037,4-4.037
		c2.206,0,4.002,1.827,4.002,4.037V34.884z"/>
</g>
</svg>
