<?xml version="1.0" encoding="utf-8"?>
<!-- Generator: Adobe Illustrator 16.0.4, SVG Export Plug-In . SVG Version: 6.00 Build 0)  -->
<!DOCTYPE svg PUBLIC "-//W3C//DTD SVG 1.1//EN" "http://www.w3.org/Graphics/SVG/1.1/DTD/svg11.dtd">
<svg version="1.1" id="Capa_1" xmlns="http://www.w3.org/2000/svg" xmlns:xlink="http://www.w3.org/1999/xlink" x="0px" y="0px"
	 width="32px" height="32px" viewBox="0 0 32 32" enable-background="new 0 0 32 32" xml:space="preserve">
<g>
	<path d="M22.414,0H4v32h24V5.584L22.414,0z M21.998,2.413L25.586,6h-3.588V2.413z M26,30H6V1.998h14v6.001h6V30z"/>
	<path d="M18,13.001c0,0.125,0.021,0.243,0.036,0.363l-4.959,2.479C12.538,15.323,11.808,15,11,15c-1.657,0-3,1.344-3,3s1.343,3,3,3
		c0.809,0,1.539-0.323,2.078-0.843l4.959,2.478C18.021,22.756,18,22.875,18,23c0,1.656,1.342,3,3,3c1.656,0,3-1.344,3-3
		c0-1.305-0.838-2.402-2-2.816v-4.367c1.162-0.414,2-1.513,2-2.816c0-1.656-1.344-3-3-3C19.342,10.001,18,11.345,18,13.001z
		 M20,15.817v4.367c-0.406,0.146-0.773,0.366-1.078,0.659l-4.958-2.478C13.978,18.244,14,18.125,14,18s-0.022-0.243-0.037-0.364
		l4.958-2.479C19.227,15.45,19.594,15.672,20,15.817z"/>
</g>
</svg>
