<?xml version="1.0" encoding="iso-8859-1"?>

<!--
 * Copyright (c) 2015, WSO2 Inc. (http://www.wso2.org) All Rights Reserved.
 *
 * WSO2 Inc. licenses this file to you under the Apache License,
 * Version 2.0 (the "License"); you may not use this file except
 * in compliance with the License.
 * You may obtain a copy of the License at
 *
 * http://www.apache.org/licenses/LICENSE-2.0
 *
 * Unless required by applicable law or agreed to in writing,
 * software distributed under the License is distributed on an
 * "AS IS" BASIS, WITHOUT WARRANTIES OR CONDITIONS OF ANY
 * KIND, either express or implied. See the License for the
 * specific language governing permissions and limitations
 * under the License.
-->

<!DOCTYPE svg PUBLIC "-//W3C//DTD SVG 1.1//EN" "http://www.w3.org/Graphics/SVG/1.1/DTD/svg11.dtd">
<svg version="1.1" xmlns="http://www.w3.org/2000/svg" xmlns:xlink="http://www.w3.org/1999/xlink" x="0px" y="0px" width="48px"
	 height="48px" viewBox="0 0 48 48" style="enable-background:new 0 0 48 48;" xml:space="preserve">
<g id="Resource">
	<path id="Resource_1_" d="M30.001,9.001c0,0.376,0.063,0.73,0.108,1.09l-14.878,7.434
		c-1.618-1.557-3.807-2.527-6.232-2.527c-4.971,0-9,4.031-9,8.999c0,4.97,4.029,9,9,9c2.428,0,4.618-0.969,6.235-2.524l14.876,7.429
		c-0.046,0.364-0.109,0.721-0.109,1.099c0,4.97,4.024,8.998,8.999,8.998c4.97,0,9-4.028,9-8.998c0-3.915-2.515-7.207-5.999-8.451
		v-13.1C45.485,16.208,48,12.911,48,9.001c0-4.967-4.03-8.999-9-8.999C34.025,0.002,30.001,4.034,30.001,9.001z M35.999,17.449v13.1
		c-1.218,0.44-2.319,1.099-3.235,1.977l-14.872-7.432C17.934,24.73,18,24.375,18,23.997c0-0.374-0.066-0.73-0.112-1.09l14.875-7.436
		C33.68,16.35,34.781,17.015,35.999,17.449z"/>
</g>
</svg>
