<?xml version="1.0" encoding="utf-8"?>

<!--
 * Copyright (c) 2015, WSO2 Inc. (http://www.wso2.org) All Rights Reserved.
 *
 * WSO2 Inc. licenses this file to you under the Apache License,
 * Version 2.0 (the "License"); you may not use this file except
 * in compliance with the License.
 * You may obtain a copy of the License at
 *
 * http://www.apache.org/licenses/LICENSE-2.0
 *
 * Unless required by applicable law or agreed to in writing,
 * software distributed under the License is distributed on an
 * "AS IS" BASIS, WITHOUT WARRANTIES OR CONDITIONS OF ANY
 * KIND, either express or implied. See the License for the
 * specific language governing permissions and limitations
 * under the License.
-->

<svg version="1.1" id="rest-api" xmlns="http://www.w3.org/2000/svg" xmlns:xlink="http://www.w3.org/1999/xlink" x="0px" y="0px"
	 viewBox="0 0 14 14" enable-background="new 0 0 14 14" xml:space="preserve">
<path d="M2.376,7c0,0.26,0.211,0.471,0.471,0.471h0.761V6.529H2.847C2.587,6.529,2.376,6.74,2.376,7z M2.376,5.468
	c0,0.26,0.211,0.471,0.471,0.471h0.761V4.997H2.847C2.587,4.997,2.376,5.208,2.376,5.468z M11.625,5.468
	c0-0.26-0.211-0.47-0.471-0.47h-0.761v0.942h0.761C11.413,5.939,11.625,5.727,11.625,5.468z M4.997,11.153
	c0,0.26,0.211,0.471,0.471,0.471c0.26,0,0.471-0.211,0.471-0.471v-0.761H4.998L4.997,11.153L4.997,11.153z M2.376,8.532
	c0,0.261,0.211,0.472,0.471,0.472h0.761V8.062H2.847C2.587,8.062,2.376,8.271,2.376,8.532z M6.529,11.153
	c0,0.26,0.211,0.471,0.471,0.471s0.471-0.211,0.471-0.471v-0.761H6.529C6.529,10.392,6.529,11.153,6.529,11.153z M9.003,2.847
	c0-0.26-0.211-0.471-0.472-0.471c-0.26,0-0.47,0.211-0.47,0.471v0.761h0.942L9.003,2.847L9.003,2.847z M7.472,2.847
	c0-0.26-0.211-0.471-0.471-0.471S6.529,2.587,6.529,2.847v0.761h0.943C7.472,3.608,7.472,2.847,7.472,2.847z M5.939,2.847
	c0-0.26-0.211-0.471-0.471-0.471c-0.26,0-0.47,0.211-0.47,0.471v0.761h0.942V2.847z M11.154,8.062h-0.761v0.942h0.761
	c0.26,0,0.471-0.211,0.471-0.472C11.625,8.271,11.413,8.062,11.154,8.062z M9.449,4.06H4.551c-0.271,0-0.491,0.22-0.491,0.491v4.897
	c0,0.271,0.22,0.491,0.491,0.491h4.897c0.271,0,0.491-0.22,0.491-0.491V4.551C9.94,4.28,9.72,4.06,9.449,4.06z M6.124,7.926
	L5.968,7.409h-0.58L5.248,7.926H4.775l0.616-2.015h0.595l0.628,2.015H6.124z M8.149,7.002C7.993,7.146,7.76,7.214,7.491,7.214
	c-0.06,0-0.114-0.003-0.156-0.012v0.724H6.884V5.937C7.024,5.913,7.222,5.895,7.5,5.895c0.281,0,0.484,0.054,0.619,0.164
	c0.128,0.099,0.212,0.266,0.212,0.463C8.331,6.724,8.268,6.891,8.149,7.002z M9.079,7.926H8.625V5.911h0.454
	C9.079,5.911,9.079,7.926,9.079,7.926z M11.154,6.529h-0.761v0.942h0.761c0.26,0,0.471-0.211,0.471-0.471S11.413,6.529,11.154,6.529
	z M7.524,6.243c-0.092,0-0.155,0.006-0.188,0.015v0.595c0.039,0.009,0.087,0.012,0.153,0.012c0.242,0,0.392-0.122,0.392-0.326
	C7.88,6.353,7.754,6.243,7.524,6.243z M8.063,11.153L8.063,11.153c-0.001,0.26,0.21,0.471,0.47,0.471
	c0.26,0,0.471-0.211,0.471-0.471v-0.761H8.063L8.063,11.153L8.063,11.153z M5.676,6.252H5.667c-0.027,0.12-0.06,0.272-0.09,0.389
	L5.454,7.068H5.9L5.774,6.64C5.741,6.521,5.705,6.368,5.676,6.252z M0.003,6.8c0.731,0,0.833-0.401,0.833-0.762
	c0-0.288-0.041-0.576-0.082-0.864C0.713,4.886,0.672,4.608,0.672,4.32c0-0.947,0.617-1.348,1.492-1.348H2.38v0.566H2.195
	c-0.607,0-0.813,0.329-0.813,0.885c0,0.237,0.031,0.484,0.072,0.731C1.495,5.41,1.526,5.657,1.526,5.935
	c0.01,0.659-0.278,0.988-0.741,1.111v0.02C1.248,7.18,1.536,7.53,1.526,8.189c0,0.278-0.031,0.535-0.072,0.782
	C1.413,9.228,1.382,9.464,1.382,9.711c0,0.576,0.237,0.895,0.813,0.895H2.38v0.566H2.164c-0.854,0-1.492-0.371-1.492-1.41
	c0-0.278,0.041-0.566,0.082-0.844c0.041-0.278,0.082-0.556,0.082-0.833c0-0.319-0.103-0.762-0.833-0.762
	C0.003,7.324,0.003,6.8,0.003,6.8z M13.997,7.324c-0.731,0-0.833,0.443-0.833,0.762c0,0.278,0.041,0.555,0.082,0.833
	c0.041,0.278,0.082,0.566,0.082,0.844c0,1.039-0.648,1.41-1.492,1.41H11.62v-0.566h0.175c0.576-0.01,0.823-0.319,0.823-0.895
	c0-0.247-0.041-0.484-0.072-0.741c-0.041-0.247-0.082-0.504-0.082-0.782c0-0.659,0.288-1.009,0.741-1.122v-0.02
	c-0.453-0.123-0.741-0.453-0.741-1.111c0-0.278,0.041-0.525,0.082-0.782c0.031-0.247,0.072-0.494,0.072-0.731
	c0-0.556-0.216-0.875-0.813-0.885H11.62V2.972h0.206c0.874,0,1.502,0.401,1.502,1.348c0,0.288-0.041,0.566-0.082,0.854
	c-0.041,0.288-0.082,0.576-0.082,0.864c0,0.36,0.103,0.762,0.833,0.762V7.324z"/>
</svg>
