<?xml version="1.0" encoding="utf-8"?>

<!--
 * Copyright (c) 2015, WSO2 Inc. (http://www.wso2.org) All Rights Reserved.
 *
 * WSO2 Inc. licenses this file to you under the Apache License,
 * Version 2.0 (the "License"); you may not use this file except
 * in compliance with the License.
 * You may obtain a copy of the License at
 *
 * http://www.apache.org/licenses/LICENSE-2.0
 *
 * Unless required by applicable law or agreed to in writing,
 * software distributed under the License is distributed on an
 * "AS IS" BASIS, WITHOUT WARRANTIES OR CONDITIONS OF ANY
 * KIND, either express or implied. See the License for the
 * specific language governing permissions and limitations
 * under the License.
-->

<svg version="1.1" id="rest-service" xmlns="http://www.w3.org/2000/svg" xmlns:xlink="http://www.w3.org/1999/xlink" x="0px"
	 y="0px" viewBox="0 0 14 14" enable-background="new 0 0 14 14" xml:space="preserve">
<path d="M0.003,6.626c0.731,0,0.833-0.401,0.833-0.762c0-0.288-0.041-0.576-0.082-0.864C0.713,4.712,0.672,4.434,0.672,4.146
	c0-0.947,0.617-1.348,1.492-1.348H2.38v0.566H2.195c-0.607,0-0.813,0.329-0.813,0.885c0,0.237,0.031,0.484,0.072,0.731
	c0.041,0.257,0.072,0.504,0.072,0.782c0.01,0.659-0.278,0.988-0.741,1.111v0.02c0.463,0.113,0.751,0.463,0.741,1.122
	c0,0.278-0.031,0.535-0.072,0.782C1.413,9.054,1.382,9.291,1.382,9.538c0,0.576,0.237,0.895,0.813,0.895H2.38v0.566H2.164
	c-0.854,0-1.492-0.371-1.492-1.41c0-0.278,0.041-0.566,0.082-0.844C0.795,8.467,0.837,8.19,0.837,7.912
	c0-0.319-0.103-0.762-0.833-0.762C0.003,7.15,0.003,6.626,0.003,6.626z M13.997,7.15c-0.731,0-0.833,0.443-0.833,0.762
	c0,0.278,0.041,0.555,0.082,0.833c0.041,0.278,0.082,0.566,0.082,0.844c0,1.039-0.648,1.41-1.492,1.41H11.62v-0.566h0.175
	c0.576-0.01,0.823-0.319,0.823-0.895c0-0.247-0.041-0.484-0.072-0.741c-0.041-0.247-0.082-0.504-0.082-0.782
	c0-0.659,0.288-1.009,0.741-1.122v-0.02c-0.453-0.123-0.741-0.453-0.741-1.111c0-0.278,0.041-0.525,0.082-0.782
	c0.031-0.247,0.072-0.494,0.072-0.731c0-0.556-0.216-0.875-0.813-0.885H11.62V2.798h0.206c0.874,0,1.502,0.401,1.502,1.348
	c0,0.288-0.041,0.566-0.082,0.854c-0.041,0.288-0.082,0.576-0.082,0.864c0,0.36,0.103,0.762,0.833,0.762V7.15z M3.492,5.94
	c0.046,0.157,0.109,0.308,0.189,0.45L3.452,6.678C3.378,6.772,3.386,6.907,3.47,6.992l0.393,0.394
	c0.085,0.085,0.22,0.093,0.314,0.018l0.286-0.226c0.147,0.085,0.304,0.151,0.467,0.198l0.043,0.368
	c0.014,0.12,0.115,0.209,0.234,0.209h0.557c0.119,0,0.22-0.09,0.234-0.209l0.041-0.356c0.176-0.046,0.343-0.114,0.501-0.203
	l0.277,0.22C6.913,7.48,7.048,7.471,7.133,7.387l0.394-0.394C7.612,6.908,7.619,6.774,7.545,6.68L7.329,6.406
	c0.09-0.155,0.16-0.32,0.206-0.493l0.332-0.038c0.12-0.014,0.209-0.115,0.209-0.234V5.084c0-0.119-0.089-0.22-0.209-0.234
	L7.54,4.811C7.495,4.64,7.428,4.477,7.342,4.324l0.202-0.255C7.618,3.975,7.61,3.84,7.526,3.755L7.133,3.363
	C7.048,3.278,6.913,3.27,6.819,3.345L6.572,3.541C6.411,3.447,6.24,3.375,6.06,3.326l-0.037-0.32
	c-0.014-0.12-0.115-0.209-0.234-0.209H5.231c-0.12,0-0.22,0.09-0.234,0.209l-0.038,0.32C4.775,3.376,4.598,3.45,4.434,3.548
	L4.178,3.345C4.083,3.27,3.949,3.278,3.864,3.363L3.47,3.756C3.385,3.841,3.378,3.976,3.452,4.07l0.215,0.272
	c-0.086,0.155-0.151,0.32-0.194,0.492L3.129,4.873C3.01,4.887,2.92,4.987,2.92,5.107v0.557c0,0.12,0.09,0.22,0.209,0.234L3.492,5.94
	z M5.51,4.433c0.507,0,0.921,0.413,0.921,0.921c0,0.507-0.413,0.921-0.921,0.921c-0.508,0-0.921-0.414-0.921-0.921
	C4.589,4.846,5.002,4.433,5.51,4.433z M11.018,5.872l-0.294-0.248c-0.091-0.077-0.224-0.073-0.31,0.008l-0.163,0.152
	c-0.137-0.067-0.282-0.113-0.433-0.14L9.773,5.42c-0.024-0.115-0.13-0.196-0.248-0.186L9.141,5.266
	c-0.118,0.01-0.21,0.106-0.214,0.225L8.92,5.719C8.773,5.772,8.634,5.845,8.506,5.936L8.313,5.808
	c-0.099-0.066-0.23-0.047-0.307,0.044L7.757,6.147C7.68,6.238,7.684,6.371,7.765,6.457l0.17,0.181
	C7.876,6.771,7.834,6.91,7.81,7.053l-0.242,0.05c-0.116,0.023-0.196,0.13-0.187,0.248l0.032,0.383
	c0.01,0.118,0.106,0.21,0.225,0.214l0.262,0.008c0.048,0.125,0.11,0.243,0.186,0.354L7.94,8.532
	C7.874,8.631,7.893,8.763,7.984,8.839l0.294,0.248c0.09,0.077,0.224,0.072,0.31-0.008L8.78,8.899
	c0.126,0.059,0.258,0.103,0.395,0.129l0.053,0.263c0.024,0.116,0.131,0.196,0.248,0.187l0.383-0.033
	c0.117-0.01,0.21-0.106,0.214-0.225l0.008-0.257c0.14-0.05,0.273-0.117,0.395-0.2l0.212,0.14c0.099,0.065,0.231,0.047,0.307-0.043
	l0.248-0.295c0.077-0.09,0.073-0.223-0.008-0.309l-0.171-0.181c0.063-0.132,0.109-0.273,0.135-0.416l0.233-0.048
	c0.116-0.023,0.196-0.13,0.186-0.248l-0.032-0.384c-0.01-0.118-0.106-0.21-0.225-0.214l-0.234-0.008
	c-0.049-0.136-0.114-0.265-0.195-0.384L11.06,6.18C11.127,6.081,11.109,5.948,11.018,5.872z M9.572,8.089
	c-0.414,0.035-0.78-0.274-0.815-0.687C8.722,6.987,9.031,6.621,9.445,6.587c0.414-0.035,0.78,0.273,0.815,0.688
	C10.296,7.689,9.987,8.055,9.572,8.089z M4.833,9.122C4.716,9.134,4.625,9.233,4.624,9.351L4.621,9.587
	C4.62,9.706,4.707,9.807,4.825,9.821l0.174,0.023c0.029,0.105,0.07,0.206,0.123,0.301L5.01,10.283
	c-0.075,0.092-0.069,0.225,0.014,0.31l0.165,0.169c0.083,0.085,0.216,0.095,0.31,0.021l0.139-0.107
	c0.098,0.058,0.202,0.104,0.31,0.136l0.019,0.179c0.012,0.118,0.111,0.208,0.23,0.209l0.236,0.003
	c0.119,0.002,0.219-0.086,0.234-0.204l0.021-0.169c0.118-0.029,0.23-0.073,0.336-0.13l0.131,0.105
	c0.093,0.074,0.225,0.069,0.31-0.014l0.169-0.165c0.085-0.083,0.094-0.215,0.022-0.31l-0.1-0.129
	c0.062-0.103,0.109-0.212,0.142-0.327l0.155-0.016C7.969,9.831,8.06,9.732,8.061,9.614l0.003-0.236
	c0.002-0.118-0.086-0.22-0.203-0.234l-0.151-0.02C7.68,9.01,7.637,8.9,7.581,8.797l0.094-0.116c0.074-0.092,0.069-0.225-0.014-0.31
	L7.496,8.202C7.413,8.117,7.28,8.108,7.186,8.181L7.073,8.268c-0.106-0.064-0.22-0.114-0.34-0.148L6.719,7.974
	c-0.012-0.117-0.111-0.208-0.23-0.209L6.253,7.762C6.134,7.76,6.033,7.848,6.019,7.965L6,8.111c-0.123,0.031-0.241,0.08-0.352,0.144
	L5.531,8.159C5.439,8.084,5.306,8.09,5.221,8.173l-0.17,0.166C4.966,8.422,4.957,8.555,5.03,8.649l0.1,0.129
	C5.072,8.881,5.026,8.99,4.997,9.104L4.833,9.122z M6.357,8.854c0.339,0.004,0.61,0.283,0.606,0.622
	c-0.004,0.339-0.283,0.611-0.622,0.606C6.004,10.079,5.732,9.8,5.736,9.461C5.739,9.122,6.019,8.851,6.357,8.854z"/>
</svg>
