<?xml version="1.0" encoding="iso-8859-1"?>

<!--
 * Copyright (c) 2015, WSO2 Inc. (http://www.wso2.org) All Rights Reserved.
 *
 * WSO2 Inc. licenses this file to you under the Apache License,
 * Version 2.0 (the "License"); you may not use this file except
 * in compliance with the License.
 * You may obtain a copy of the License at
 *
 * http://www.apache.org/licenses/LICENSE-2.0
 *
 * Unless required by applicable law or agreed to in writing,
 * software distributed under the License is distributed on an
 * "AS IS" BASIS, WITHOUT WARRANTIES OR CONDITIONS OF ANY
 * KIND, either express or implied. See the License for the
 * specific language governing permissions and limitations
 * under the License.
-->

<!DOCTYPE svg PUBLIC "-//W3C//DTD SVG 1.1//EN" "http://www.w3.org/Graphics/SVG/1.1/DTD/svg11.dtd">
<svg version="1.1" xmlns="http://www.w3.org/2000/svg" xmlns:xlink="http://www.w3.org/1999/xlink" x="0px" y="0px" width="48px"
	 height="48px" viewBox="0 0 48 48" style="enable-background:new 0 0 48 48;" xml:space="preserve">
<g id="Rest_API">
	<g>
		<path d="M0.01,23.313c2.505,0,2.857-1.376,2.857-2.611c0-0.988-0.141-1.976-0.282-2.963s-0.282-1.94-0.282-2.928
			c0-3.246,2.117-4.622,5.116-4.622H8.16v1.94H7.524c-2.081,0-2.787,1.129-2.787,3.034c0,0.812,0.106,1.658,0.247,2.505
			c0.141,0.882,0.247,1.729,0.247,2.681c0.035,2.258-0.953,3.387-2.54,3.81v0.07c1.587,0.388,2.575,1.588,2.54,3.846
			c0,0.952-0.106,1.834-0.247,2.681c-0.141,0.882-0.247,1.693-0.247,2.54c0,1.976,0.812,3.069,2.787,3.069H8.16v1.94H7.419
			c-2.928,0-5.116-1.271-5.116-4.833c0-0.953,0.141-1.94,0.282-2.893c0.141-0.953,0.282-1.905,0.282-2.857
			c0-1.094-0.353-2.611-2.857-2.611V23.313z"/>
		<path d="M47.988,25.111c-2.505,0-2.857,1.518-2.857,2.611c0,0.952,0.141,1.904,0.282,2.857c0.141,0.952,0.282,1.939,0.282,2.893
			c0,3.563-2.223,4.833-5.115,4.833h-0.741v-1.94h0.6c1.976-0.035,2.822-1.094,2.822-3.069c0-0.847-0.141-1.658-0.247-2.54
			c-0.141-0.847-0.282-1.729-0.282-2.681c0-2.258,0.988-3.458,2.54-3.846v-0.07c-1.552-0.423-2.54-1.552-2.54-3.81
			c0-0.953,0.142-1.799,0.282-2.681c0.106-0.847,0.247-1.693,0.247-2.505c0-1.905-0.74-2.999-2.787-3.034h-0.635v-1.94h0.706
			c2.998,0,5.15,1.375,5.15,4.622c0,0.987-0.142,1.94-0.282,2.928c-0.142,0.988-0.282,1.976-0.282,2.963
			c0,1.235,0.353,2.611,2.857,2.611V25.111z"/>
	</g>
	<g id="API_1_">
		<path d="M8.145,24c0,0.892,0.724,1.615,1.616,1.615h2.609v-3.231H9.761C8.869,22.384,8.145,23.108,8.145,24
			z"/>
		<path d="M8.145,18.749c0,0.892,0.724,1.616,1.616,1.616h2.609v-3.232H9.761
			C8.869,17.133,8.145,17.857,8.145,18.749z"/>
		<path d="M39.855,18.746c0-0.893-0.725-1.613-1.615-1.613h-2.609v3.229h2.609
			C39.131,20.362,39.855,19.637,39.855,18.746z"/>
		<path d="M17.133,38.24c0,0.891,0.724,1.615,1.616,1.615c0.892,0,1.616-0.725,1.616-1.615v-2.609h-3.231
			V38.24z"/>
		<path d="M8.145,29.251c0,0.894,0.724,1.617,1.616,1.617h2.609V27.64H9.761
			C8.869,27.64,8.145,28.359,8.145,29.251z"/>
		<path d="M22.384,38.24c0,0.891,0.724,1.615,1.616,1.615s1.616-0.725,1.616-1.615v-2.609h-3.232V38.24z"/>
		<path d="M30.868,9.761c0-0.892-0.724-1.616-1.617-1.616c-0.892,0-1.611,0.724-1.611,1.616v2.609h3.229
			V9.761z"/>
		<path d="M25.616,9.761c0-0.892-0.724-1.616-1.616-1.616s-1.616,0.724-1.616,1.616v2.609h3.232V9.761z"/>
		<path d="M20.361,9.761c0-0.892-0.724-1.616-1.616-1.616c-0.893,0-1.613,0.724-1.613,1.616v2.609h3.229
			V9.761z"/>
		<path d="M38.24,27.64h-2.609v3.229h2.609c0.891,0,1.615-0.724,1.615-1.617
			C39.855,28.359,39.131,27.64,38.24,27.64z"/>
		<path d="M32.396,13.921H15.604c-0.929,0-1.683,0.754-1.683,1.683v16.791c0,0.929,0.754,1.683,1.683,1.683
			h16.791c0.929,0,1.683-0.754,1.683-1.683V15.604C34.078,14.676,33.324,13.921,32.396,13.921z M20.995,27.175l-0.533-1.773h-1.989
			l-0.482,1.773h-1.62l2.112-6.91h2.041l2.152,6.91H20.995z M27.938,24.007c-0.534,0.492-1.333,0.728-2.256,0.728
			c-0.205,0-0.39-0.01-0.534-0.042v2.481h-1.547v-6.818c0.482-0.082,1.158-0.143,2.112-0.143c0.964,0,1.661,0.185,2.123,0.563
			c0.44,0.338,0.727,0.913,0.727,1.589C28.563,23.054,28.348,23.627,27.938,24.007z M31.127,27.175H29.57v-6.91h1.557V27.175z"/>
		<path d="M38.24,22.384h-2.609v3.231h2.609c0.891,0,1.615-0.723,1.615-1.615S39.131,22.384,38.24,22.384z"/>
		<path d="M25.795,21.403c-0.317,0-0.533,0.021-0.646,0.051v2.041c0.134,0.03,0.299,0.041,0.523,0.041
			c0.83,0,1.343-0.42,1.343-1.117C27.015,21.782,26.585,21.403,25.795,21.403z"/>
		<path d="M27.643,38.24H27.64c0,0.891,0.723,1.615,1.615,1.615c0.892,0,1.615-0.725,1.615-1.615v-2.609
			h-3.228V38.24z"/>
		<path d="M19.458,21.434h-0.031c-0.092,0.41-0.206,0.933-0.308,1.333l-0.42,1.466h1.527l-0.431-1.466
			C19.683,22.357,19.56,21.834,19.458,21.434z"/>
	</g>
</g>
</svg>
