<?xml version="1.0" encoding="iso-8859-1"?>

<!--
 * Copyright (c) 2015, WSO2 Inc. (http://www.wso2.org) All Rights Reserved.
 *
 * WSO2 Inc. licenses this file to you under the Apache License,
 * Version 2.0 (the "License"); you may not use this file except
 * in compliance with the License.
 * You may obtain a copy of the License at
 *
 * http://www.apache.org/licenses/LICENSE-2.0
 *
 * Unless required by applicable law or agreed to in writing,
 * software distributed under the License is distributed on an
 * "AS IS" BASIS, WITHOUT WARRANTIES OR CONDITIONS OF ANY
 * KIND, either express or implied. See the License for the
 * specific language governing permissions and limitations
 * under the License.
-->

<!DOCTYPE svg PUBLIC "-//W3C//DTD SVG 1.1//EN" "http://www.w3.org/Graphics/SVG/1.1/DTD/svg11.dtd">
<svg version="1.1" xmlns="http://www.w3.org/2000/svg" xmlns:xlink="http://www.w3.org/1999/xlink" x="0px" y="0px" width="48px"
	 height="48px" viewBox="0 0 48 48" style="enable-background:new 0 0 48 48;" xml:space="preserve">
<g id="Rest_Service">
	<g>
		<path d="M0.01,23.313c2.505,0,2.857-1.376,2.857-2.611c0-0.988-0.141-1.976-0.282-2.963s-0.282-1.94-0.282-2.928
			c0-3.246,2.117-4.622,5.116-4.622H8.16v1.94H7.524c-2.081,0-2.787,1.129-2.787,3.034c0,0.812,0.106,1.658,0.247,2.505
			c0.141,0.882,0.247,1.729,0.247,2.681c0.035,2.258-0.953,3.387-2.54,3.81v0.07c1.587,0.388,2.575,1.588,2.54,3.846
			c0,0.952-0.106,1.834-0.247,2.681c-0.141,0.882-0.247,1.693-0.247,2.54c0,1.976,0.812,3.069,2.787,3.069H8.16v1.94H7.419
			c-2.928,0-5.116-1.271-5.116-4.833c0-0.953,0.141-1.94,0.282-2.893c0.141-0.953,0.282-1.905,0.282-2.857
			c0-1.094-0.353-2.611-2.857-2.611V23.313z"/>
		<path d="M47.988,25.111c-2.505,0-2.857,1.518-2.857,2.611c0,0.952,0.141,1.904,0.282,2.857c0.141,0.952,0.282,1.939,0.282,2.893
			c0,3.563-2.223,4.833-5.115,4.833h-0.741v-1.94h0.6c1.976-0.035,2.822-1.094,2.822-3.069c0-0.847-0.141-1.658-0.247-2.54
			c-0.141-0.847-0.282-1.729-0.282-2.681c0-2.258,0.988-3.458,2.54-3.846v-0.07c-1.552-0.423-2.54-1.552-2.54-3.81
			c0-0.953,0.142-1.799,0.282-2.681c0.106-0.847,0.247-1.693,0.247-2.505c0-1.905-0.74-2.999-2.787-3.034h-0.635v-1.94h0.706
			c2.998,0,5.15,1.375,5.15,4.622c0,0.987-0.142,1.94-0.282,2.928c-0.142,0.988-0.282,1.976-0.282,2.963
			c0,1.235,0.353,2.611,2.857,2.611V25.111z"/>
	</g>
	<path d="M11.97,20.961c0.157,0.538,0.374,1.056,0.649,1.542l-0.785,0.989
		c-0.255,0.323-0.227,0.783,0.062,1.075l1.349,1.351c0.292,0.291,0.753,0.318,1.076,0.061l0.982-0.775
		c0.505,0.29,1.042,0.517,1.602,0.678l0.147,1.263c0.048,0.41,0.395,0.718,0.803,0.718h1.911c0.409,0,0.755-0.308,0.802-0.718
		l0.142-1.219c0.602-0.157,1.177-0.39,1.718-0.695l0.951,0.754c0.323,0.255,0.784,0.226,1.075-0.062l1.35-1.352
		c0.292-0.291,0.317-0.752,0.063-1.074l-0.74-0.938c0.308-0.532,0.548-1.098,0.706-1.69l1.14-0.131
		c0.411-0.048,0.717-0.394,0.717-0.803v-1.91c0-0.409-0.306-0.755-0.717-0.803l-1.123-0.132c-0.153-0.585-0.385-1.145-0.679-1.67
		l0.691-0.874c0.257-0.323,0.228-0.784-0.061-1.075l-1.347-1.347c-0.291-0.291-0.752-0.317-1.075-0.061l-0.848,0.671
		c-0.55-0.322-1.139-0.569-1.756-0.735l-0.128-1.097c-0.048-0.41-0.393-0.717-0.803-0.717h-1.91c-0.41,0-0.755,0.307-0.803,0.717
		l-0.129,1.097c-0.632,0.17-1.237,0.426-1.801,0.762l-0.879-0.698c-0.323-0.256-0.785-0.228-1.076,0.061l-1.349,1.35
		c-0.292,0.291-0.317,0.752-0.062,1.075l0.736,0.931c-0.295,0.532-0.519,1.098-0.665,1.687l-1.178,0.134
		c-0.41,0.048-0.716,0.394-0.716,0.803v1.91c0,0.41,0.307,0.755,0.716,0.803L11.97,20.961z M18.891,15.794
		c1.74,0,3.157,1.417,3.157,3.158c0,1.74-1.417,3.158-3.157,3.158c-1.742,0-3.159-1.418-3.159-3.158
		C15.732,17.211,17.149,15.794,18.891,15.794z"/>
	<path d="M37.775,21.432l-1.008-0.852c-0.311-0.263-0.769-0.25-1.063,0.029l-0.558,0.522
		c-0.47-0.228-0.968-0.388-1.483-0.48l-0.157-0.768c-0.081-0.396-0.447-0.671-0.852-0.639l-1.314,0.111
		c-0.403,0.036-0.721,0.365-0.733,0.771l-0.024,0.781c-0.506,0.182-0.982,0.432-1.419,0.746l-0.665-0.441
		c-0.34-0.225-0.79-0.161-1.052,0.15l-0.853,1.014c-0.262,0.311-0.249,0.768,0.029,1.063l0.583,0.621
		c-0.202,0.455-0.347,0.932-0.43,1.422l-0.831,0.17c-0.397,0.079-0.673,0.447-0.64,0.852l0.111,1.313
		c0.036,0.403,0.365,0.72,0.771,0.734l0.9,0.027c0.163,0.429,0.377,0.834,0.636,1.215l-0.502,0.759
		c-0.225,0.339-0.16,0.791,0.151,1.053l1.007,0.852c0.31,0.264,0.769,0.248,1.063-0.027l0.659-0.619
		c0.432,0.203,0.886,0.352,1.354,0.441l0.182,0.903c0.081,0.396,0.448,0.672,0.852,0.64l1.314-0.112
		c0.402-0.036,0.721-0.364,0.734-0.772l0.027-0.882c0.479-0.17,0.935-0.4,1.354-0.685l0.726,0.479
		c0.339,0.224,0.791,0.161,1.053-0.148l0.851-1.011c0.264-0.31,0.25-0.766-0.028-1.061l-0.586-0.621
		c0.216-0.454,0.373-0.936,0.462-1.427l0.8-0.163c0.396-0.079,0.672-0.447,0.639-0.852l-0.111-1.315
		c-0.035-0.404-0.365-0.72-0.771-0.732l-0.802-0.026c-0.167-0.467-0.392-0.909-0.67-1.318l0.438-0.659
		C38.15,22.149,38.087,21.694,37.775,21.432z M32.818,29.035c-1.42,0.121-2.675-0.938-2.793-2.357
		c-0.121-1.421,0.938-2.676,2.358-2.795c1.42-0.121,2.675,0.937,2.793,2.36C35.299,27.663,34.24,28.916,32.818,29.035z"/>
	<path d="M16.57,32.574c-0.403,0.042-0.713,0.381-0.716,0.786l-0.01,0.81
		c-0.006,0.408,0.294,0.753,0.698,0.803l0.595,0.078c0.099,0.361,0.239,0.707,0.422,1.033l-0.384,0.473
		c-0.256,0.317-0.237,0.771,0.047,1.063l0.567,0.579c0.285,0.291,0.74,0.324,1.063,0.073l0.476-0.368
		c0.337,0.199,0.691,0.355,1.063,0.465l0.064,0.615c0.042,0.403,0.381,0.713,0.788,0.717l0.81,0.009
		c0.407,0.006,0.752-0.295,0.803-0.699l0.073-0.581c0.403-0.099,0.787-0.249,1.152-0.447l0.448,0.361
		c0.318,0.255,0.771,0.236,1.063-0.048l0.579-0.567c0.291-0.284,0.322-0.738,0.074-1.063l-0.343-0.443
		c0.211-0.354,0.373-0.726,0.486-1.121l0.53-0.055c0.403-0.041,0.714-0.38,0.718-0.786l0.009-0.81
		c0.007-0.405-0.295-0.753-0.697-0.803l-0.519-0.067c-0.1-0.391-0.246-0.768-0.438-1.119l0.323-0.397
		c0.255-0.317,0.236-0.771-0.049-1.063L25.7,29.422c-0.285-0.291-0.74-0.324-1.063-0.073l-0.387,0.297
		c-0.365-0.22-0.755-0.392-1.165-0.506l-0.051-0.502c-0.042-0.402-0.381-0.714-0.787-0.716l-0.81-0.011
		c-0.407-0.006-0.752,0.295-0.803,0.699l-0.065,0.498c-0.421,0.108-0.828,0.275-1.206,0.493l-0.399-0.326
		c-0.317-0.258-0.772-0.238-1.063,0.048l-0.583,0.569c-0.291,0.284-0.323,0.738-0.073,1.063l0.342,0.441
		c-0.198,0.352-0.355,0.726-0.457,1.119L16.57,32.574z M21.796,31.658c1.161,0.015,2.093,0.97,2.079,2.131
		c-0.013,1.161-0.969,2.094-2.131,2.079c-1.161-0.013-2.092-0.968-2.079-2.129C19.677,32.576,20.634,31.646,21.796,31.658z"/>
</g>
</svg>
