<?xml version="1.0" encoding="iso-8859-1"?>

<!--
 * Copyright (c) 2015, WSO2 Inc. (http://www.wso2.org) All Rights Reserved.
 *
 * WSO2 Inc. licenses this file to you under the Apache License,
 * Version 2.0 (the "License"); you may not use this file except
 * in compliance with the License.
 * You may obtain a copy of the License at
 *
 * http://www.apache.org/licenses/LICENSE-2.0
 *
 * Unless required by applicable law or agreed to in writing,
 * software distributed under the License is distributed on an
 * "AS IS" BASIS, WITHOUT WARRANTIES OR CONDITIONS OF ANY
 * KIND, either express or implied. See the License for the
 * specific language governing permissions and limitations
 * under the License.
-->

<!DOCTYPE svg PUBLIC "-//W3C//DTD SVG 1.1//EN" "http://www.w3.org/Graphics/SVG/1.1/DTD/svg11.dtd">
<svg version="1.1" xmlns="http://www.w3.org/2000/svg" xmlns:xlink="http://www.w3.org/1999/xlink" x="0px" y="0px" width="48px"
	 height="48px" viewBox="0 0 48 48" style="enable-background:new 0 0 48 48;" xml:space="preserve">
<g id="Rules">
	<path d="M41.49,0.375h-0.239L24,9L6.749,0.375h-0.24c-0.28,0-0.508,0.227-0.509,0.507v3.612l18,4.802l18-4.802v-3.61
		C42,0.603,41.771,0.375,41.49,0.375z"/>
	<path d="M29.968,19.388c-0.238,0.065-0.372,0.115-0.442,0.154v1.187l0.383-0.108
		c0.487-0.134,0.778-0.458,0.778-0.836C30.687,19.393,30.415,19.262,29.968,19.388z"/>
	<path d="M47.49,6.226l-21.48,5.756c-0.281,0.075-0.51,0.365-0.51,0.646v34.981
		c0,0.16,0.079,0.276,0.195,0.339l22.067-5.885C47.902,41.935,48,41.759,48,41.58V6.599C48,6.317,47.771,6.15,47.49,6.226z
		 M30.82,22.773c-0.065-0.104-0.175-0.427-0.296-0.925c-0.123-0.511-0.308-0.601-0.711-0.495l-0.288,0.08v1.698l-0.969,0.267v-4.256
		c0.313-0.145,0.776-0.312,1.301-0.456c0.642-0.178,1.091-0.205,1.397-0.04c0.264,0.132,0.403,0.393,0.403,0.792
		c0,0.544-0.391,1.03-0.763,1.269v0.02c0.302,0.038,0.47,0.274,0.578,0.641c0.135,0.457,0.262,0.985,0.345,1.129L30.82,22.773z
		 M35.848,19.484c0,1.334-0.673,2.155-1.801,2.467c-1.091,0.301-1.724-0.133-1.724-1.505v-2.411l0.975-0.269v2.481
		c0,0.75,0.288,1.049,0.782,0.912c0.512-0.141,0.794-0.58,0.794-1.348v-2.481l0.974-0.268V19.484z M39.391,20.403l-2.693,0.745
		v-4.321l0.976-0.269v3.5l1.718-0.476V20.403z M42.721,19.483l-2.75,0.759v-4.321l2.659-0.734v0.801l-1.685,0.465v0.898l1.588-0.439
		v0.794l-1.588,0.44v1.025l1.775-0.49V19.483z M44.442,19.078c-0.494,0.136-0.98,0.135-1.223,0.068l0.197-0.855
		c0.256,0.063,0.665,0.084,1.083-0.031c0.448-0.124,0.686-0.376,0.686-0.665c0-0.262-0.205-0.366-0.724-0.402
		c-0.718-0.057-1.192-0.323-1.192-0.958c0-0.737,0.622-1.467,1.634-1.747c0.495-0.137,0.846-0.137,1.104-0.087l-0.218,0.843
		c-0.168-0.038-0.48-0.073-0.897,0.042c-0.423,0.118-0.628,0.373-0.628,0.591c0,0.275,0.236,0.332,0.801,0.395
		c0.762,0.07,1.115,0.371,1.115,0.987C46.18,17.982,45.628,18.75,44.442,19.078z"/>
	<path d="M22.5,47.609c0,0.281-0.229,0.448-0.51,0.373L0.51,42.227C0.229,42.151,0,41.861,0,41.58V6.599
		c0-0.281,0.229-0.448,0.51-0.373l21.48,5.756c0.281,0.075,0.51,0.365,0.51,0.646V47.609z"/>
</g>
</svg>
