<?xml version="1.0" encoding="utf-8"?>

<!--
 * Copyright (c) 2015, WSO2 Inc. (http://www.wso2.org) All Rights Reserved.
 *
 * WSO2 Inc. licenses this file to you under the Apache License,
 * Version 2.0 (the "License"); you may not use this file except
 * in compliance with the License.
 * You may obtain a copy of the License at
 *
 * http://www.apache.org/licenses/LICENSE-2.0
 *
 * Unless required by applicable law or agreed to in writing,
 * software distributed under the License is distributed on an
 * "AS IS" BASIS, WITHOUT WARRANTIES OR CONDITIONS OF ANY
 * KIND, either express or implied. See the License for the
 * specific language governing permissions and limitations
 * under the License.
-->

<svg version="1.1" id="search" xmlns="http://www.w3.org/2000/svg" xmlns:xlink="http://www.w3.org/1999/xlink" x="0px" y="0px"
	 viewBox="0 0 14 14" enable-background="new 0 0 14 14" xml:space="preserve">
<path id="path1" d="M5.6,2C3.9,2,2.5,3.1,2.3,4.7c-0.2,1.6,1.1,3.1,3,3.3c1.8,0.2,3.4-1,3.6-2.7c0.2-1.6-1.1-3.1-3-3.3
	C5.8,2,5.7,2,5.6,2z M5.6,0c0.2,0,0.4,0,0.6,0c3.1,0.3,5.3,2.7,5,5.5c-0.1,1-0.5,1.8-1.2,2.6l3.7,4c0.5,0.5,0.4,1.3-0.2,1.7
	c-0.6,0.4-1.4,0.4-1.9-0.1l-3.8-4C7,9.9,6,10.1,5,10C1.9,9.7-0.3,7.2,0,4.5C0.3,1.9,2.7,0,5.6,0z"/>
</svg>
