<?xml version="1.0" encoding="utf-8"?>

<!--
 * Copyright (c) 2015, WSO2 Inc. (http://www.wso2.org) All Rights Reserved.
 *
 * WSO2 Inc. licenses this file to you under the Apache License,
 * Version 2.0 (the "License"); you may not use this file except
 * in compliance with the License.
 * You may obtain a copy of the License at
 *
 * http://www.apache.org/licenses/LICENSE-2.0
 *
 * Unless required by applicable law or agreed to in writing,
 * software distributed under the License is distributed on an
 * "AS IS" BASIS, WITHOUT WARRANTIES OR CONDITIONS OF ANY
 * KIND, either express or implied. See the License for the
 * specific language governing permissions and limitations
 * under the License.
-->

<svg version="1.1" id="sequence" xmlns="http://www.w3.org/2000/svg" xmlns:xlink="http://www.w3.org/1999/xlink" x="0px" y="0px"
	 viewBox="0 0 14 14" enable-background="new 0 0 14 14" xml:space="preserve">
<path d="M0.977,10.595c0,0.082-0.067,0.149-0.149,0.149H0.149C0.067,10.744,0,10.677,0,10.595V3.079C0,2.997,0.067,2.93,0.149,2.93
	h0.679c0.082,0,0.149,0.067,0.149,0.149V10.595z M2.279,10.27c0,0.082-0.067,0.149-0.149,0.149H1.451
	c-0.082,0-0.149-0.067-0.149-0.149V2.753c0-0.082,0.067-0.149,0.149-0.149H2.13c0.082,0,0.149,0.067,0.149,0.149V10.27z
	 M3.581,9.944c0,0.082-0.067,0.149-0.149,0.149H2.753c-0.082,0-0.149-0.067-0.149-0.149V2.428c0-0.082,0.067-0.149,0.149-0.149h0.68
	c0.082,0,0.149,0.067,0.149,0.149L3.581,9.944L3.581,9.944z M4.884,9.619c0,0.082-0.067,0.149-0.149,0.149H4.056
	c-0.082,0-0.149-0.067-0.149-0.149V2.102c0-0.082,0.067-0.149,0.149-0.149h0.679c0.082,0,0.149,0.067,0.149,0.149V9.619z
	 M6.186,9.944c0,0.082-0.067,0.149-0.149,0.149h-0.68c-0.082,0-0.149-0.067-0.149-0.149V2.428c0-0.082,0.067-0.149,0.149-0.149h0.68
	c0.082,0,0.149,0.067,0.149,0.149V9.944z M7.488,10.27c0,0.082-0.067,0.149-0.149,0.149H6.66c-0.082,0-0.149-0.067-0.149-0.149
	V2.753c0-0.082,0.067-0.149,0.149-0.149h0.679c0.082,0,0.149,0.067,0.149,0.149V10.27z M8.791,10.595
	c0,0.082-0.067,0.149-0.149,0.149H7.963c-0.082,0-0.149-0.067-0.149-0.149V3.079c0-0.082,0.067-0.149,0.149-0.149h0.679
	c0.082,0,0.149,0.067,0.149,0.149V10.595z M10.093,10.921c0,0.082-0.067,0.149-0.149,0.149H9.265c-0.082,0-0.149-0.067-0.149-0.149
	V3.404c0-0.082,0.067-0.149,0.149-0.149h0.679c0.082,0,0.149,0.067,0.149,0.149V10.921z M11.395,11.247
	c0,0.082-0.067,0.149-0.149,0.149h-0.679c-0.082,0-0.149-0.067-0.149-0.149V3.73c0-0.082,0.067-0.149,0.149-0.149h0.679
	c0.082,0,0.149,0.067,0.149,0.149C11.395,3.73,11.395,11.247,11.395,11.247z M12.698,11.572c0,0.082-0.067,0.149-0.149,0.149H11.87
	c-0.082,0-0.149-0.067-0.149-0.149V4.056c0-0.082,0.067-0.149,0.149-0.149h0.679c0.082,0,0.149,0.067,0.149,0.149V11.572z
	 M14,11.898c0,0.082-0.067,0.149-0.149,0.149h-0.679c-0.082,0-0.149-0.067-0.149-0.149V4.381c0-0.082,0.067-0.149,0.149-0.149h0.679
	C13.933,4.232,14,4.299,14,4.381V11.898z"/>
</svg>
