<?xml version="1.0" encoding="iso-8859-1"?>

<!--
 * Copyright (c) 2015, WSO2 Inc. (http://www.wso2.org) All Rights Reserved.
 *
 * WSO2 Inc. licenses this file to you under the Apache License,
 * Version 2.0 (the "License"); you may not use this file except
 * in compliance with the License.
 * You may obtain a copy of the License at
 *
 * http://www.apache.org/licenses/LICENSE-2.0
 *
 * Unless required by applicable law or agreed to in writing,
 * software distributed under the License is distributed on an
 * "AS IS" BASIS, WITHOUT WARRANTIES OR CONDITIONS OF ANY
 * KIND, either express or implied. See the License for the
 * specific language governing permissions and limitations
 * under the License.
-->

<!DOCTYPE svg PUBLIC "-//W3C//DTD SVG 1.1//EN" "http://www.w3.org/Graphics/SVG/1.1/DTD/svg11.dtd">
<svg version="1.1" xmlns="http://www.w3.org/2000/svg" xmlns:xlink="http://www.w3.org/1999/xlink" x="0px" y="0px" width="48px"
	 height="48px" viewBox="0 0 48 48" style="enable-background:new 0 0 48 48;" xml:space="preserve">
<g id="Service">
	<path d="M3.151,17.586c0.252,0.865,0.602,1.699,1.046,2.481l-1.263,1.592
		c-0.412,0.52-0.365,1.261,0.099,1.73l2.172,2.173c0.469,0.468,1.211,0.511,1.731,0.099l1.581-1.25
		c0.813,0.468,1.678,0.833,2.579,1.09l0.237,2.033c0.078,0.66,0.634,1.155,1.292,1.155H15.7c0.659,0,1.216-0.495,1.292-1.155
		l0.227-1.962c0.969-0.252,1.895-0.626,2.766-1.118l1.529,1.212c0.52,0.41,1.262,0.363,1.73-0.099l2.173-2.174
		c0.47-0.468,0.511-1.21,0.099-1.729l-1.189-1.509c0.494-0.856,0.881-1.767,1.137-2.72l1.832-0.21
		c0.662-0.078,1.155-0.634,1.155-1.292v-3.074c0-0.659-0.493-1.215-1.155-1.292l-1.806-0.212c-0.248-0.942-0.62-1.843-1.092-2.688
		l1.112-1.405c0.413-0.521,0.366-1.261-0.097-1.73l-2.168-2.168c-0.468-0.468-1.21-0.51-1.73-0.097l-1.365,1.081
		c-0.886-0.52-1.833-0.917-2.827-1.184l-0.207-1.766c-0.077-0.66-0.633-1.154-1.293-1.154H12.75c-0.659,0-1.215,0.494-1.293,1.154
		l-0.206,1.766c-1.019,0.273-1.992,0.686-2.899,1.226L6.937,3.266C6.417,2.853,5.674,2.9,5.205,3.363L3.033,5.537
		c-0.47,0.469-0.51,1.21-0.099,1.73l1.184,1.498c-0.474,0.855-0.833,1.767-1.07,2.714l-1.896,0.217C0.495,11.772,0,12.329,0,12.988
		v3.074c0,0.659,0.495,1.215,1.153,1.293L3.151,17.586z M14.29,9.27c2.801,0,5.082,2.282,5.082,5.083
		c0,2.801-2.281,5.083-5.082,5.083c-2.802,0-5.083-2.282-5.083-5.083C9.207,11.551,11.488,9.27,14.29,9.27z"/>
	<path d="M44.681,18.343l-1.622-1.37c-0.499-0.422-1.236-0.401-1.709,0.046l-0.897,0.84
		c-0.756-0.367-1.559-0.624-2.389-0.773l-0.252-1.236c-0.129-0.639-0.721-1.08-1.37-1.029L34.326,15
		c-0.65,0.058-1.16,0.587-1.18,1.242l-0.041,1.256c-0.813,0.293-1.58,0.694-2.283,1.199l-1.069-0.71
		c-0.548-0.361-1.272-0.258-1.693,0.242l-1.372,1.632c-0.42,0.5-0.4,1.236,0.048,1.71l0.938,0.999
		c-0.325,0.731-0.558,1.5-0.69,2.289l-1.338,0.271c-0.641,0.129-1.082,0.722-1.031,1.37l0.18,2.114
		c0.057,0.65,0.588,1.159,1.24,1.182l1.448,0.045c0.263,0.69,0.607,1.344,1.023,1.956l-0.809,1.221
		c-0.359,0.547-0.257,1.272,0.244,1.695l1.621,1.369c0.498,0.423,1.237,0.4,1.71-0.045l1.061-0.995
		c0.695,0.325,1.426,0.565,2.179,0.711l0.292,1.452c0.129,0.639,0.721,1.08,1.37,1.029l2.116-0.18
		c0.647-0.057,1.159-0.587,1.182-1.241l0.043-1.422c0.772-0.271,1.505-0.642,2.181-1.102l1.167,0.772
		c0.545,0.359,1.272,0.258,1.695-0.24l1.368-1.624c0.425-0.498,0.402-1.234-0.045-1.709l-0.942-1
		c0.346-0.73,0.599-1.503,0.742-2.296l1.287-0.263c0.638-0.127,1.081-0.72,1.028-1.37l-0.18-2.117
		c-0.056-0.649-0.588-1.158-1.241-1.178l-1.291-0.042c-0.269-0.752-0.63-1.462-1.078-2.122l0.706-1.061
		C45.284,19.497,45.183,18.765,44.681,18.343z M36.704,30.577c-2.286,0.197-4.306-1.508-4.496-3.793
		c-0.194-2.286,1.511-4.306,3.796-4.498c2.286-0.195,4.306,1.508,4.496,3.797C40.695,28.37,38.991,30.388,36.704,30.577z"/>
	<path d="M10.556,36.273c-0.649,0.067-1.148,0.613-1.152,1.268l-0.017,1.303
		c-0.01,0.655,0.474,1.211,1.123,1.293l0.958,0.122c0.16,0.583,0.386,1.139,0.68,1.666l-0.617,0.76
		c-0.413,0.511-0.382,1.24,0.076,1.711l0.912,0.932c0.459,0.468,1.19,0.52,1.71,0.118l0.767-0.593
		c0.541,0.318,1.112,0.572,1.71,0.746l0.103,0.989c0.067,0.65,0.612,1.148,1.268,1.155l1.302,0.014
		c0.654,0.011,1.209-0.474,1.292-1.124l0.119-0.936c0.649-0.159,1.266-0.4,1.854-0.722l0.72,0.582
		c0.512,0.413,1.241,0.38,1.709-0.077l0.933-0.911c0.469-0.458,0.519-1.189,0.12-1.709l-0.552-0.716
		c0.34-0.567,0.601-1.168,0.782-1.803l0.854-0.087c0.649-0.068,1.149-0.613,1.154-1.268l0.016-1.304
		c0.01-0.652-0.475-1.21-1.123-1.291l-0.835-0.106c-0.159-0.63-0.396-1.237-0.703-1.803l0.52-0.64
		c0.411-0.511,0.381-1.241-0.078-1.711l-0.91-0.933c-0.458-0.468-1.191-0.52-1.711-0.118l-0.623,0.48
		c-0.587-0.355-1.215-0.63-1.874-0.815l-0.083-0.809c-0.067-0.646-0.612-1.147-1.266-1.151l-1.303-0.017
		c-0.654-0.01-1.21,0.475-1.292,1.124l-0.104,0.801c-0.679,0.177-1.333,0.444-1.941,0.795l-0.644-0.524
		c-0.51-0.413-1.241-0.383-1.709,0.076l-0.938,0.917c-0.468,0.458-0.52,1.189-0.119,1.709l0.552,0.712
		c-0.319,0.564-0.572,1.168-0.737,1.802L10.556,36.273z M18.966,34.802c1.868,0.021,3.368,1.56,3.346,3.428
		c-0.021,1.87-1.56,3.37-3.429,3.348c-1.869-0.021-3.367-1.559-3.347-3.429C15.556,36.279,17.096,34.781,18.966,34.802z"/>
</g>
</svg>
