<?xml version="1.0" encoding="iso-8859-1"?>

<!--
 * Copyright (c) 2015, WSO2 Inc. (http://www.wso2.org) All Rights Reserved.
 *
 * WSO2 Inc. licenses this file to you under the Apache License,
 * Version 2.0 (the "License"); you may not use this file except
 * in compliance with the License.
 * You may obtain a copy of the License at
 *
 * http://www.apache.org/licenses/LICENSE-2.0
 *
 * Unless required by applicable law or agreed to in writing,
 * software distributed under the License is distributed on an
 * "AS IS" BASIS, WITHOUT WARRANTIES OR CONDITIONS OF ANY
 * KIND, either express or implied. See the License for the
 * specific language governing permissions and limitations
 * under the License.
-->

<!DOCTYPE svg PUBLIC "-//W3C//DTD SVG 1.1//EN" "http://www.w3.org/Graphics/SVG/1.1/DTD/svg11.dtd">
<svg version="1.1" xmlns="http://www.w3.org/2000/svg" xmlns:xlink="http://www.w3.org/1999/xlink" x="0px" y="0px" width="48px"
	 height="48px" viewBox="0 0 48 48" style="enable-background:new 0 0 48 48;" xml:space="preserve">
<g id="Service_Provider">
	<g id="Service_1_">
		<path d="M16.702,30.022c0.106,0.365,0.254,0.717,0.441,1.048l-0.533,0.672
			c-0.174,0.22-0.154,0.532,0.041,0.73l0.917,0.918c0.198,0.196,0.512,0.215,0.731,0.041l0.667-0.528
			c0.343,0.198,0.708,0.352,1.089,0.461l0.1,0.858c0.033,0.278,0.267,0.487,0.545,0.487H22c0.278,0,0.513-0.209,0.545-0.487
			l0.096-0.828c0.409-0.107,0.8-0.265,1.168-0.472l0.645,0.512c0.22,0.173,0.534,0.152,0.731-0.041l0.918-0.918
			c0.197-0.198,0.215-0.512,0.041-0.731l-0.502-0.637c0.207-0.362,0.371-0.746,0.479-1.148l0.775-0.089
			c0.279-0.033,0.486-0.268,0.486-0.545v-1.299c0-0.277-0.207-0.514-0.486-0.546l-0.764-0.089c-0.104-0.397-0.262-0.778-0.461-1.135
			l0.469-0.594c0.176-0.219,0.156-0.531-0.039-0.729l-0.916-0.916c-0.197-0.197-0.511-0.215-0.731-0.041l-0.576,0.456
			c-0.374-0.219-0.774-0.387-1.193-0.5l-0.087-0.745c-0.032-0.279-0.268-0.487-0.546-0.487h-1.297c-0.278,0-0.513,0.208-0.546,0.487
			l-0.087,0.745c-0.43,0.116-0.841,0.29-1.224,0.518L18.3,23.977c-0.22-0.174-0.533-0.154-0.731,0.041l-0.917,0.917
			c-0.198,0.197-0.215,0.511-0.041,0.73l0.5,0.632c-0.2,0.361-0.352,0.746-0.452,1.146l-0.8,0.091
			c-0.278,0.032-0.487,0.269-0.487,0.546v1.298c0,0.278,0.209,0.514,0.487,0.546L16.702,30.022z M21.405,26.512
			c1.183,0,2.146,0.963,2.146,2.146s-0.963,2.146-2.146,2.146c-1.183,0-2.146-0.963-2.146-2.146S20.222,26.512,21.405,26.512z"/>
		<path d="M34.236,30.343l-0.686-0.579c-0.211-0.178-0.521-0.169-0.721,0.021l-0.379,0.354
			c-0.32-0.154-0.658-0.263-1.008-0.326l-0.107-0.521c-0.055-0.27-0.305-0.456-0.578-0.435l-0.893,0.075
			c-0.275,0.024-0.49,0.248-0.5,0.524l-0.016,0.531c-0.344,0.123-0.668,0.293-0.965,0.506l-0.451-0.3
			c-0.232-0.152-0.537-0.109-0.715,0.102l-0.58,0.689c-0.178,0.211-0.168,0.521,0.021,0.723l0.395,0.421
			c-0.137,0.309-0.234,0.634-0.291,0.967l-0.564,0.114c-0.271,0.055-0.457,0.305-0.436,0.579l0.076,0.892
			c0.023,0.275,0.248,0.489,0.523,0.499l0.611,0.02c0.111,0.291,0.256,0.567,0.432,0.826l-0.34,0.515
			c-0.152,0.231-0.109,0.537,0.102,0.716l0.686,0.578c0.209,0.178,0.521,0.169,0.721-0.019l0.449-0.421
			c0.293,0.138,0.602,0.239,0.92,0.3l0.123,0.614c0.053,0.27,0.303,0.456,0.578,0.435l0.893-0.076c0.273-0.023,0.49-0.248,0.5-0.524
			l0.018-0.601c0.326-0.114,0.635-0.271,0.922-0.465l0.492,0.326c0.23,0.152,0.537,0.109,0.715-0.102l0.578-0.686
			c0.18-0.21,0.17-0.521-0.02-0.722l-0.396-0.422c0.145-0.309,0.252-0.635,0.313-0.97l0.543-0.11
			c0.27-0.054,0.457-0.304,0.436-0.579l-0.076-0.894c-0.023-0.274-0.248-0.488-0.525-0.497l-0.545-0.019
			c-0.113-0.317-0.266-0.616-0.455-0.896l0.299-0.447C34.49,30.829,34.447,30.52,34.236,30.343z M30.869,35.507
			c-0.967,0.084-1.818-0.636-1.898-1.601c-0.082-0.966,0.637-1.818,1.602-1.899c0.965-0.082,1.818,0.637,1.898,1.604
			C32.553,34.575,31.834,35.427,30.869,35.507z"/>
		<path d="M19.828,37.913c-0.274,0.027-0.485,0.259-0.486,0.535l-0.007,0.55
			c-0.004,0.276,0.2,0.511,0.474,0.546l0.404,0.051c0.067,0.246,0.163,0.481,0.287,0.704l-0.261,0.32
			c-0.174,0.216-0.161,0.523,0.032,0.723l0.385,0.394c0.194,0.197,0.502,0.219,0.722,0.05l0.324-0.251
			c0.228,0.135,0.469,0.242,0.722,0.315l0.043,0.418c0.028,0.274,0.258,0.484,0.535,0.487l0.549,0.006
			c0.276,0.005,0.511-0.2,0.546-0.475l0.05-0.395c0.274-0.067,0.535-0.17,0.783-0.305l0.304,0.245
			c0.217,0.175,0.525,0.16,0.723-0.032l0.393-0.385c0.199-0.193,0.221-0.502,0.053-0.722l-0.234-0.303
			c0.143-0.238,0.254-0.492,0.33-0.761l0.361-0.036c0.273-0.029,0.484-0.259,0.486-0.535l0.008-0.551
			c0.004-0.275-0.201-0.511-0.475-0.545l-0.354-0.045c-0.066-0.267-0.166-0.522-0.297-0.761l0.221-0.271
			c0.174-0.216,0.16-0.524-0.033-0.722l-0.385-0.395c-0.193-0.197-0.502-0.22-0.723-0.05l-0.263,0.203
			c-0.248-0.15-0.513-0.267-0.791-0.345l-0.035-0.341c-0.028-0.273-0.258-0.484-0.534-0.487l-0.55-0.006
			c-0.276-0.005-0.511,0.2-0.546,0.474l-0.043,0.339c-0.287,0.074-0.563,0.187-0.82,0.335l-0.271-0.222
			c-0.215-0.174-0.524-0.161-0.722,0.032l-0.396,0.388c-0.198,0.193-0.22,0.503-0.05,0.722l0.232,0.301
			c-0.134,0.238-0.241,0.493-0.311,0.761L19.828,37.913z M23.379,37.291c0.789,0.009,1.422,0.658,1.413,1.447
			c-0.009,0.789-0.659,1.423-1.448,1.414s-1.421-0.658-1.413-1.448C21.939,37.915,22.589,37.282,23.379,37.291z"/>
	</g>
	<path id="_x3C_Compound_Path_x3E__2_" d="M0.048,31.109C0.034,30.785,0,30.465,0,30.137
		C0,16.386,10.745,5.239,24,5.239c13.255,0,24,11.147,24,24.898c0,0.328-0.036,0.648-0.047,0.973
		C47.454,17.816,36.938,7.189,24,7.189C11.061,7.189,0.545,17.816,0.048,31.109z M24,16.237c8.088,0,14.682,6.556,15.16,14.819
		c0.018-0.318,0.047-0.635,0.047-0.957c0-8.714-6.808-15.775-15.207-15.775S8.793,21.385,8.793,30.1
		c0,0.322,0.029,0.639,0.046,0.957C9.319,22.793,15.912,16.237,24,16.237z"/>
</g>
</svg>
