<?xml version="1.0" encoding="iso-8859-1"?>

<!--
 * Copyright (c) 2015, WSO2 Inc. (http://www.wso2.org) All Rights Reserved.
 *
 * WSO2 Inc. licenses this file to you under the Apache License,
 * Version 2.0 (the "License"); you may not use this file except
 * in compliance with the License.
 * You may obtain a copy of the License at
 *
 * http://www.apache.org/licenses/LICENSE-2.0
 *
 * Unless required by applicable law or agreed to in writing,
 * software distributed under the License is distributed on an
 * "AS IS" BASIS, WITHOUT WARRANTIES OR CONDITIONS OF ANY
 * KIND, either express or implied. See the License for the
 * specific language governing permissions and limitations
 * under the License.
-->

<!DOCTYPE svg PUBLIC "-//W3C//DTD SVG 1.1//EN" "http://www.w3.org/Graphics/SVG/1.1/DTD/svg11.dtd">
<svg version="1.1" xmlns="http://www.w3.org/2000/svg" xmlns:xlink="http://www.w3.org/1999/xlink" x="0px" y="0px" width="48px"
	 height="48px" viewBox="0 0 48 48" style="enable-background:new 0 0 48 48;" xml:space="preserve">
<g id="Site">
	<path d="M40.971,7.029C36.467,2.532,30.484,0.038,24.119,0h-0.238C10.642,0.07-0.07,10.891,0,24.119
		C0.07,37.309,10.82,48,24,48c0.044,0,0.086,0,0.119,0c6.413-0.038,12.429-2.565,16.938-7.117
		c4.508-4.556,6.975-10.598,6.943-17.002C47.962,17.516,45.467,11.533,40.971,7.029z M40.133,9.595
		c-1.657,1.097-3.391,1.998-5.188,2.721c-1.188-2.803-2.796-5.441-4.821-7.839c-0.47-0.563-0.961-1.102-1.479-1.63
		C33.151,3.844,37.146,6.253,40.133,9.595z M25.171,2.376c0.022,0,0.044,0,0.06,0.005l-0.06,0.07V2.376z M25.171,2.797
		c1.135,0.978,2.204,2.052,3.165,3.191c1.836,2.176,3.315,4.573,4.4,7.116c-2.468,0.776-5.011,1.209-7.565,1.312V2.797z
		 M22.829,2.376v0.075l-0.06-0.075C22.785,2.376,22.807,2.376,22.829,2.376z M22.829,2.797v11.619
		c-2.555-0.103-5.098-0.535-7.565-1.312C16.933,9.174,19.496,5.653,22.829,2.797z M19.356,2.847
		c-2.705,2.752-4.833,5.966-6.301,9.469c-1.803-0.729-3.542-1.636-5.205-2.731C10.836,6.253,14.827,3.84,19.356,2.847z
		 M7.851,38.416c1.63-1.08,3.353-1.981,5.119-2.699c1.193,2.878,2.834,5.589,4.907,8.034c0.379,0.459,0.784,0.906,1.194,1.339
		C14.665,44.064,10.771,41.683,7.851,38.416z M22.829,45.435c-1.135-0.972-2.204-2.041-3.169-3.186
		c-1.885-2.234-3.391-4.707-4.482-7.332c2.489-0.782,5.064-1.225,7.651-1.333V45.435z M25.171,45.435V33.584
		c2.587,0.108,5.162,0.551,7.651,1.333C31.159,38.934,28.562,42.53,25.171,45.435z M39.393,39.237
		c-2.914,2.942-6.522,4.944-10.464,5.858c2.625-2.743,4.678-5.918,6.102-9.379c1.771,0.718,3.488,1.625,5.124,2.704
		C39.911,38.696,39.652,38.972,39.393,39.237z M41.629,36.586c-1.847-1.23-3.786-2.258-5.794-3.073
		c0.365-1.132,0.661-2.291,0.893-3.472h-2.396c-0.194,0.907-0.425,1.804-0.706,2.68c-2.747-0.882-5.593-1.378-8.455-1.475v-1.205
		h-2.342v1.205c-2.862,0.103-5.708,0.593-8.461,1.479c-0.284-0.881-0.507-1.778-0.702-2.684h-2.392
		c0.231,1.177,0.517,2.34,0.886,3.478c-2.003,0.81-3.937,1.831-5.772,3.067c-2.332-3.251-3.79-7.171-4.011-11.415h1.541v-2.342
		H2.376c0.221-4.239,1.679-8.158,4.011-11.415c1.858,1.252,3.818,2.283,5.848,3.1c-0.374,1.122-0.681,2.272-0.92,3.445h2.403
		c0.2-0.898,0.434-1.787,0.719-2.658c2.733,0.864,5.557,1.356,8.392,1.452v1.206h2.342v-1.206c2.835-0.096,5.659-0.588,8.397-1.452
		c0.287,0.872,0.516,1.761,0.716,2.658h2.395c-0.239-1.167-0.531-2.322-0.908-3.451c2.019-0.805,3.979-1.836,5.83-3.082
		c2.334,3.255,3.802,7.169,4.023,11.403h-1.541v2.342h1.541C45.408,29.318,44.026,33.249,41.629,36.586z"/>
	<g id="WWW">
		<path d="M8.544,28.661l-2.131-8.979h2.171l0.679,3.69c0.2,1.079,0.387,2.238,0.533,3.158h0.026
			c0.146-0.986,0.36-2.065,0.586-3.184l0.759-3.664h2.158l0.719,3.783c0.2,1.053,0.347,2.012,0.479,3.011h0.027
			c0.133-0.999,0.333-2.051,0.52-3.13l0.733-3.664h2.064l-2.318,8.979h-2.198l-0.759-3.863c-0.173-0.906-0.32-1.745-0.426-2.771
			h-0.027c-0.16,1.012-0.306,1.865-0.52,2.771l-0.853,3.863H8.544z"/>
		<path d="M20.374,28.661l-2.131-8.979h2.171l0.679,3.69c0.2,1.079,0.387,2.238,0.533,3.158h0.026
			c0.146-0.986,0.36-2.065,0.586-3.184l0.759-3.664h2.158l0.72,3.783c0.199,1.053,0.346,2.012,0.479,3.011h0.026
			c0.133-0.999,0.333-2.051,0.52-3.13l0.732-3.664h2.065l-2.318,8.979h-2.198l-0.759-3.863c-0.173-0.906-0.32-1.745-0.426-2.771
			h-0.027c-0.16,1.012-0.306,1.865-0.52,2.771l-0.853,3.863H20.374z"/>
		<path d="M32.204,28.661l-2.131-8.979h2.171l0.68,3.69c0.199,1.079,0.386,2.238,0.532,3.158h0.027
			c0.146-0.986,0.359-2.065,0.586-3.184l0.759-3.664h2.158l0.72,3.783c0.199,1.053,0.346,2.012,0.479,3.011h0.026
			c0.133-0.999,0.333-2.051,0.52-3.13l0.732-3.664h2.065l-2.318,8.979h-2.198l-0.759-3.863c-0.173-0.906-0.32-1.745-0.427-2.771
			h-0.026c-0.16,1.012-0.307,1.865-0.52,2.771l-0.853,3.863H32.204z"/>
	</g>
</g>
</svg>
