<?xml version="1.0" encoding="iso-8859-1"?>

<!--
 * Copyright (c) 2015, WSO2 Inc. (http://www.wso2.org) All Rights Reserved.
 *
 * WSO2 Inc. licenses this file to you under the Apache License,
 * Version 2.0 (the "License"); you may not use this file except
 * in compliance with the License.
 * You may obtain a copy of the License at
 *
 * http://www.apache.org/licenses/LICENSE-2.0
 *
 * Unless required by applicable law or agreed to in writing,
 * software distributed under the License is distributed on an
 * "AS IS" BASIS, WITHOUT WARRANTIES OR CONDITIONS OF ANY
 * KIND, either express or implied. See the License for the
 * specific language governing permissions and limitations
 * under the License.
-->

<!DOCTYPE svg PUBLIC "-//W3C//DTD SVG 1.1//EN" "http://www.w3.org/Graphics/SVG/1.1/DTD/svg11.dtd">
<svg version="1.1" xmlns="http://www.w3.org/2000/svg" xmlns:xlink="http://www.w3.org/1999/xlink" x="0px" y="0px" width="48px"
	 height="48px" viewBox="0 0 48 48" style="enable-background:new 0 0 48 48;" xml:space="preserve">
<g id="SOAP">
	<g id="XML_2_">
		<polygon points="0.001,17.865 16.406,25.441 16.406,21.827 3.992,16.431 3.992,16.365 16.406,10.942 
			16.406,7.324 0.001,14.935 		"/>
		<polygon points="18.901,26.803 22.348,26.803 29.644,2.074 26.2,2.074 		"/>
		<polygon points="31.593,7.324 31.593,10.942 44.285,16.365 44.285,16.431 31.593,21.856 31.593,25.441 
			47.999,17.971 47.999,14.828 		"/>
	</g>
	<g id="SOAP_Service">
		<path d="M28.545,33.889H28.5c-0.129,0.574-0.287,1.309-0.431,1.868l-0.589,2.058h2.143l-0.605-2.058
			C28.861,35.182,28.687,34.449,28.545,33.889z"/>
		<path d="M37.43,33.846c-0.446,0-0.748,0.028-0.905,0.07v2.861c0.187,0.043,0.417,0.059,0.733,0.059
			c1.164,0,1.883-0.59,1.883-1.568C39.141,34.377,38.537,33.846,37.43,33.846z"/>
		<path d="M19.168,33.83c-1.509,0-2.356,1.467-2.356,3.278c0,1.827,0.877,3.251,2.343,3.251h0.014
			c1.481,0,2.331-1.395,2.331-3.294C21.499,35.326,20.679,33.83,19.168,33.83z"/>
		<path d="M45.989,28.223H2.01c-1.111,0-2.01,0.9-2.01,2.01v13.684c0,1.111,0.899,2.01,2.01,2.01h43.979
			c1.11,0,2.011-0.898,2.011-2.01V30.232C48,29.123,47.1,28.223,45.989,28.223z M9.564,42.098c-1.106,0-2.2-0.301-2.746-0.604
			l0.446-1.797C7.839,40,8.759,40.301,9.693,40.301c1.008,0,1.539-0.416,1.539-1.064c0-0.588-0.46-0.947-1.624-1.352
			c-1.611-0.574-2.675-1.466-2.675-2.889c0-1.654,1.394-2.906,3.666-2.906c1.108,0,1.898,0.217,2.474,0.489l-0.489,1.755
			c-0.375-0.187-1.078-0.46-2.014-0.46c-0.948,0-1.409,0.446-1.409,0.935c0,0.617,0.532,0.891,1.798,1.38
			c1.711,0.632,2.501,1.524,2.501,2.905C13.461,40.719,12.225,42.098,9.564,42.098z M19.083,42.098h-0.015
			c-2.861,0-4.558-2.17-4.558-4.932c0-2.904,1.87-5.076,4.716-5.076c2.976,0,4.602,2.23,4.602,4.903
			C23.828,40.186,21.915,42.098,19.083,42.098z M30.701,41.941l-0.748-2.488h-2.789l-0.677,2.488h-2.271l2.961-9.693h2.862
			l3.02,9.693H30.701z M40.435,37.498c-0.748,0.689-1.87,1.02-3.164,1.02c-0.287,0-0.547-0.014-0.746-0.057v3.48h-2.172v-9.563
			c0.675-0.115,1.625-0.201,2.962-0.201c1.351,0,2.328,0.259,2.976,0.791c0.619,0.475,1.021,1.28,1.021,2.229
			C41.312,36.16,41.01,36.965,40.435,37.498z"/>
	</g>
</g>
</svg>
