<?xml version="1.0" encoding="iso-8859-1"?>

<!--
 * Copyright (c) 2015, WSO2 Inc. (http://www.wso2.org) All Rights Reserved.
 *
 * WSO2 Inc. licenses this file to you under the Apache License,
 * Version 2.0 (the "License"); you may not use this file except
 * in compliance with the License.
 * You may obtain a copy of the License at
 *
 * http://www.apache.org/licenses/LICENSE-2.0
 *
 * Unless required by applicable law or agreed to in writing,
 * software distributed under the License is distributed on an
 * "AS IS" BASIS, WITHOUT WARRANTIES OR CONDITIONS OF ANY
 * KIND, either express or implied. See the License for the
 * specific language governing permissions and limitations
 * under the License.
-->

<!DOCTYPE svg PUBLIC "-//W3C//DTD SVG 1.1//EN" "http://www.w3.org/Graphics/SVG/1.1/DTD/svg11.dtd">
<svg version="1.1" xmlns="http://www.w3.org/2000/svg" xmlns:xlink="http://www.w3.org/1999/xlink" x="0px" y="0px" width="48px"
	 height="48px" viewBox="0 0 48 48" style="enable-background:new 0 0 48 48;" xml:space="preserve">
<g id="Swagger">
	<path d="M21.658,0.119c5.407-0.551,10.988,0.822,15.521,3.825c3.518,2.299,6.392,5.55,8.277,9.301
		c1.8,3.594,2.679,7.646,2.529,11.661c-0.189,4.732-1.79,9.408-4.594,13.229c-2.938,4.037-7.159,7.13-11.914,8.665
		c-4.441,1.473-9.311,1.593-13.819,0.347c-4.666-1.263-8.921-3.992-12.024-7.695c-2.922-3.458-4.831-7.759-5.419-12.249
		c-0.791-5.743,0.595-11.764,3.846-16.566C7.966,4.737,14.608,0.755,21.658,0.119z M13.877,12.528
		c-1.174,0.753-1.458,2.242-1.519,3.536c-0.301,1.839,0.277,3.829-0.59,5.559c-0.427,0.804-1.387,0.917-2.199,0.979
		c-0.024,0.934-0.023,1.868,0,2.802c0.853-0.017,1.853,0.238,2.252,1.077c0.776,1.675,0.258,3.564,0.524,5.331
		c0.087,1.255,0.261,2.706,1.338,3.527c1.141,0.864,2.652,0.768,4.005,0.758c0-0.823-0.001-1.646,0-2.469
		c-0.779-0.008-1.793,0.096-2.299-0.628c-0.518-1.489-0.263-3.097-0.34-4.64c-0.13-0.96-0.256-1.954-0.75-2.809
		c-0.349-0.656-0.914-1.167-1.54-1.555c0.534-0.341,1.05-0.743,1.384-1.292c0.611-0.895,0.771-1.989,0.902-3.038
		c0.084-1.545-0.174-3.15,0.333-4.643c0.483-0.779,1.527-0.61,2.309-0.623c-0.001-0.822-0.001-1.645,0-2.468
		C16.406,11.941,15.002,11.769,13.877,12.528z M30.327,11.931c-0.021,0.824-0.019,1.647-0.002,2.47
		c0.674,0.023,1.438-0.122,2.02,0.309c0.394,0.251,0.438,0.758,0.483,1.177c0.317,2.005-0.168,4.121,0.632,6.045
		c0.326,0.889,1.007,1.588,1.798,2.087c-0.943,0.502-1.626,1.412-1.938,2.425c-0.611,1.852-0.182,3.821-0.499,5.716
		c-0.053,0.418-0.099,0.914-0.495,1.159c-0.606,0.35-1.329,0.313-2.005,0.309c-0.008,0.823-0.015,1.646,0.007,2.469
		c1.348,0.012,2.843,0.101,3.987-0.744c1.146-0.906,1.305-2.505,1.323-3.862c0.141-1.629-0.136-3.349,0.487-4.9
		c0.344-0.902,1.393-1.199,2.271-1.187c-0.001-0.937-0.001-1.872,0-2.809c-0.606-0.09-1.297-0.065-1.784-0.498
		c-0.502-0.445-0.656-1.139-0.794-1.765c-0.204-1.701-0.093-3.418-0.254-5.121c-0.154-1.049-0.542-2.186-1.521-2.738
		C32.926,11.777,31.576,11.943,30.327,11.931z M17.543,22.462c-1.012,0.358-1.367,1.773-0.672,2.582
		c0.425,0.604,1.242,0.669,1.906,0.509c0.92-0.32,1.371-1.55,0.838-2.376C19.236,22.46,18.285,22.135,17.543,22.462z M23.309,22.488
		c-0.421,0.166-0.743,0.537-0.879,0.966c-0.41,0.974,0.434,2.252,1.509,2.165c0.924,0.126,1.811-0.761,1.677-1.685
		C25.697,22.797,24.298,21.969,23.309,22.488z M29.204,22.455c-0.575,0.241-1.065,0.827-1.018,1.479
		c-0.106,0.907,0.731,1.801,1.653,1.686c1.162,0.124,2.073-1.324,1.491-2.323C31.004,22.501,29.986,22.121,29.204,22.455z"/>
</g>
</svg>
