<?xml version="1.0" encoding="utf-8"?>

<!--
 * Copyright (c) 2015, WSO2 Inc. (http://www.wso2.org) All Rights Reserved.
 *
 * WSO2 Inc. licenses this file to you under the Apache License,
 * Version 2.0 (the "License"); you may not use this file except
 * in compliance with the License.
 * You may obtain a copy of the License at
 *
 * http://www.apache.org/licenses/LICENSE-2.0
 *
 * Unless required by applicable law or agreed to in writing,
 * software distributed under the License is distributed on an
 * "AS IS" BASIS, WITHOUT WARRANTIES OR CONDITIONS OF ANY
 * KIND, either express or implied. See the License for the
 * specific language governing permissions and limitations
 * under the License.
-->

<svg version="1.1" id="swagger" xmlns="http://www.w3.org/2000/svg" xmlns:xlink="http://www.w3.org/1999/xlink" x="0px" y="0px"
	 viewBox="17 17 14 14" enable-background="new 17 17 14 14" xml:space="preserve">
<path d="M23.317,17.035c1.577-0.161,3.205,0.24,4.527,1.116c1.026,0.671,1.864,1.619,2.414,2.713
	c0.525,1.048,0.781,2.23,0.738,3.401c-0.055,1.38-0.522,2.744-1.34,3.858c-0.857,1.177-2.088,2.08-3.475,2.527
	c-1.295,0.43-2.716,0.465-4.03,0.101c-1.361-0.368-2.602-1.164-3.507-2.244c-0.852-1.009-1.409-2.263-1.581-3.573
	c-0.231-1.675,0.174-3.431,1.122-4.832C19.323,18.382,21.26,17.22,23.317,17.035z M21.047,20.654
	c-0.342,0.22-0.425,0.654-0.443,1.031c-0.088,0.536,0.081,1.117-0.172,1.621c-0.125,0.234-0.405,0.267-0.641,0.286
	c-0.007,0.272-0.007,0.545,0,0.817c0.249-0.005,0.54,0.069,0.657,0.314c0.226,0.489,0.075,1.039,0.153,1.555
	c0.025,0.366,0.076,0.789,0.39,1.029c0.333,0.252,0.773,0.224,1.168,0.221c0-0.24,0-0.48,0-0.72
	c-0.227-0.002-0.523,0.028-0.671-0.183c-0.151-0.434-0.077-0.903-0.099-1.353c-0.038-0.28-0.075-0.57-0.219-0.819
	c-0.102-0.191-0.267-0.34-0.449-0.454c0.156-0.099,0.306-0.217,0.404-0.377c0.178-0.261,0.225-0.58,0.263-0.886
	c0.024-0.451-0.051-0.919,0.097-1.354c0.141-0.227,0.445-0.178,0.673-0.182c0-0.24,0-0.48,0-0.72
	C21.785,20.483,21.375,20.433,21.047,20.654z M25.845,20.48c-0.006,0.24-0.006,0.48-0.001,0.72c0.197,0.007,0.419-0.036,0.589,0.09
	c0.115,0.073,0.128,0.221,0.141,0.343c0.092,0.585-0.049,1.202,0.184,1.763c0.095,0.259,0.294,0.463,0.524,0.609
	c-0.275,0.146-0.474,0.412-0.565,0.707c-0.178,0.54-0.053,1.114-0.146,1.667c-0.015,0.122-0.029,0.267-0.144,0.338
	c-0.177,0.102-0.388,0.091-0.585,0.09c-0.002,0.24-0.004,0.48,0.002,0.72c0.393,0.003,0.829,0.029,1.163-0.217
	c0.334-0.264,0.381-0.731,0.386-1.126c0.041-0.475-0.04-0.977,0.142-1.429c0.1-0.263,0.406-0.35,0.662-0.346
	c0-0.273,0-0.546,0-0.819c-0.177-0.026-0.378-0.019-0.52-0.145c-0.146-0.13-0.191-0.332-0.232-0.515
	c-0.059-0.496-0.027-0.997-0.074-1.494c-0.045-0.306-0.158-0.638-0.444-0.799C26.603,20.435,26.209,20.484,25.845,20.48z
	 M22.116,23.552c-0.295,0.104-0.399,0.517-0.196,0.753c0.124,0.176,0.362,0.195,0.556,0.148c0.268-0.093,0.4-0.452,0.244-0.693
	C22.61,23.551,22.333,23.456,22.116,23.552z M23.798,23.559c-0.123,0.048-0.217,0.157-0.256,0.282
	c-0.12,0.284,0.127,0.657,0.44,0.631c0.269,0.037,0.528-0.222,0.489-0.491C24.495,23.649,24.087,23.408,23.798,23.559z
	 M25.517,23.55c-0.168,0.07-0.311,0.241-0.297,0.431c-0.031,0.265,0.213,0.525,0.482,0.492c0.339,0.036,0.605-0.386,0.435-0.678
	C26.042,23.563,25.746,23.452,25.517,23.55z"/>
</svg>
