<?xml version="1.0" encoding="utf-8"?>

<!--
 * Copyright (c) 2015, WSO2 Inc. (http://www.wso2.org) All Rights Reserved.
 *
 * WSO2 Inc. licenses this file to you under the Apache License,
 * Version 2.0 (the "License"); you may not use this file except
 * in compliance with the License.
 * You may obtain a copy of the License at
 *
 * http://www.apache.org/licenses/LICENSE-2.0
 *
 * Unless required by applicable law or agreed to in writing,
 * software distributed under the License is distributed on an
 * "AS IS" BASIS, WITHOUT WARRANTIES OR CONDITIONS OF ANY
 * KIND, either express or implied. See the License for the
 * specific language governing permissions and limitations
 * under the License.
-->

<svg version="1.1" id="throttling-policy" xmlns="http://www.w3.org/2000/svg" xmlns:xlink="http://www.w3.org/1999/xlink" x="0px"
	 y="0px" viewBox="23.019 17 11.282 14" enable-background="new 23.019 17 11.282 14" xml:space="preserve">
<path d="M31.665,17.002h-0.454L31.209,17v0.002h-5.317c-0.337,0-0.611,0.274-0.611,0.611v7.615c0.116-0.017,0.234-0.029,0.354-0.033
	v-7.583c0-0.141,0.115-0.256,0.257-0.256h5.317v2.022c0,0.322,0.261,0.584,0.583,0.584h2.154v8.285c0,0.141-0.115,0.257-0.256,0.257
	h-4.873c-0.009,0.12-0.023,0.239-0.045,0.355h4.919c0.337,0,0.611-0.274,0.611-0.611v-8.718L31.665,17.002z M32.924,27.325H31.56
	v-1.429h1.065l0.306-0.321h-1.676v2.071h1.975v-1.326l-0.306,0.321V27.325z M31.896,26.327l-0.216,0.227l0.52,0.545l1.299-1.362
	l-0.216-0.227l-1.083,1.136L31.896,26.327z M30.923,21.273h-4.243v-0.53h4.243V21.273z M29.332,22.334h-2.652v-0.53h2.652V22.334z
	 M30.923,23.925h-4.243v-0.531h4.243V23.925z M29.863,24.986h-3.182v-0.53h3.182V24.986z M30.923,24.72
	c0,0.147-0.119,0.265-0.265,0.265c-0.148,0-0.266-0.118-0.266-0.265c0-0.147,0.118-0.265,0.266-0.265
	C30.804,24.455,30.923,24.574,30.923,24.72z M25.741,25.555c-1.501,0-2.722,1.222-2.722,2.722c0,1.501,1.221,2.723,2.722,2.723
	c1.501,0,2.722-1.222,2.722-2.723C28.463,26.776,27.242,25.555,25.741,25.555z M27.54,27.502c0.026,0.079-0.018,0.165-0.099,0.19
	l-0.417,0.133c-0.015,0.005-0.031,0.007-0.046,0.007c-0.064,0-0.124-0.041-0.145-0.106c-0.025-0.08,0.019-0.165,0.099-0.19
	l0.417-0.133C27.429,27.377,27.514,27.421,27.54,27.502z M23.942,27.464c0.026-0.08,0.111-0.124,0.191-0.099l0.417,0.133
	c0.08,0.025,0.124,0.111,0.099,0.19c-0.02,0.064-0.08,0.106-0.144,0.106c-0.015,0-0.03-0.002-0.046-0.007l-0.417-0.132
	C23.961,27.629,23.917,27.543,23.942,27.464z M24.656,28.429h-0.72c-0.084,0-0.152-0.068-0.152-0.152s0.068-0.152,0.152-0.152h0.72
	c0.084,0,0.152,0.068,0.152,0.152C24.807,28.361,24.74,28.429,24.656,28.429z M24.986,27.371c-0.03,0.029-0.068,0.044-0.107,0.044
	c-0.039,0-0.078-0.015-0.108-0.044L24.401,27c-0.059-0.059-0.059-0.155,0-0.214c0.059-0.059,0.155-0.059,0.214,0l0.37,0.37
	C25.045,27.215,25.045,27.311,24.986,27.371z M25.33,27.029c-0.022,0.011-0.045,0.016-0.067,0.016c-0.055,0-0.109-0.03-0.136-0.084
	l-0.199-0.398c-0.037-0.075-0.007-0.166,0.068-0.204c0.075-0.037,0.166-0.007,0.204,0.068l0.199,0.398
	C25.436,26.9,25.405,26.992,25.33,27.029z M25.898,28.866c0,0.084-0.068,0.152-0.152,0.152s-0.152-0.068-0.152-0.152v-2.551
	c0-0.083,0.067-0.151,0.152-0.151c0.084,0,0.152,0.068,0.152,0.151V28.866L25.898,28.866z M26.22,27.083
	c-0.023,0-0.046-0.005-0.068-0.016c-0.075-0.038-0.105-0.129-0.067-0.204l0.199-0.398c0.038-0.075,0.129-0.105,0.204-0.067
	c0.075,0.037,0.106,0.128,0.068,0.203l-0.199,0.398C26.329,27.052,26.276,27.083,26.22,27.083z M26.497,27.408
	c-0.059-0.059-0.059-0.155,0-0.214l0.37-0.37c0.059-0.059,0.155-0.059,0.215,0c0.059,0.059,0.059,0.155,0,0.214l-0.37,0.37
	c-0.029,0.029-0.068,0.044-0.107,0.044S26.526,27.438,26.497,27.408z M27.547,28.467h-0.721c-0.083,0-0.152-0.067-0.152-0.151
	s0.068-0.152,0.152-0.152h0.721c0.084,0,0.152,0.068,0.152,0.152S27.631,28.467,27.547,28.467z"/>
</svg>
