<?xml version="1.0" encoding="iso-8859-1"?>

<!--
 * Copyright (c) 2015, WSO2 Inc. (http://www.wso2.org) All Rights Reserved.
 *
 * WSO2 Inc. licenses this file to you under the Apache License,
 * Version 2.0 (the "License"); you may not use this file except
 * in compliance with the License.
 * You may obtain a copy of the License at
 *
 * http://www.apache.org/licenses/LICENSE-2.0
 *
 * Unless required by applicable law or agreed to in writing,
 * software distributed under the License is distributed on an
 * "AS IS" BASIS, WITHOUT WARRANTIES OR CONDITIONS OF ANY
 * KIND, either express or implied. See the License for the
 * specific language governing permissions and limitations
 * under the License.
-->

<!DOCTYPE svg PUBLIC "-//W3C//DTD SVG 1.1//EN" "http://www.w3.org/Graphics/SVG/1.1/DTD/svg11.dtd">
<svg version="1.1" xmlns="http://www.w3.org/2000/svg" xmlns:xlink="http://www.w3.org/1999/xlink" x="0px" y="0px" width="48px"
	 height="48px" viewBox="0 0 48 48" style="enable-background:new 0 0 48 48;" xml:space="preserve">
<g id="Throttling_Policy">
	<g id="Policy_4_">
		<path d="M34.303,0.007h-1.555L32.74,0v0.007H14.509c-1.155,0-2.095,0.939-2.095,2.095v26.11
			c0.399-0.06,0.804-0.099,1.215-0.112V2.102c0-0.484,0.395-0.879,0.88-0.879H32.74v6.934c0,1.104,0.896,2.001,2,2.001h7.385v28.405
			c0,0.485-0.395,0.88-0.879,0.88H24.537c-0.03,0.412-0.079,0.818-0.155,1.216h16.864c1.154,0,2.094-0.94,2.094-2.096V8.672
			L34.303,0.007z"/>
		<g>
			<polygon points="38.618,35.4 33.943,35.4 33.943,30.502 37.593,30.502 38.642,29.402 32.895,29.402 
				32.895,36.501 39.667,36.501 39.667,31.956 38.618,33.056 			"/>
			<polygon points="35.094,31.98 34.352,32.757 36.134,34.624 40.587,29.953 39.847,29.175 36.134,33.069 			
				"/>
		</g>
		<g>
			<polygon style="fill:#060507;" points="31.76,14.651 17.214,14.651 17.214,12.833 31.76,12.833 			"/>
			<polygon style="fill:#060507;" points="26.305,18.288 17.214,18.288 17.214,16.47 26.305,16.47 			"/>
			<polygon style="fill:#060507;" points="31.76,23.743 17.214,23.743 17.214,21.924 31.76,21.924 			"/>
			<polygon style="fill:#060507;" points="28.124,27.379 17.214,27.379 17.214,25.561 28.124,25.561 			"/>
			<path style="fill:#060507;" d="M31.76,26.47c0,0.503-0.408,0.909-0.909,0.909c-0.506,0-0.912-0.406-0.912-0.909
				s0.406-0.909,0.912-0.909C31.352,25.561,31.76,25.967,31.76,26.47z"/>
		</g>
	</g>
	<path d="M13.993,29.331c-5.147,0-9.333,4.188-9.333,9.334C4.66,43.813,8.846,48,13.993,48
		c5.146,0,9.333-4.188,9.333-9.335C23.326,33.519,19.139,29.331,13.993,29.331z M20.159,36.007c0.088,0.271-0.063,0.564-0.338,0.652
		l-1.429,0.455c-0.053,0.018-0.105,0.024-0.158,0.024c-0.22,0-0.425-0.142-0.497-0.363c-0.086-0.273,0.064-0.565,0.339-0.653
		l1.429-0.455C19.779,35.579,20.072,35.73,20.159,36.007z M7.825,35.876c0.088-0.274,0.38-0.426,0.654-0.34l1.431,0.457
		c0.273,0.087,0.426,0.38,0.338,0.652c-0.07,0.221-0.275,0.363-0.495,0.363c-0.053,0-0.104-0.008-0.159-0.025l-1.428-0.454
		C7.889,36.442,7.738,36.149,7.825,35.876z M10.271,39.186h-2.47c-0.287,0-0.521-0.233-0.521-0.521s0.233-0.521,0.521-0.521h2.47
		c0.287,0,0.521,0.233,0.521,0.521C10.791,38.952,10.559,39.186,10.271,39.186z M11.403,35.556
		c-0.102,0.101-0.234,0.151-0.367,0.151c-0.134,0-0.267-0.051-0.369-0.151l-1.268-1.269c-0.204-0.202-0.204-0.531,0-0.734
		c0.203-0.203,0.532-0.203,0.735,0l1.268,1.267C11.606,35.022,11.606,35.353,11.403,35.556z M12.583,34.386
		c-0.074,0.037-0.153,0.054-0.231,0.054c-0.19,0-0.374-0.104-0.466-0.287l-0.683-1.364c-0.128-0.257-0.023-0.569,0.232-0.698
		c0.258-0.127,0.569-0.024,0.698,0.233l0.683,1.363C12.945,33.943,12.84,34.257,12.583,34.386z M14.531,40.682
		c0,0.287-0.233,0.52-0.521,0.52c-0.288,0-0.52-0.232-0.52-0.52v-8.745c0-0.286,0.231-0.519,0.52-0.519
		c0.287,0,0.521,0.232,0.521,0.519V40.682L14.531,40.682z M15.634,34.57c-0.079,0-0.158-0.018-0.234-0.055
		c-0.256-0.129-0.359-0.441-0.231-0.698l0.681-1.365c0.13-0.256,0.442-0.36,0.699-0.231c0.257,0.128,0.362,0.44,0.232,0.697
		l-0.683,1.365C16.008,34.465,15.825,34.57,15.634,34.57z M16.583,35.686c-0.203-0.204-0.203-0.533,0-0.735l1.268-1.268
		c0.204-0.204,0.533-0.204,0.736,0s0.203,0.532,0,0.735l-1.269,1.268c-0.101,0.101-0.233,0.151-0.366,0.151
		S16.684,35.787,16.583,35.686z M20.185,39.314h-2.471c-0.286,0-0.52-0.231-0.52-0.519c0-0.288,0.233-0.521,0.52-0.521h2.471
		c0.289,0,0.521,0.233,0.521,0.521C20.706,39.083,20.473,39.314,20.185,39.314z"/>
</g>
</svg>
