<?xml version="1.0" encoding="iso-8859-1"?>

<!--
 * Copyright (c) 2015, WSO2 Inc. (http://www.wso2.org) All Rights Reserved.
 *
 * WSO2 Inc. licenses this file to you under the Apache License,
 * Version 2.0 (the "License"); you may not use this file except
 * in compliance with the License.
 * You may obtain a copy of the License at
 *
 * http://www.apache.org/licenses/LICENSE-2.0
 *
 * Unless required by applicable law or agreed to in writing,
 * software distributed under the License is distributed on an
 * "AS IS" BASIS, WITHOUT WARRANTIES OR CONDITIONS OF ANY
 * KIND, either express or implied. See the License for the
 * specific language governing permissions and limitations
 * under the License.
-->

<!DOCTYPE svg PUBLIC "-//W3C//DTD SVG 1.1//EN" "http://www.w3.org/Graphics/SVG/1.1/DTD/svg11.dtd">
<svg version="1.1" xmlns="http://www.w3.org/2000/svg" xmlns:xlink="http://www.w3.org/1999/xlink" x="0px" y="0px" width="48px"
	 height="48px" viewBox="0 0 48 48" style="enable-background:new 0 0 48 48;" xml:space="preserve">
<g id="WADL">
	<path id="Doc_7_" d="M31.583,0.018h-1.836L29.738,0.01v0.008H8.225c-1.363,0-2.473,1.109-2.473,2.473v43.027
		c0,1.363,1.109,2.473,2.473,2.473h31.551c1.363,0,2.473-1.109,2.473-2.473V10.243L31.583,0.018z M39.775,46.556H8.225
		c-0.573,0-1.038-0.466-1.038-1.038V2.49c0-0.571,0.465-1.038,1.038-1.038h21.514v8.184c0,1.302,1.06,2.361,2.361,2.361h8.714
		v33.521C40.813,46.09,40.348,46.556,39.775,46.556z"/>
	<g id="Markup_4_">
		<polygon points="23.502,40.906 28.351,43.146 28.351,42.077 24.682,40.482 24.682,40.463 28.351,38.86 
			28.351,37.791 23.502,40.04 		"/>
		<polygon points="29.088,43.548 30.106,43.548 32.263,36.239 31.245,36.239 		"/>
		<polygon points="32.839,37.791 32.839,38.86 36.59,40.463 36.59,40.482 32.839,42.086 32.839,43.146 
			37.688,40.938 37.688,40.009 		"/>
	</g>
	<g id="WADL_1_">
		<path d="M21.533,22.118h-0.038c-0.112,0.502-0.251,1.143-0.377,1.632l-0.515,1.796h1.871l-0.527-1.796
			C21.81,23.248,21.658,22.607,21.533,22.118z"/>
		<path d="M29.381,22.092c-0.415,0-0.703,0.039-0.867,0.075v5.538c0.164,0.038,0.44,0.038,0.666,0.038
			c1.745,0.012,2.887-0.942,2.887-2.964C32.066,22.959,31.037,22.092,29.381,22.092z"/>
		<path d="M43.202,17.17H4.797c-0.97,0-1.755,0.787-1.755,1.756v11.948c0,0.971,0.785,1.756,1.755,1.756
			h38.405c0.97,0,1.756-0.785,1.756-1.756V18.926C44.958,17.957,44.172,17.17,43.202,17.17z M13.799,29.149l-0.716-3.642
			c-0.163-0.854-0.302-1.645-0.402-2.612h-0.024c-0.151,0.955-0.289,1.757-0.49,2.612l-0.803,3.642H9.267l-2.01-8.463h2.047
			l0.641,3.479c0.188,1.017,0.363,2.109,0.502,2.976h0.025c0.138-0.93,0.339-1.946,0.553-3.001l0.715-3.454h2.034l0.679,3.566
			c0.188,0.992,0.326,1.896,0.451,2.837h0.025c0.126-0.941,0.314-1.934,0.49-2.95l0.689-3.454h1.947l-2.185,8.463H13.799z
			 M23.417,29.149l-0.653-2.173h-2.437l-0.589,2.173h-1.984l2.586-8.463h2.499l2.638,8.463H23.417z M32.695,28.145
			c-0.892,0.741-2.261,1.093-3.917,1.093c-0.993,0-1.708-0.063-2.173-0.126v-8.299c0.703-0.126,1.62-0.189,2.574-0.189
			c1.619,0,2.674,0.264,3.478,0.879c0.88,0.653,1.431,1.708,1.431,3.214C34.088,26.337,33.498,27.454,32.695,28.145z M40.63,29.149
			h-5.273v-8.463h1.909v6.856h3.364V29.149z"/>
	</g>
</g>
</svg>
