<?xml version="1.0" encoding="utf-8"?>

<!--
 * Copyright (c) 2015, WSO2 Inc. (http://www.wso2.org) All Rights Reserved.
 *
 * WSO2 Inc. licenses this file to you under the Apache License,
 * Version 2.0 (the "License"); you may not use this file except
 * in compliance with the License.
 * You may obtain a copy of the License at
 *
 * http://www.apache.org/licenses/LICENSE-2.0
 *
 * Unless required by applicable law or agreed to in writing,
 * software distributed under the License is distributed on an
 * "AS IS" BASIS, WITHOUT WARRANTIES OR CONDITIONS OF ANY
 * KIND, either express or implied. See the License for the
 * specific language governing permissions and limitations
 * under the License.
-->

<svg version="1.1" id="wadl" xmlns="http://www.w3.org/2000/svg" xmlns:xlink="http://www.w3.org/1999/xlink" x="0px" y="0px"
	 viewBox="23.969 17 12.23 14" enable-background="new 23.969 17 12.23 14" xml:space="preserve">
<path d="M31.354,29.275l-1.071-0.465v-0.006l1.071-0.468v-0.312l-1.415,0.656v0.253l1.415,0.654
	C31.354,29.587,31.354,29.275,31.354,29.275z M32.495,27.571h-0.297l-0.629,2.133h0.297L32.495,27.571z M34.078,28.671l-1.415-0.647
	v0.312l1.094,0.468v0.006l-1.094,0.468v0.309l1.415-0.644V28.671z M29.485,23.927c-0.04-0.146-0.084-0.334-0.121-0.476h-0.011
	c-0.033,0.146-0.073,0.334-0.11,0.476l-0.15,0.524h0.546L29.485,23.927z M31.654,23.444c-0.121,0-0.205,0.011-0.253,0.022v1.616
	c0.048,0.011,0.128,0.011,0.194,0.011c0.509,0.004,0.842-0.275,0.842-0.865C32.438,23.697,32.137,23.444,31.654,23.444z
	 M35.687,22.007h-0.278v-2.021l-3.112-2.983h-0.536L31.758,17v0.002h-6.277c-0.398,0-0.722,0.324-0.722,0.722v4.283h-0.279
	c-0.283,0-0.512,0.23-0.512,0.512v3.486c0,0.283,0.229,0.512,0.512,0.512h0.279v3.76c0,0.398,0.324,0.722,0.722,0.722h9.206
	c0.398,0,0.722-0.324,0.722-0.722v-3.76h0.278c0.283,0,0.512-0.229,0.512-0.512V22.52C36.199,22.237,35.97,22.007,35.687,22.007z
	 M25.178,17.724c0-0.167,0.136-0.303,0.303-0.303h6.277v2.388c0,0.38,0.309,0.689,0.689,0.689h2.543v1.509h-9.812V17.724z
	 M34.936,25.034v0.469h-1.539v-2.469h0.557v2H34.936z M33.028,24.21c0,0.473-0.172,0.799-0.406,1
	c-0.26,0.216-0.66,0.319-1.143,0.319c-0.29,0-0.498-0.018-0.634-0.037V23.07c0.205-0.037,0.473-0.055,0.751-0.055
	c0.472,0,0.78,0.077,1.015,0.256C32.867,23.462,33.028,23.77,33.028,24.21z M29.016,23.033h0.729l0.77,2.469h-0.601l-0.191-0.634
	h-0.711l-0.172,0.634h-0.579L29.016,23.033z M27.712,25.502h-0.604v0l-0.209-1.063c-0.048-0.249-0.088-0.48-0.117-0.762h-0.007
	c-0.044,0.279-0.084,0.513-0.143,0.762l-0.234,1.063h-0.612l-0.586-2.469h0.597l0.187,1.015c0.055,0.297,0.106,0.615,0.146,0.868
	h0.007c0.04-0.271,0.099-0.568,0.161-0.876l0.209-1.008H27.1l0.198,1.04c0.055,0.289,0.095,0.553,0.132,0.828h0.007
	c0.037-0.275,0.092-0.564,0.143-0.861l0.201-1.008h0.568L27.712,25.502z M34.99,30.279c0,0.167-0.136,0.303-0.303,0.303h-9.206
	c-0.167,0-0.303-0.136-0.303-0.303v-3.76h9.812C34.99,26.518,34.99,30.279,34.99,30.279z"/>
</svg>
