<?xml version="1.0" encoding="utf-8"?>

<!--
 * Copyright (c) 2015, WSO2 Inc. (http://www.wso2.org) All Rights Reserved.
 *
 * WSO2 Inc. licenses this file to you under the Apache License,
 * Version 2.0 (the "License"); you may not use this file except
 * in compliance with the License.
 * You may obtain a copy of the License at
 *
 * http://www.apache.org/licenses/LICENSE-2.0
 *
 * Unless required by applicable law or agreed to in writing,
 * software distributed under the License is distributed on an
 * "AS IS" BASIS, WITHOUT WARRANTIES OR CONDITIONS OF ANY
 * KIND, either express or implied. See the License for the
 * specific language governing permissions and limitations
 * under the License.
-->

<svg version="1.1" id="website" xmlns="http://www.w3.org/2000/svg" xmlns:xlink="http://www.w3.org/1999/xlink" x="0px" y="0px"
	 viewBox="17 17 14 14" enable-background="new 17 17 14 14" xml:space="preserve">
<path d="M28.95,19.05c-1.314-1.312-3.059-2.039-4.915-2.05h-0.069c-3.861,0.02-6.986,3.177-6.965,7.035
	C17.02,27.882,20.156,31,24,31c0.013,0,0.025,0,0.035,0c1.87-0.011,3.625-0.748,4.94-2.076c1.315-1.329,2.034-3.091,2.025-4.959
	C30.989,22.109,30.261,20.364,28.95,19.05z M28.705,19.799c-0.483,0.32-0.989,0.583-1.513,0.794
	c-0.346-0.818-0.816-1.587-1.406-2.286c-0.137-0.164-0.28-0.321-0.431-0.475C26.669,18.121,27.834,18.824,28.705,19.799z
	 M24.342,17.693c0.006,0,0.013,0,0.017,0.001l-0.017,0.02V17.693z M24.342,17.816c0.331,0.285,0.643,0.598,0.923,0.931
	c0.536,0.635,0.967,1.334,1.283,2.076c-0.72,0.226-1.462,0.353-2.206,0.383V17.816z M23.658,17.693v0.022l-0.017-0.022
	C23.646,17.693,23.652,17.693,23.658,17.693z M23.658,17.816v3.389c-0.745-0.03-1.487-0.156-2.206-0.383
	C21.939,19.676,22.686,18.649,23.658,17.816z M22.645,17.83c-0.789,0.803-1.41,1.74-1.838,2.762
	c-0.526-0.213-1.033-0.477-1.518-0.797C20.16,18.824,21.325,18.12,22.645,17.83z M19.29,28.205c0.475-0.315,0.978-0.578,1.493-0.787
	c0.348,0.839,0.827,1.63,1.431,2.343c0.111,0.134,0.229,0.264,0.348,0.391C21.277,29.852,20.142,29.158,19.29,28.205z
	 M23.658,30.252c-0.331-0.283-0.643-0.595-0.924-0.929c-0.55-0.652-0.989-1.373-1.307-2.139c0.726-0.228,1.477-0.357,2.232-0.389
	C23.658,26.795,23.658,30.252,23.658,30.252z M24.342,30.252v-3.457c0.755,0.031,1.506,0.161,2.232,0.389
	C26.088,28.356,25.331,29.405,24.342,30.252z M28.49,28.444c-0.85,0.858-1.902,1.442-3.052,1.709c0.766-0.8,1.364-1.726,1.78-2.736
	c0.517,0.209,1.017,0.474,1.494,0.789C28.641,28.286,28.565,28.367,28.49,28.444z M29.142,27.671
	c-0.539-0.359-1.104-0.659-1.69-0.896c0.106-0.33,0.193-0.668,0.26-1.013h-0.699c-0.057,0.265-0.124,0.526-0.206,0.782
	c-0.801-0.257-1.631-0.402-2.466-0.43v-0.351h-0.683v0.351c-0.835,0.03-1.665,0.173-2.468,0.431
	c-0.083-0.257-0.148-0.519-0.205-0.783h-0.698c0.067,0.343,0.151,0.683,0.258,1.014c-0.584,0.236-1.148,0.534-1.684,0.895
	c-0.68-0.948-1.105-2.092-1.17-3.329h0.449v-0.683h-0.45c0.064-1.236,0.49-2.379,1.17-3.329c0.542,0.365,1.114,0.666,1.706,0.904
	c-0.109,0.327-0.199,0.663-0.268,1.005h0.701c0.058-0.262,0.127-0.521,0.21-0.775c0.797,0.252,1.621,0.396,2.448,0.424v0.352h0.683
	v-0.352c0.827-0.028,1.651-0.171,2.449-0.424c0.084,0.254,0.15,0.514,0.209,0.775h0.699c-0.07-0.34-0.155-0.677-0.265-1.007
	c0.589-0.235,1.161-0.536,1.7-0.899c0.681,0.949,1.109,2.091,1.173,3.326h-0.449v0.683h0.449
	C30.244,25.551,29.841,26.698,29.142,27.671z M19.492,25.359l-0.622-2.619h0.633l0.198,1.076c0.058,0.315,0.113,0.653,0.155,0.921
	h0.008c0.043-0.288,0.105-0.602,0.171-0.929l0.221-1.069h0.629l0.21,1.103c0.058,0.307,0.101,0.587,0.14,0.878h0.008
	c0.039-0.291,0.097-0.598,0.152-0.913l0.214-1.069h0.602l-0.676,2.619h-0.641l-0.221-1.127c-0.05-0.264-0.093-0.509-0.124-0.808
	h-0.008c-0.047,0.295-0.089,0.544-0.152,0.808l-0.249,1.127H19.492z M22.942,25.359l-0.622-2.619h0.633l0.198,1.076
	c0.058,0.315,0.113,0.653,0.155,0.921h0.008c0.043-0.288,0.105-0.602,0.171-0.929l0.221-1.069h0.629l0.21,1.103
	c0.058,0.307,0.101,0.587,0.14,0.878h0.008c0.039-0.291,0.097-0.598,0.152-0.913l0.214-1.069h0.602l-0.676,2.619h-0.641
	l-0.221-1.127c-0.05-0.264-0.093-0.509-0.124-0.808h-0.008c-0.047,0.295-0.089,0.544-0.152,0.808l-0.249,1.127H22.942z
	 M26.393,25.359l-0.622-2.619h0.633l0.198,1.076c0.058,0.315,0.113,0.653,0.155,0.921h0.008c0.043-0.288,0.105-0.602,0.171-0.929
	l0.221-1.069h0.629l0.21,1.103c0.058,0.307,0.101,0.587,0.14,0.878h0.008c0.039-0.291,0.097-0.598,0.152-0.913l0.213-1.069h0.602
	l-0.676,2.619h-0.641l-0.221-1.127c-0.05-0.264-0.093-0.509-0.125-0.808h-0.008c-0.047,0.295-0.09,0.544-0.152,0.808l-0.249,1.127
	H26.393z"/>
</svg>
