<?xml version="1.0" encoding="iso-8859-1"?>

<!--
 * Copyright (c) 2015, WSO2 Inc. (http://www.wso2.org) All Rights Reserved.
 *
 * WSO2 Inc. licenses this file to you under the Apache License,
 * Version 2.0 (the "License"); you may not use this file except
 * in compliance with the License.
 * You may obtain a copy of the License at
 *
 * http://www.apache.org/licenses/LICENSE-2.0
 *
 * Unless required by applicable law or agreed to in writing,
 * software distributed under the License is distributed on an
 * "AS IS" BASIS, WITHOUT WARRANTIES OR CONDITIONS OF ANY
 * KIND, either express or implied. See the License for the
 * specific language governing permissions and limitations
 * under the License.
-->

<!DOCTYPE svg PUBLIC "-//W3C//DTD SVG 1.1//EN" "http://www.w3.org/Graphics/SVG/1.1/DTD/svg11.dtd">
<svg version="1.1" xmlns="http://www.w3.org/2000/svg" xmlns:xlink="http://www.w3.org/1999/xlink" x="0px" y="0px" width="48px"
	 height="48px" viewBox="0 0 48 48" style="enable-background:new 0 0 48 48;" xml:space="preserve">
<g id="WSDL">
	<path id="Doc_6_" d="M31.583,0.018h-1.836L29.738,0.01v0.008H8.225c-1.363,0-2.473,1.109-2.473,2.473v43.027
		c0,1.363,1.109,2.473,2.473,2.473h31.551c1.363,0,2.473-1.109,2.473-2.473V10.243L31.583,0.018z M39.775,46.556H8.225
		c-0.573,0-1.038-0.466-1.038-1.038V2.49c0-0.571,0.465-1.038,1.038-1.038h21.514v8.184c0,1.302,1.06,2.361,2.361,2.361h8.714
		v33.521C40.813,46.09,40.348,46.556,39.775,46.556z"/>
	<g id="Markup_3_">
		<polygon points="23.502,40.906 28.351,43.146 28.351,42.077 24.682,40.482 24.682,40.463 28.351,38.86 
			28.351,37.791 23.502,40.04 		"/>
		<polygon points="29.088,43.548 30.106,43.548 32.263,36.239 31.245,36.239 		"/>
		<polygon points="32.839,37.791 32.839,38.86 36.59,40.463 36.59,40.482 32.839,42.086 32.839,43.146 
			37.688,40.938 37.688,40.009 		"/>
	</g>
	<g id="WSDL_1_">
		<path d="M28.94,22.092c-0.414,0-0.703,0.039-0.866,0.075v5.538c0.163,0.038,0.439,0.038,0.665,0.038
			c1.745,0.012,2.889-0.942,2.889-2.964C31.628,22.959,30.598,22.092,28.94,22.092z"/>
		<path d="M43.202,17.17H4.797c-0.97,0-1.755,0.787-1.755,1.756v11.948c0,0.971,0.785,1.756,1.755,1.756
			h38.405c0.97,0,1.756-0.785,1.756-1.756V18.926C44.958,17.957,44.172,17.17,43.202,17.17z M16.31,29.149h-2.071l-0.716-3.642
			c-0.163-0.854-0.302-1.645-0.401-2.612h-0.025c-0.15,0.955-0.289,1.757-0.49,2.612l-0.803,3.642H9.705l-2.008-8.463h2.046
			l0.64,3.479c0.189,1.017,0.365,2.109,0.503,2.976h0.025c0.138-0.93,0.339-1.946,0.552-3.001l0.716-3.454h2.034l0.678,3.566
			c0.189,0.992,0.327,1.896,0.452,2.837h0.025c0.125-0.941,0.314-1.934,0.49-2.95l0.69-3.454h1.946L16.31,29.149z M21.457,29.287
			c-0.967,0-1.92-0.264-2.397-0.527l0.389-1.569c0.503,0.264,1.306,0.527,2.122,0.527c0.879,0,1.344-0.364,1.344-0.93
			c0-0.514-0.401-0.828-1.419-1.18c-1.407-0.503-2.335-1.281-2.335-2.523c0-1.445,1.218-2.537,3.201-2.537
			c0.967,0,1.658,0.189,2.16,0.427l-0.427,1.532c-0.327-0.163-0.942-0.401-1.759-0.401c-0.828,0-1.229,0.389-1.229,0.816
			c0,0.54,0.464,0.778,1.568,1.205c1.494,0.552,2.186,1.332,2.186,2.537C24.86,28.082,23.78,29.287,21.457,29.287z M32.256,28.145
			c-0.893,0.741-2.26,1.093-3.918,1.093c-0.991,0-1.708-0.063-2.172-0.126v-8.299c0.703-0.126,1.619-0.189,2.573-0.189
			c1.62,0,2.675,0.264,3.479,0.879c0.879,0.653,1.431,1.708,1.431,3.214C33.648,26.337,33.06,27.454,32.256,28.145z M40.19,29.149
			h-5.274v-8.463h1.909v6.856h3.365V29.149z"/>
	</g>
</g>
</svg>
