<?xml version="1.0" encoding="utf-8"?>

<!--
 * Copyright (c) 2015, WSO2 Inc. (http://www.wso2.org) All Rights Reserved.
 *
 * WSO2 Inc. licenses this file to you under the Apache License,
 * Version 2.0 (the "License"); you may not use this file except
 * in compliance with the License.
 * You may obtain a copy of the License at
 *
 * http://www.apache.org/licenses/LICENSE-2.0
 *
 * Unless required by applicable law or agreed to in writing,
 * software distributed under the License is distributed on an
 * "AS IS" BASIS, WITHOUT WARRANTIES OR CONDITIONS OF ANY
 * KIND, either express or implied. See the License for the
 * specific language governing permissions and limitations
 * under the License.
-->

<svg version="1.1" id="wsdl" xmlns="http://www.w3.org/2000/svg" xmlns:xlink="http://www.w3.org/1999/xlink" x="0px" y="0px"
	 viewBox="24 17 12.199 14" enable-background="new 24 17 12.199 14" xml:space="preserve">
<path d="M31.354,29.275l-1.071-0.465v-0.006l1.071-0.468v-0.312l-1.415,0.656v0.253l1.415,0.654
	C31.354,29.587,31.354,29.275,31.354,29.275z M32.495,27.571h-0.297l-0.629,2.133h0.297L32.495,27.571z M34.078,28.671l-1.415-0.647
	v0.312l1.094,0.468v0.006l-1.094,0.468v0.309l1.415-0.644V28.671z M31.525,23.444c-0.121,0-0.205,0.011-0.253,0.022v1.616
	c0.048,0.011,0.128,0.011,0.194,0.011c0.509,0.004,0.843-0.275,0.843-0.865C32.31,23.697,32.009,23.444,31.525,23.444z
	 M35.687,22.007h-0.278v-2.021l-3.112-2.983h-0.536L31.758,17v0.002h-6.277c-0.398,0-0.722,0.324-0.722,0.722v4.283h-0.279
	c-0.283,0-0.512,0.23-0.512,0.512v3.486c0,0.283,0.229,0.512,0.512,0.512h0.279v3.76c0,0.398,0.324,0.722,0.722,0.722h9.206
	c0.398,0,0.722-0.324,0.722-0.722v-3.76h0.278c0.283,0,0.512-0.229,0.512-0.512V22.52C36.199,22.237,35.97,22.007,35.687,22.007z
	 M25.178,17.724c0-0.167,0.136-0.303,0.303-0.303h6.277v2.388c0,0.38,0.309,0.689,0.689,0.689h2.543v1.509h-9.812V17.724z
	 M34.808,25.034v0.469h-1.539v-2.469h0.557v2H34.808z M32.899,24.21c0,0.473-0.172,0.799-0.406,1
	c-0.261,0.216-0.659,0.319-1.143,0.319c-0.289,0-0.498-0.018-0.634-0.037V23.07c0.205-0.037,0.472-0.055,0.751-0.055
	c0.473,0,0.781,0.077,1.015,0.256C32.738,23.462,32.899,23.77,32.899,24.21z M29.353,24.47c-0.411-0.147-0.681-0.374-0.681-0.736
	c0-0.422,0.355-0.74,0.934-0.74c0.282,0,0.484,0.055,0.63,0.125l-0.125,0.447c-0.095-0.048-0.275-0.117-0.513-0.117
	c-0.242,0-0.359,0.114-0.359,0.238c0,0.158,0.135,0.227,0.458,0.352c0.436,0.161,0.638,0.389,0.638,0.74
	c0,0.414-0.315,0.765-0.993,0.765c-0.282,0-0.56-0.077-0.699-0.154l0.114-0.458c0.147,0.077,0.381,0.154,0.619,0.154
	c0.256,0,0.392-0.106,0.392-0.271C29.767,24.664,29.65,24.572,29.353,24.47z M28.477,23.033l-0.637,2.47h-0.604l-0.209-1.063
	c-0.048-0.249-0.088-0.48-0.117-0.762h-0.007c-0.044,0.279-0.084,0.513-0.143,0.762l-0.234,1.063h-0.612l-0.586-2.469h0.597
	l0.187,1.015c0.055,0.297,0.107,0.615,0.147,0.868h0.007c0.04-0.271,0.099-0.568,0.161-0.876l0.209-1.008h0.593l0.198,1.04
	c0.055,0.289,0.095,0.553,0.132,0.828h0.007c0.036-0.275,0.092-0.564,0.143-0.861l0.201-1.008
	C27.91,23.033,28.477,23.033,28.477,23.033z M34.99,30.279c0,0.167-0.136,0.303-0.303,0.303h-9.206
	c-0.167,0-0.303-0.136-0.303-0.303v-3.76h9.812C34.99,26.518,34.99,30.279,34.99,30.279z"/>
</svg>
