<?xml version="1.0" encoding="utf-8"?>

<!--
 * Copyright (c) 2015, WSO2 Inc. (http://www.wso2.org) All Rights Reserved.
 *
 * WSO2 Inc. licenses this file to you under the Apache License,
 * Version 2.0 (the "License"); you may not use this file except
 * in compliance with the License.
 * You may obtain a copy of the License at
 *
 * http://www.apache.org/licenses/LICENSE-2.0
 *
 * Unless required by applicable law or agreed to in writing,
 * software distributed under the License is distributed on an
 * "AS IS" BASIS, WITHOUT WARRANTIES OR CONDITIONS OF ANY
 * KIND, either express or implied. See the License for the
 * specific language governing permissions and limitations
 * under the License.
-->

<svg version="1.1" id="wso2" xmlns="http://www.w3.org/2000/svg" xmlns:xlink="http://www.w3.org/1999/xlink" x="0px" y="0px"
	 viewBox="13.5 17 20.85 14" enable-background="new 13.5 17 20.85 14" xml:space="preserve">
<path fill="#090A0C" d="M21.481,19.977c-0.605,1.482-1.205,2.966-1.808,4.449c-0.603-1.486-1.208-2.971-1.81-4.457
	c-0.61,1.483-1.209,2.971-1.813,4.456c-0.606-1.481-1.205-2.965-1.808-4.448c-0.247-0.001-0.494,0-0.742,0
	c0.848,2.104,1.698,4.207,2.549,6.309c0.605-1.491,1.206-2.985,1.813-4.476c0.593,1.474,1.192,2.947,1.787,4.421
	c0.01,0.058,0.053,0.008,0.056-0.022c0.84-2.078,1.684-4.154,2.525-6.231C21.981,19.977,21.73,19.978,21.481,19.977z M24.855,23.089
	c-0.311-0.214-0.658-0.366-1-0.521c-0.268-0.14-0.536-0.285-0.781-0.463c-0.35-0.265-0.347-0.835-0.056-1.143
	c0.271-0.294,0.705-0.396,1.089-0.316c0.195,0.039,0.366,0.154,0.498,0.3c0.101,0.102,0.165,0.231,0.261,0.335
	c0.18-0.12,0.364-0.233,0.544-0.351c-0.259-0.478-0.726-0.858-1.273-0.938c-0.476-0.056-0.988,0.022-1.386,0.305
	c-0.301,0.209-0.53,0.528-0.603,0.891c-0.074,0.361-0.046,0.762,0.155,1.078c0.126,0.2,0.325,0.336,0.515,0.468
	c0.239,0.164,0.496,0.3,0.759,0.419c0.343,0.154,0.674,0.337,0.987,0.545c0.151,0.099,0.273,0.246,0.324,0.421
	c0.076,0.253,0.046,0.529-0.046,0.774c-0.147,0.366-0.488,0.652-0.879,0.721c-0.333,0.063-0.706,0.018-0.978-0.198
	c-0.286-0.221-0.439-0.567-0.521-0.91c-0.222,0.068-0.445,0.136-0.668,0.203c0.093,0.403,0.274,0.798,0.579,1.085
	c0.293,0.282,0.69,0.442,1.093,0.473c0.442,0.046,0.908-0.037,1.284-0.283c0.427-0.275,0.756-0.717,0.841-1.223
	c0.063-0.38,0.043-0.796-0.156-1.135C25.302,23.395,25.072,23.242,24.855,23.089z M31.778,24.595
	c0.327-0.615,0.435-1.339,0.313-2.024c-0.174-1.024-0.895-1.932-1.85-2.337c-0.467-0.208-0.985-0.285-1.494-0.252
	c-0.89,0.06-1.741,0.522-2.279,1.235c-0.451,0.585-0.683,1.335-0.64,2.072c0.028,0.619,0.249,1.228,0.621,1.723
	c0.351,0.473,0.838,0.844,1.388,1.055c0.569,0.221,1.202,0.27,1.799,0.146C30.544,26.028,31.35,25.416,31.778,24.595z
	 M29.776,25.531c-0.612,0.208-1.303,0.163-1.883-0.119c-0.725-0.342-1.258-1.05-1.392-1.839v0c0.557,0,1.113,0,1.67,0
	c0.263-0.582,0.523-1.166,0.788-1.748c0.363,0.875,0.719,1.751,1.081,2.626c0.223-0.397,0.444-0.797,0.665-1.195
	c0.262,0,0.525,0,0.787,0c0.007-0.082,0.004-0.164-0.003-0.245c-0.31,0-0.62,0-0.93,0c-0.164,0.29-0.324,0.581-0.486,0.872
	c-0.37-0.894-0.734-1.791-1.105-2.685c-0.322,0.71-0.636,1.423-0.962,2.132c-0.51-0.005-1.021,0-1.532-0.003v0h-0.007
	c-0.022-0.475,0.07-0.96,0.298-1.379c0.327-0.616,0.923-1.083,1.601-1.25c0.434-0.111,0.896-0.101,1.325,0.027
	c0.533,0.157,1.01,0.497,1.332,0.95c0.279,0.388,0.441,0.859,0.466,1.336c0.007,0.081,0.01,0.163,0.003,0.245
	c-0.02,0.473-0.176,0.939-0.449,1.326C30.737,25.021,30.287,25.362,29.776,25.531z M32.172,27.534
	c0.426-0.46,0.854-0.92,1.279-1.379c0.263-0.287,0.524-0.582,0.732-0.914c0.253-0.408,0.322-0.929,0.168-1.385
	c-0.156-0.438-0.518-0.808-0.967-0.94c-0.329-0.096-0.685-0.095-1.015-0.004c0.02,0.173-0.001,0.347-0.013,0.52
	c0.417-0.184,0.95-0.113,1.272,0.221c0.249,0.234,0.355,0.596,0.287,0.93c-0.073,0.426-0.389,0.744-0.656,1.062
	c-0.732,0.799-1.474,1.589-2.208,2.386c1.15,0.001,2.3,0,3.45,0c0-0.165,0-0.331,0-0.497C33.724,27.534,32.948,27.533,32.172,27.534
	z"/>
</svg>
