<?xml version="1.0" encoding="iso-8859-1"?>

<!--
 * Copyright (c) 2015, WSO2 Inc. (http://www.wso2.org) All Rights Reserved.
 *
 * WSO2 Inc. licenses this file to you under the Apache License,
 * Version 2.0 (the "License"); you may not use this file except
 * in compliance with the License.
 * You may obtain a copy of the License at
 *
 * http://www.apache.org/licenses/LICENSE-2.0
 *
 * Unless required by applicable law or agreed to in writing,
 * software distributed under the License is distributed on an
 * "AS IS" BASIS, WITHOUT WARRANTIES OR CONDITIONS OF ANY
 * KIND, either express or implied. See the License for the
 * specific language governing permissions and limitations
 * under the License.
-->

<!DOCTYPE svg PUBLIC "-//W3C//DTD SVG 1.1//EN" "http://www.w3.org/Graphics/SVG/1.1/DTD/svg11.dtd">
<svg version="1.1" xmlns="http://www.w3.org/2000/svg" xmlns:xlink="http://www.w3.org/1999/xlink" x="0px" y="0px" width="48px"
	 height="48px" viewBox="0 0 48 48" style="enable-background:new 0 0 48 48;" xml:space="preserve">
<g id="WSO2">
	<path d="M33.159,22.466c0.745-1.619,1.463-3.25,2.199-4.872c0.848,2.044,1.681,4.093,2.526,6.137
		c0.37-0.665,0.736-1.332,1.11-1.994c0.709,0.001,1.416-0.001,2.125,0c0.015,0.187,0.022,0.374,0.006,0.561
		c-0.599-0.001-1.199-0.001-1.798,0c-0.507,0.91-1.011,1.823-1.521,2.731c-0.827-2-1.642-4.004-2.471-6.003
		c-0.604,1.33-1.198,2.666-1.8,3.996c-1.272,0-2.546,0-3.818,0c-0.026-0.187-0.056-0.374-0.059-0.564
		C30.825,22.467,31.993,22.455,33.159,22.466z"/>
	<path d="M0,14.806c0.565,0.001,1.13-0.001,1.695,0.001c1.378,3.388,2.748,6.78,4.133,10.166
		c1.38-3.396,2.748-6.796,4.143-10.186c1.378,3.397,2.759,6.792,4.138,10.188c1.378-3.389,2.75-6.782,4.132-10.169
		c0.571,0.001,1.144-0.001,1.715,0.001c-1.922,4.748-3.851,9.493-5.771,14.243c-0.006,0.069-0.104,0.182-0.128,0.05
		c-1.36-3.368-2.729-6.734-4.085-10.104c-1.389,3.407-2.762,6.821-4.145,10.23C3.88,24.421,1.938,19.614,0,14.806z"/>
	<path d="M21.147,15.538c0.908-0.647,2.079-0.826,3.167-0.697c1.25,0.181,2.317,1.05,2.909,2.143
		c-0.411,0.271-0.832,0.529-1.243,0.803c-0.219-0.239-0.366-0.534-0.596-0.766c-0.302-0.332-0.693-0.596-1.139-0.685
		c-0.878-0.183-1.87,0.049-2.489,0.722c-0.664,0.703-0.67,2.006,0.129,2.612c0.56,0.406,1.171,0.739,1.784,1.058
		c0.781,0.354,1.575,0.701,2.285,1.191c0.495,0.349,1.021,0.698,1.335,1.232c0.456,0.775,0.502,1.726,0.357,2.595
		c-0.194,1.156-0.947,2.166-1.922,2.795c-0.859,0.561-1.923,0.752-2.934,0.646c-0.921-0.072-1.828-0.437-2.498-1.082
		c-0.698-0.655-1.111-1.558-1.324-2.479c0.509-0.155,1.019-0.309,1.526-0.465c0.188,0.784,0.538,1.575,1.191,2.08
		c0.623,0.494,1.475,0.595,2.236,0.452c0.894-0.158,1.672-0.811,2.009-1.648c0.209-0.56,0.277-1.19,0.104-1.769
		c-0.116-0.4-0.397-0.736-0.741-0.963c-0.717-0.476-1.472-0.895-2.257-1.246c-0.602-0.272-1.189-0.583-1.735-0.957
		c-0.436-0.303-0.891-0.612-1.178-1.07c-0.46-0.724-0.522-1.641-0.354-2.465C19.935,16.745,20.46,16.016,21.147,15.538z"/>
	<path style="fill:#090A0C;" d="M34.849,14.816c1.163-0.075,2.347,0.102,3.415,0.577c2.183,0.926,3.831,3.001,4.229,5.341
		c0.279,1.565,0.032,3.221-0.716,4.626c-0.977,1.877-2.82,3.274-4.896,3.698c-1.364,0.285-2.811,0.173-4.112-0.333
		c-1.256-0.484-2.37-1.331-3.172-2.412c-0.851-1.132-1.356-2.523-1.42-3.938c-0.097-1.685,0.432-3.4,1.463-4.737
		C30.869,16.01,32.815,14.953,34.849,14.816z M33.984,16.449c-1.549,0.381-2.911,1.448-3.659,2.857
		c-0.523,0.959-0.733,2.067-0.682,3.153h0.016c0.003,0.19,0.032,0.377,0.059,0.564c0.305,1.804,1.525,3.421,3.181,4.203
		c1.325,0.645,2.905,0.747,4.303,0.272c1.167-0.384,2.196-1.163,2.898-2.169c0.623-0.885,0.981-1.951,1.026-3.031
		c0.017-0.188,0.009-0.375-0.006-0.561c-0.056-1.09-0.427-2.167-1.064-3.054c-0.736-1.036-1.825-1.813-3.044-2.172
		C36.033,16.219,34.975,16.196,33.984,16.449z"/>
	<path style="fill:#090A0C;" d="M43.126,21.512c0.754-0.208,1.567-0.21,2.32,0.01c1.027,0.302,1.855,1.147,2.211,2.149
		c0.352,1.042,0.196,2.233-0.383,3.165c-0.474,0.758-1.07,1.432-1.672,2.089c-0.973,1.051-1.951,2.101-2.924,3.153
		c1.773-0.002,3.548,0,5.321,0c0,0.379,0.001,0.758,0,1.136c-2.628-0.002-5.257,0.002-7.886-0.001
		c1.679-1.821,3.374-3.627,5.047-5.454c0.61-0.726,1.332-1.454,1.499-2.427c0.156-0.762-0.086-1.591-0.655-2.125
		c-0.736-0.765-1.954-0.926-2.907-0.506C43.124,22.305,43.172,21.907,43.126,21.512z"/>
</g>
</svg>
