<?xml version="1.0" encoding="utf-8"?>

<!--
 * Copyright (c) 2015, WSO2 Inc. (http://www.wso2.org) All Rights Reserved.
 *
 * WSO2 Inc. licenses this file to you under the Apache License,
 * Version 2.0 (the "License"); you may not use this file except
 * in compliance with the License.
 * You may obtain a copy of the License at
 *
 * http://www.apache.org/licenses/LICENSE-2.0
 *
 * Unless required by applicable law or agreed to in writing,
 * software distributed under the License is distributed on an
 * "AS IS" BASIS, WITHOUT WARRANTIES OR CONDITIONS OF ANY
 * KIND, either express or implied. See the License for the
 * specific language governing permissions and limitations
 * under the License.
-->

<svg version="1.1" id="xacml" xmlns="http://www.w3.org/2000/svg" xmlns:xlink="http://www.w3.org/1999/xlink" x="0px" y="0px"
	 viewBox="23.969 17 12.23 14" enable-background="new 23.969 17 12.23 14" xml:space="preserve">
<path d="M28.14,24.007c-0.034-0.123-0.071-0.28-0.102-0.401H28.03c-0.028,0.123-0.062,0.28-0.092,0.401l-0.126,0.441h0.459
	L28.14,24.007z M35.687,22.007h-0.278v-2.021l-3.112-2.983h-0.536L31.758,17v0.002h-6.277c-0.398,0-0.722,0.324-0.722,0.722v4.283
	h-0.279c-0.283,0-0.512,0.23-0.512,0.512v3.486c0,0.283,0.229,0.512,0.512,0.512h0.279v3.76c0,0.398,0.324,0.722,0.722,0.722h9.206
	c0.398,0,0.722-0.324,0.722-0.722v-3.76h0.278c0.283,0,0.512-0.229,0.512-0.512V22.52C36.199,22.237,35.97,22.007,35.687,22.007z
	 M25.178,17.724c0-0.167,0.136-0.303,0.303-0.303h6.277v2.388c0,0.38,0.309,0.689,0.689,0.689h2.543v1.509h-9.812V17.724z
	 M34.945,24.937v0.394h-1.294v-2.077h0.468v1.682C34.119,24.937,34.945,24.937,34.945,24.937z M33.287,25.331h-0.456v0l-0.034-0.795
	c-0.009-0.249-0.018-0.548-0.018-0.853h-0.006c-0.068,0.265-0.154,0.561-0.234,0.804l-0.252,0.81h-0.367l-0.222-0.801
	c-0.068-0.247-0.136-0.539-0.188-0.813h-0.006c-0.009,0.28-0.022,0.601-0.034,0.86l-0.04,0.789h-0.434l0.132-2.077h0.626
	l0.203,0.696c0.068,0.237,0.129,0.496,0.176,0.739h0.012c0.055-0.24,0.127-0.511,0.197-0.746l0.219-0.69h0.616L33.287,25.331z
	 M30.267,24.975c0.145,0,0.299-0.028,0.394-0.068l0.068,0.37c-0.083,0.04-0.28,0.09-0.53,0.09c-0.718,0-1.087-0.45-1.087-1.045
	c0-0.708,0.505-1.1,1.134-1.1c0.243,0,0.428,0.049,0.511,0.092l-0.099,0.37c-0.092-0.04-0.225-0.077-0.394-0.077
	c-0.37,0-0.659,0.225-0.659,0.69C29.605,24.713,29.851,24.975,30.267,24.975z M29.006,25.332h-0.505l-0.16-0.533h-0.598
	l-0.145,0.533h-0.487l0.635-2.077h0.613L29.006,25.332z M25.219,23.255h0.539l0.182,0.379c0.062,0.126,0.108,0.228,0.157,0.345
	h0.006c0.049-0.132,0.089-0.225,0.142-0.345l0.176-0.379h0.536l-0.585,1.014l0.616,1.063h-0.542l-0.188-0.376
	c-0.077-0.145-0.126-0.253-0.185-0.373h-0.006c-0.043,0.12-0.095,0.228-0.163,0.373l-0.169,0.376h-0.536l0.601-1.051L25.219,23.255z
	 M34.99,30.279c0,0.167-0.136,0.303-0.303,0.303h-9.206c-0.167,0-0.303-0.136-0.303-0.303v-3.76h9.812
	C34.99,26.518,34.99,30.279,34.99,30.279z M31.354,29.275l-1.071-0.465v-0.006l1.071-0.468v-0.312l-1.415,0.656v0.253l1.415,0.654
	C31.354,29.587,31.354,29.275,31.354,29.275z M32.495,27.571h-0.297l-0.629,2.133h0.297L32.495,27.571z M34.078,28.671l-1.415-0.647
	v0.312l1.094,0.468v0.006l-1.094,0.468v0.309l1.415-0.644V28.671z"/>
</svg>
