<?xml version="1.0" encoding="utf-8"?>
<!-- Generator: Adobe Illustrator 16.0.0, SVG Export Plug-In . SVG Version: 6.00 Build 0)  -->
<!DOCTYPE svg PUBLIC "-//W3C//DTD SVG 1.1//EN" "http://www.w3.org/Graphics/SVG/1.1/DTD/svg11.dtd">
<svg version="1.1" id="Layer_1" xmlns="http://www.w3.org/2000/svg" xmlns:xlink="http://www.w3.org/1999/xlink" x="0px" y="0px"
	 width="126px" height="126px" viewBox="0 0 126 126" enable-background="new 0 0 126 126" xml:space="preserve">
<path d="M103.207,49.021h-2.449V37.203c0-0.074-0.012-0.148-0.021-0.223c-0.004-0.469-0.154-0.93-0.475-1.295L80.596,13.22
	c-0.006-0.006-0.012-0.008-0.016-0.014c-0.117-0.131-0.254-0.24-0.398-0.334c-0.043-0.029-0.086-0.053-0.131-0.078
	c-0.125-0.068-0.258-0.125-0.395-0.166c-0.037-0.01-0.07-0.025-0.107-0.035c-0.148-0.035-0.303-0.057-0.459-0.057H30.758
	c-2.207,0-4,1.795-4,4v32.484h-2.449c-3.157,0-5.717,2.559-5.717,5.717v29.73c0,3.156,2.56,5.717,5.717,5.717h2.449v20.352
	c0,2.205,1.793,4,4,4h66c2.205,0,4-1.795,4-4V90.185h2.449c3.157,0,5.717-2.561,5.717-5.717v-29.73
	C108.924,51.58,106.364,49.021,103.207,49.021z M30.758,16.537H77.09v20.465c0,1.105,0.896,2,2,2h17.668v10.02h-66V16.537z
	 M81.189,81.894h-5.936l-0.4-10.282c-0.119-3.228-0.24-7.132-0.24-11.039h-0.117c-0.836,3.429-1.953,7.253-2.988,10.401
	L68.24,81.455h-4.744l-2.869-10.4c-0.875-3.147-1.791-6.973-2.43-10.481h-0.08c-0.158,3.627-0.279,7.771-0.479,11.118l-0.477,10.202
	h-5.619l1.715-26.859h8.088l2.631,8.967c0.836,3.106,1.674,6.453,2.27,9.601h0.121c0.756-3.106,1.674-6.653,2.551-9.642l2.869-8.926
	h7.93L81.189,81.894z M25.719,81.894l7.77-13.59l-7.49-13.269h6.973l2.35,4.901c0.799,1.635,1.395,2.95,2.035,4.462h0.078
	c0.637-1.712,1.154-2.907,1.832-4.462l2.273-4.901h6.932l-7.572,13.111l7.971,13.748h-7.012l-2.432-4.863
	c-0.996-1.872-1.633-3.267-2.391-4.822h-0.08c-0.557,1.556-1.236,2.95-2.072,4.822l-2.23,4.863H25.719z M96.758,109.453h-66V90.185
	h66V109.453z M102.633,81.894H85.854V55.035h6.098v21.759h10.682V81.894z"/>
</svg>
