<?xml version="1.0" encoding="iso-8859-1"?>

<!--
 * Copyright (c) 2015, WSO2 Inc. (http://www.wso2.org) All Rights Reserved.
 *
 * WSO2 Inc. licenses this file to you under the Apache License,
 * Version 2.0 (the "License"); you may not use this file except
 * in compliance with the License.
 * You may obtain a copy of the License at
 *
 * http://www.apache.org/licenses/LICENSE-2.0
 *
 * Unless required by applicable law or agreed to in writing,
 * software distributed under the License is distributed on an
 * "AS IS" BASIS, WITHOUT WARRANTIES OR CONDITIONS OF ANY
 * KIND, either express or implied. See the License for the
 * specific language governing permissions and limitations
 * under the License.
-->

<!DOCTYPE svg PUBLIC "-//W3C//DTD SVG 1.1//EN" "http://www.w3.org/Graphics/SVG/1.1/DTD/svg11.dtd">
<svg version="1.1" xmlns="http://www.w3.org/2000/svg" xmlns:xlink="http://www.w3.org/1999/xlink" x="0px" y="0px" width="48px"
	 height="48px" viewBox="0 0 48 48" style="enable-background:new 0 0 48 48;" xml:space="preserve">
<g id="XSD">
	<path id="Doc_5_" d="M31.583,0.018h-1.836L29.738,0.01v0.008H8.225c-1.363,0-2.473,1.109-2.473,2.473v43.027
		c0,1.363,1.109,2.473,2.473,2.473h31.551c1.363,0,2.473-1.109,2.473-2.473V10.243L31.583,0.018z M39.775,46.556H8.225
		c-0.573,0-1.038-0.466-1.038-1.038V2.49c0-0.571,0.465-1.038,1.038-1.038h21.514v8.184c0,1.302,1.06,2.361,2.361,2.361h8.714
		v33.521C40.813,46.09,40.348,46.556,39.775,46.556z"/>
	<g id="Markup_2_">
		<polygon points="23.502,40.906 28.351,43.146 28.351,42.077 24.682,40.482 24.682,40.463 28.351,38.86 
			28.351,37.791 23.502,40.04 		"/>
		<polygon points="29.088,43.548 30.106,43.548 32.263,36.239 31.245,36.239 		"/>
		<polygon points="32.839,37.791 32.839,38.86 36.59,40.463 36.59,40.482 32.839,42.086 32.839,43.146 
			37.688,40.938 37.688,40.009 		"/>
	</g>
	<g id="XSD_1_">
		<path d="M43.202,17.17H4.797c-0.97,0-1.755,0.787-1.755,1.756v11.948c0,0.971,0.785,1.756,1.755,1.756
			h38.405c0.97,0,1.756-0.785,1.756-1.756V18.926C44.958,17.957,44.172,17.17,43.202,17.17z M17.679,29.149l-0.767-1.532
			c-0.313-0.591-0.515-1.029-0.754-1.519h-0.023c-0.176,0.489-0.39,0.928-0.666,1.519l-0.69,1.532h-2.186l2.448-4.282l-2.36-4.182
			h2.198l0.74,1.544c0.251,0.515,0.438,0.929,0.64,1.406h0.025c0.201-0.54,0.364-0.917,0.577-1.406l0.717-1.544h2.185l-2.386,4.131
			l2.512,4.333H17.679z M22.989,29.287c-0.968,0-1.922-0.264-2.399-0.527l0.391-1.569c0.502,0.264,1.306,0.527,2.122,0.527
			c0.878,0,1.343-0.364,1.343-0.93c0-0.514-0.4-0.828-1.418-1.18c-1.407-0.503-2.336-1.281-2.336-2.523
			c0-1.445,1.218-2.537,3.202-2.537c0.967,0,1.657,0.189,2.16,0.427l-0.427,1.532c-0.327-0.163-0.942-0.401-1.759-0.401
			c-0.829,0-1.23,0.389-1.23,0.816c0,0.54,0.465,0.778,1.569,1.205c1.495,0.552,2.185,1.332,2.185,2.537
			C26.392,28.082,25.313,29.287,22.989,29.287z M33.788,28.145c-0.893,0.741-2.261,1.093-3.919,1.093
			c-0.991,0-1.707-0.063-2.172-0.126v-8.299c0.704-0.126,1.62-0.189,2.574-0.189c1.62,0,2.674,0.264,3.478,0.879
			c0.88,0.653,1.432,1.708,1.432,3.214C35.181,26.337,34.591,27.454,33.788,28.145z"/>
		<path d="M30.473,22.092c-0.415,0-0.703,0.039-0.866,0.075v5.538c0.163,0.038,0.439,0.038,0.665,0.038
			c1.745,0.012,2.888-0.942,2.888-2.964C33.159,22.959,32.13,22.092,30.473,22.092z"/>
	</g>
</g>
</svg>
