<?xml version="1.0" encoding="utf-8"?>

<!--
 * Copyright (c) 2015, WSO2 Inc. (http://www.wso2.org) All Rights Reserved.
 *
 * WSO2 Inc. licenses this file to you under the Apache License,
 * Version 2.0 (the "License"); you may not use this file except
 * in compliance with the License.
 * You may obtain a copy of the License at
 *
 * http://www.apache.org/licenses/LICENSE-2.0
 *
 * Unless required by applicable law or agreed to in writing,
 * software distributed under the License is distributed on an
 * "AS IS" BASIS, WITHOUT WARRANTIES OR CONDITIONS OF ANY
 * KIND, either express or implied. See the License for the
 * specific language governing permissions and limitations
 * under the License.
-->

<svg version="1.1" id="xslt" xmlns="http://www.w3.org/2000/svg" xmlns:xlink="http://www.w3.org/1999/xlink" x="0px" y="0px"
	 viewBox="23.969 17 12.23 14" enable-background="new 23.969 17 12.23 14" xml:space="preserve">
<path d="M31.354,29.274l-1.071-0.465v-0.006l1.071-0.468v-0.312l-1.415,0.656v0.253l1.415,0.654
	C31.354,29.586,31.354,29.274,31.354,29.274z M32.495,27.571h-0.297l-0.629,2.133h0.297L32.495,27.571z M34.078,28.671l-1.415-0.647
	v0.312l1.094,0.468v0.006l-1.094,0.468v0.309l1.415-0.644V28.671z M35.687,22.007h-0.278v-2.021l-3.112-2.984h-0.536L31.758,17
	v0.002h-6.277c-0.398,0-0.722,0.324-0.722,0.722v4.283h-0.279c-0.283,0-0.512,0.23-0.512,0.512v3.486
	c0,0.283,0.229,0.512,0.512,0.512h0.279v3.76c0,0.398,0.324,0.722,0.722,0.722h9.206c0.398,0,0.722-0.324,0.722-0.722v-3.76h0.278
	c0.283,0,0.512-0.229,0.512-0.512V22.52C36.199,22.236,35.97,22.007,35.687,22.007z M25.178,17.724c0-0.167,0.136-0.303,0.303-0.303
	h6.277v2.388c0,0.38,0.309,0.689,0.689,0.689h2.543v1.509h-9.812V17.724z M31.988,23.502v-0.469h1.841v0.469h-0.655v2h-0.54v-2
	C32.633,23.502,31.988,23.502,31.988,23.502z M32.177,25.033v0.468h0h-1.49v-2.468h0.54v2H32.177z M29.641,24.619
	c-0.063-0.051-0.17-0.101-0.318-0.149c-0.207-0.074-0.371-0.17-0.49-0.29c-0.128-0.121-0.191-0.27-0.191-0.447
	c0.002-0.217,0.086-0.394,0.252-0.531c0.162-0.137,0.387-0.207,0.674-0.209c0.277,0.005,0.486,0.046,0.626,0.125l-0.126,0.447
	c-0.047-0.027-0.113-0.054-0.198-0.081c-0.044-0.013-0.092-0.023-0.144-0.03c-0.052-0.005-0.11-0.007-0.174-0.007
	c-0.12,0-0.209,0.023-0.268,0.07c-0.061,0.047-0.092,0.103-0.092,0.168c0,0.074,0.036,0.135,0.109,0.184
	c0.074,0.051,0.191,0.107,0.35,0.168c0.428,0.151,0.64,0.398,0.638,0.741c0,0.21-0.079,0.389-0.236,0.535
	c-0.162,0.151-0.411,0.227-0.747,0.231c-0.302-0.008-0.533-0.06-0.692-0.153l0.109-0.458c0.163,0.097,0.37,0.148,0.621,0.154
	c0.261-0.004,0.392-0.094,0.395-0.272C29.737,24.738,29.705,24.674,29.641,24.619z M26.307,23.034h0.62l0.209,0.451
	c0.069,0.141,0.13,0.277,0.182,0.409h0.007c0.052-0.144,0.106-0.28,0.163-0.409l0.202-0.451h0.616l-0.696,1.204l0.732,1.265h-0.625
	l-0.216-0.447c-0.08-0.163-0.151-0.311-0.213-0.443h-0.007c-0.047,0.132-0.11,0.28-0.187,0.443l-0.196,0.447h-0.616l0.691-1.249
	L26.307,23.034z M34.99,30.278c0,0.167-0.136,0.303-0.303,0.303h-9.206c-0.167,0-0.303-0.136-0.303-0.303v-3.76h9.812
	C34.99,26.518,34.99,30.278,34.99,30.278z"/>
</svg>
